<?xml version="1.0" encoding="utf-8"?>
<!-- Generator: Adobe Illustrator 25.3.1, SVG Export Plug-In . SVG Version: 6.00 Build 0)  -->
<svg version="1.1" id="Layer_1" xmlns="http://www.w3.org/2000/svg" xmlns:xlink="http://www.w3.org/1999/xlink" x="0px" y="0px"
	 viewBox="0 0 90 90" style="enable-background:new 0 0 90 90;" xml:space="preserve">
<style type="text/css">
	.st0{fill:#DF2771;}
</style>
<g>
	<path class="st0" d="M88.7,58.2c-1.7-0.1-3.3-0.7-3.9-2.5c-0.7-1.6,0-3.2,1.1-4.5c0.5-0.6,0.4-1.5-0.2-2.1l-6.3-6.3
		c-0.6-0.5-1.4-0.6-2.1-0.2l-0.9,0.7c-2,1.6-5.5,0.2-5.8-2.4c0,0-0.2-1.1-0.2-1.1c-0.1-0.8-0.8-1.3-1.6-1.3h-8.9
		c-0.8,0-1.4,0.6-1.6,1.3L58,41c-0.3,2.6-3.7,4-5.8,2.4c0,0-0.9-0.7-0.9-0.7c-0.6-0.5-1.5-0.4-2.1,0.2l-6.3,6.3
		c-0.5,0.6-0.6,1.4-0.2,2.1l0.7,0.9c1.6,2,0.2,5.5-2.4,5.8c0,0-1.1,0.2-1.1,0.2c-0.8,0.1-1.3,0.8-1.3,1.6v8.9c0,0.8,0.6,1.4,1.3,1.6
		l1.1,0.2c1.3,0.2,2.3,1,2.8,2.3c0.5,1.2,0.3,2.5-0.4,3.5c-0.7,0.9-1.5,2-0.5,3c0,0,6.3,6.3,6.3,6.3c0.6,0.5,1.4,0.6,2.1,0.2
		c1.3-1.1,2.9-1.8,4.5-1c1.6,0.6,2.2,2.3,2.4,3.9c0.1,0.8,0.8,1.3,1.6,1.3h8.9c0.8,0,1.4-0.6,1.6-1.3l0.2-1.1c0.3-2.6,3.7-4,5.8-2.4
		c0.9,0.7,2,1.5,3,0.5c0,0,6.3-6.3,6.3-6.3c0.5-0.6,0.6-1.4,0.2-2.1c-1.1-1.3-1.8-2.9-1-4.5c0.6-1.6,2.3-2.2,3.9-2.4
		c0.8-0.1,1.3-0.8,1.3-1.6v-8.9C90,59,89.4,58.4,88.7,58.2L88.7,58.2z M64.3,79.6c-8.2,0.2-15.4-7.1-15.3-15.3
		c-0.1-13.5,16.5-20.4,26.1-10.8C84.7,63,77.8,79.6,64.3,79.6L64.3,79.6z"/>
	<path class="st0" d="M64.3,52.2c-8.9-0.2-15,9.9-10.7,17.7c5.9,11,22.6,6.9,22.7-5.6C76.5,57.9,70.7,52.1,64.3,52.2z M63.4,62.7
		h1.7c5.1,0.1,5.7,7.3,0.8,8.3c0.3,2.6-3.4,2.6-3.2,0.1c0,0-1.8,0-1.8,0c-0.9,0-1.6-0.7-1.6-1.6c0-0.9,0.7-1.6,1.6-1.6h4.3
		c0.5,0,1-0.4,1-1c0-1.4-1.8-0.9-2.7-1c-5.1-0.1-5.7-7.3-0.8-8.3c-0.3-2.6,3.4-2.6,3.2-0.1c0,0,1.8,0,1.8,0c2.1,0,2.1,3.2,0,3.2
		h-4.3C62.1,60.8,62.1,62.7,63.4,62.7L63.4,62.7z"/>
	<path class="st0" d="M40.7,81.6c-2.1-2.1-1.7-5,0.2-7.1c0.1-0.2,0.1-0.3,0-0.4c-0.1-0.3-0.3-0.3-0.4-0.3c-2.8-0.2-5.2-2-5.2-4.9
		c0,0,0-8.9,0-8.9c0-2.4,1.7-4.4,4-4.7c0.3-0.1,1.4-0.1,1.5-0.4c0.1-0.3,0-0.4,0-0.5l-0.7-1c-1.4-1.9-1.2-4.5,0.5-6.2l6.3-6.3
		c2.1-2.1,5.1-1.7,7.1,0.1c0.3,0.2,0.8-0.1,0.8-0.3c0.2-2.8,2-5.2,4.9-5.2c0,0,4.9,0,4.9,0c-3.1-4.4-7.2-8.2-12-10.8
		c-1.4,2.6-4.1,4.3-7.1,4.3H28c-3,0-5.8-1.7-7.1-4.4C5.1,33-2.2,53.5,5,70c-9.1,5.7-5,20,5.8,20h38.3C47.8,88.7,42.1,83,40.7,81.6
		L40.7,81.6z"/>
	<path class="st0" d="M19.8,14.6c1.3,1.8,2.7,3.2,4,4.1c-1.8,3,0.7,7.2,4.2,7.1c0,0,17.6,0,17.6,0c3.5,0.1,6-4,4.2-7.1
		c3.2-2.2,6.1-6.6,6.8-10.7c0.9-4-2.4-8-6.5-7.9c0,0-26.6,0-26.6,0c-4-0.1-7.4,3.9-6.5,7.9C17.5,10.4,18.4,12.6,19.8,14.6L19.8,14.6
		z"/>
</g>
</svg>
