<svg id="svg8" enable-background="new 0 0 512 512" height="512" viewBox="0 0 512 512" width="512" xmlns="http://www.w3.org/2000/svg" xmlns:svg="http://www.w3.org/2000/svg"><g id="g1208" transform="matrix(-1 0 0 1 47.801 0)"><path id="path1206" d="m-101.165 31.969c-10.787.125-21.255 3.677-29.892 10.144l-231.387 173.116c-22.502 16.848-27.096 48.76-10.26 71.278 2.912 3.895 6.368 7.353 10.26 10.268l231.387 173.116c22.503 16.837 54.384 12.234 71.213-10.283 16.825-22.519 12.225-54.423-10.275-71.263l-176.909-132.343 176.908-132.344c22.5-16.84 27.101-48.744 10.275-71.263-9.726-13.019-25.078-20.608-41.32-20.426z" fill="#9efb4f"/><path id="path1328_1_" d="m-382.849 256h135.82l176.917 132.354c22.491 16.841 27.088 48.735 10.271 71.25-16.826 22.516-48.704 27.124-71.208 10.292l-231.397-173.126c-3.738-2.778-11.322-9.211-16.054-20.271-3.622-8.467-4.446-16.069-4.349-20.499z" fill="#63f818"/></g></svg>