<svg width="20" height="20" viewBox="0 0 20 20" fill="none" xmlns="http://www.w3.org/2000/svg">
<path d="M20 10C20 4.48613 15.5143 0 10 0C4.48613 0 0 4.48613 0 10C0 15.5141 4.48613 20 10 20C15.5143 20 20 15.5141 20 10ZM10.0002 5.28603L8.42885 6.85744L6.85744 8.42885L5.28603 6.85744L10.0002 2.14325L14.7142 6.85744L13.143 8.42885L11.5716 6.85744L10.0002 5.28603ZM11.5716 10L10.0002 11.5716L8.42885 10L10.0002 8.42885L11.5716 10ZM5.28603 10L3.71488 11.5716L2.14341 10L3.71483 8.42885L5.28603 10ZM6.85744 11.5716L8.42885 13.1428L10.0002 14.714L11.5716 13.1428L13.143 11.5716L14.7142 13.1428L10.0002 17.8568L5.28603 13.1428L6.85744 11.5716ZM14.7142 10L16.2856 8.42885L17.857 10L16.2855 11.5716L14.7142 10Z" fill="#62C919"/>
</svg>
