<svg id="Capa_1" enable-background="new 0 0 512 512" height="512" viewBox="0 0 512 512" width="512" xmlns="http://www.w3.org/2000/svg"><g><path d="m340.495 356.659v47.43h-98.928v72.587h-191.943v-72.886c0-26.033 21.108-47.131 47.141-47.131z" fill="#80b4fb"/><g fill="#5490f9"><path d="m241.567 391.173h73.579v12.915h-73.579z"/><path d="m118.679 356.662c-26.033 0-47.131 21.108-47.131 47.131v72.887h-21.921v-72.887c0-26.022 21.098-47.131 47.131-47.131z"/><path d="m93.345 426.011v50.664h-15.453v-50.664c0-4.265 3.461-7.726 7.726-7.726 4.265-.001 7.727 3.461 7.727 7.726z"/></g><path d="m462.376 403.79v72.885h-191.943v-72.885c0-26.033 21.108-47.131 47.141-47.131h97.661c26.033 0 47.141 21.098 47.141 47.131z" fill="#dd636e"/><path d="m338.128 356.662c-26.033 0-47.131 21.098-47.131 47.131v72.885h-20.562v-72.885c0-26.033 21.108-47.131 47.141-47.131z" fill="#da4a54"/><path d="m392.959 312.235v44.344c0 14.662-11.889 26.551-26.551 26.551-14.67 0-26.559-11.889-26.559-26.551v-44.344z" fill="#c38959"/><path d="m375.079 381.683c-2.717.935-5.633 1.446-8.669 1.446-14.67 0-26.559-11.889-26.559-26.551v-44.344h17.338v44.344c0 11.633 7.479 21.517 17.89 25.105z" fill="#b17a4a"/><path d="m255.477 275.31c-19.145 0-34.665-15.52-34.665-34.665 0-2.635.294-5.201.851-7.668 4.497-19.916 33.814-16.65 33.814 3.768h221.858c0-20.418 29.317-23.684 33.814-3.768.557 2.467.851 5.033.851 7.668 0 19.145-15.52 34.665-34.665 34.665" fill="#b17a4a"/><path d="m339.849 312.235h53.109v40.853h-53.109z" fill="#b17a4a"/><path d="m255.475 126.973v131.21c0 44.648 36.203 80.851 80.851 80.851h60.157c44.656 0 80.851-36.203 80.851-80.851v-131.21" fill="#c38959"/><path d="m387.246 339.034h-50.92c-44.648 0-80.851-36.203-80.851-80.851v-131.212h50.92v131.212c0 44.648 36.203 80.851 80.851 80.851z" fill="#b17a4a"/><g fill="#454045"><path d="m309.496 212.788c-5.786 0-10.493 7.807-10.493 17.403s4.707 17.403 10.493 17.403c5.787 0 10.494-7.807 10.494-17.403s-4.707-17.403-10.494-17.403z"/><path d="m423.316 212.788c-5.787 0-10.494 7.807-10.494 17.403s4.707 17.403 10.494 17.403c5.786 0 10.493-7.807 10.493-17.403s-4.707-17.403-10.493-17.403z"/></g><path d="m366.407 288.134c-11.694 0-22.187-6.966-26.732-17.746-1.327-3.146.148-6.771 3.294-8.097 3.144-1.326 6.772.149 8.097 3.294 2.61 6.188 8.632 10.187 15.342 10.187 6.711 0 12.733-3.999 15.343-10.187 1.326-3.145 4.95-4.62 8.097-3.294 3.146 1.326 4.621 4.951 3.294 8.097-4.546 10.78-15.039 17.746-26.735 17.746z" fill="#985e33"/><g fill="#e490b7"><ellipse cx="431.749" cy="263.928" rx="18.158" ry="11.041"/><ellipse cx="301.063" cy="263.928" rx="18.158" ry="11.041"/></g><path d="m377.208 251.756h-21.605c-3.413 0-6.181-2.767-6.181-6.181s2.768-6.181 6.181-6.181h21.605c3.413 0 6.181 2.767 6.181 6.181 0 3.413-2.767 6.181-6.181 6.181z" fill="#b17a4a"/><path d="m454.698 43.696h-176.588c-12.501 0-22.635 10.134-22.635 22.635v60.641 17.005 51.014c12.678 0 22.956-10.278 22.956-22.956v-28.059h175.946v28.059c0 12.678 10.278 22.956 22.956 22.956v-51.014-17.005-60.64c0-12.501-10.134-22.636-22.635-22.636z" fill="#544f57"/><path d="m330.189 43.696c-12.504 0-22.636 10.131-22.636 22.636v77.647h-29.123v28.053c0 6.336-2.573 12.081-6.72 16.236-4.155 4.147-9.9 6.72-16.236 6.72v-128.656c0-12.504 10.131-22.636 22.636-22.636z" fill="#454045"/><path d="m429.583 392.706h-7.835c-7.791 0-14.106-6.316-14.106-14.106v-21.941h22.731c7.355 0 13.317 5.962 13.317 13.317v8.625c0 7.789-6.316 14.105-14.107 14.105z" fill="#ffcbbe"/><path d="m443.683 369.979v8.623c0 .577-.031 1.154-.103 1.71-.814-6.573-6.408-11.662-13.207-11.662h-22.736v-11.991h22.736c7.356-.001 13.31 5.964 13.31 13.32z" fill="#eaac9d"/><g fill="#da4a54"><path d="m313.134 428.071v48.604h-15.453v-48.604c0-4.265 3.462-7.726 7.726-7.726 4.265 0 7.727 3.461 7.727 7.726z"/><path d="m435.128 428.071v48.604h-15.453v-48.604c0-4.265 3.461-7.726 7.726-7.726 4.266 0 7.727 3.461 7.727 7.726z"/></g><path d="m274.713 219.646-18.193 38.536-237.072-38.448c-10.139-42.011-34.852-136.868 46.454-172.736 62.57-27.605 126.737 2.389 126.737 2.389s141.04-27.405 82.074 170.259z" fill="#f4dd45"/><path d="m87.779 193.751-38.491 82.983-29.839-57c-10.14-42.011-34.853-136.868 46.453-172.736 62.57-27.605 126.737 2.389 126.737 2.389-117.972 0-125.147 102.033-104.86 144.364z" fill="#eab14d"/><path d="m172.147 312.235v44.344c0 14.662-11.889 26.551-26.551 26.551-14.67 0-26.559-11.889-26.559-26.551v-44.344z" fill="#ffcbbe"/><path d="m154.268 381.683c-2.717.935-5.633 1.446-8.669 1.446-14.67 0-26.559-11.889-26.559-26.551v-44.344h17.338v44.344c0 11.633 7.479 21.517 17.89 25.105z" fill="#eaac9d"/><path d="m34.665 275.31c-19.145 0-34.665-15.52-34.665-34.665 0-2.635.294-5.201.851-7.668 4.497-19.916 33.814-16.65 33.814 3.768h221.858c0-20.418 29.317-23.684 33.814-3.768.557 2.467.851 5.033.851 7.668 0 19.145-15.52 34.665-34.665 34.665" fill="#eaac9d"/><path d="m119.038 312.235h53.109v40.853h-53.109z" fill="#eaac9d"/><path d="m256.519 201.637v56.545c0 44.648-36.195 80.851-80.851 80.851h-60.157c-44.648 0-80.851-36.203-80.851-80.851v-54.955c17.035-2.325 35.156-5.417 53.118-9.476 43.545-9.828 86.204-25.368 110.438-49.602 0 0 15.373 51.112 58.303 57.488z" fill="#ffcbbe"/><path d="m168.629 339.033h-53.118c-44.648 0-80.851-36.203-80.851-80.851v-54.955c17.035-2.325 35.156-5.417 53.118-9.476v64.431c.001 44.648 36.195 80.851 80.851 80.851z" fill="#eaac9d"/><g fill="#454045"><path d="m88.684 212.788c-5.786 0-10.493 7.807-10.493 17.403s4.707 17.403 10.493 17.403c5.787 0 10.494-7.807 10.494-17.403s-4.707-17.403-10.494-17.403z"/><path d="m202.504 212.788c-5.787 0-10.494 7.807-10.494 17.403s4.707 17.403 10.494 17.403c5.786 0 10.493-7.807 10.493-17.403s-4.707-17.403-10.493-17.403z"/></g><path d="m145.597 288.134c-11.695 0-22.188-6.966-26.733-17.746-1.327-3.146.148-6.771 3.294-8.097 3.144-1.326 6.771.149 8.097 3.294 2.61 6.188 8.632 10.187 15.343 10.187 6.71 0 12.732-3.999 15.342-10.187 1.326-3.145 4.95-4.62 8.097-3.294 3.146 1.326 4.621 4.951 3.294 8.097-4.547 10.78-15.04 17.746-26.734 17.746z" fill="#dd636e"/><g fill="#e490b7"><ellipse cx="210.937" cy="263.928" rx="18.158" ry="11.041"/><ellipse cx="80.251" cy="263.928" rx="18.158" ry="11.041"/></g><path d="m156.396 251.756h-21.605c-3.413 0-6.181-2.767-6.181-6.181s2.768-6.181 6.181-6.181h21.605c3.413 0 6.181 2.767 6.181 6.181 0 3.413-2.767 6.181-6.181 6.181z" fill="#eaac9d"/></g></svg>