<svg width="220" height="136" xmlns="http://www.w3.org/2000/svg"><defs><linearGradient x1="110.96%" y1="11.862%" x2="19.36%" y2="72.601%" id="a"><stop stop-color="#555B65" offset="0%"/><stop stop-color="#40424D" offset="100%"/></linearGradient></defs><g fill="none" fill-rule="evenodd"><rect fill="url(#a)" width="220" height="135.57" rx="8"/><path fill="#34363F" opacity=".503" d="M0 74h220v49H0z"/><path d="M18.895 24.769v23.077h-3V24.77h3zm6 0v23.077h-3V24.77h3zm28.5 0v23.077h-2V24.77h2zm6 0v23.077h-2V24.77h2zm5 0v23.077h-2V24.77h2zm6 0v23.077h-2V24.77h2zm-22.5 0v23.077h-3V24.77h3zm30 0v23.077h-3V24.77h3zm6 0v23.077h-3V24.77h3zm11 0v23.077h-3V24.77h3zm-65.5 0v23.077h-2V24.77h2zm5.5 0v23.077h-1V24.77h1zm6 0v23.077h-1V24.77h1zm47 0v23.077h-1V24.77h1z" fill="#40424D" fill-rule="nonzero"/></g></svg>