<?xml version="1.0" encoding="utf-8"?>
<!-- Generator: Adobe Illustrator 25.3.1, SVG Export Plug-In . SVG Version: 6.00 Build 0)  -->
<svg version="1.1" id="Layer_1" xmlns="http://www.w3.org/2000/svg" xmlns:xlink="http://www.w3.org/1999/xlink" x="0px" y="0px"
	 viewBox="0 0 835 164" style="enable-background:new 0 0 835 164;" xml:space="preserve">
<style type="text/css">
	.st0{fill:#4FC127;}
	.st1{fill:#1C1E22;}
</style>
<g>
	<path class="st0" d="M6.8,136.8V38.6h42.4c7.3,0,13.7,1.3,19.1,4S78,49,81.1,54c3,5,4.6,11,4.6,17.9c0,7-1.6,13-4.7,17.8
		c-3.1,4.8-7.5,8.5-13.1,10.9c-5.6,2.5-12.1,3.7-19.6,3.7H22.9V83.6h19.9c3.1,0,5.8-0.4,8-1.2c2.2-0.8,3.9-2.1,5.1-3.8
		c1.2-1.7,1.8-4,1.8-6.8c0-2.8-0.6-5.1-1.8-6.9c-1.2-1.8-2.9-3.1-5.1-3.9c-2.2-0.9-4.9-1.3-8-1.3h-9.4v76.9H6.8z M64.3,91.7
		l24.5,45.1h-29l-24-45.1H64.3z M141.3,139.5c-8.9,0-16.6-2.1-23.1-6.2c-6.5-4.1-11.5-10-15-17.7c-3.5-7.7-5.3-16.9-5.2-27.7
		c0-10.8,1.8-20,5.3-27.5c3.5-7.5,8.5-13.3,15-17.2c6.5-3.9,14.2-5.9,23.1-5.9c8.9,0,16.6,2,23.1,5.9c6.5,3.9,11.5,9.7,15,17.2
		c3.5,7.5,5.3,16.7,5.2,27.5c0,10.8-1.8,20.1-5.3,27.8c-3.5,7.7-8.5,13.6-15,17.7C157.9,137.4,150.2,139.5,141.3,139.5z
		 M141.3,117.8c4.6,0,8.4-2.4,11.3-7.2c3-4.8,4.4-12.4,4.4-22.7c0-6.7-0.7-12.3-2-16.5c-1.3-4.3-3.2-7.4-5.6-9.5
		c-2.4-2.1-5.1-3.1-8.1-3.1c-4.6,0-8.4,2.3-11.3,7c-2.9,4.7-4.4,12-4.5,22.1c0,6.9,0.6,12.5,2,17c1.3,4.4,3.2,7.7,5.6,9.8
		C135.5,116.7,138.2,117.8,141.3,117.8z M198.3,136.8V38.6h26.7v76.7h39.7v21.5H198.3z M276.8,136.8V38.6h26.7v76.7h39.7v21.5H276.8
		z"/>
	<path class="st1" d="M475.5,71c-0.4-1.7-1.1-3.2-2-4.5c-0.9-1.3-2-2.4-3.4-3.3c-1.3-0.9-2.8-1.6-4.6-2.1c-1.7-0.5-3.6-0.7-5.7-0.7
		c-4.5,0-8.3,1.1-11.5,3.2c-3.1,2.1-5.5,5.2-7.2,9.3c-1.6,4-2.4,8.9-2.4,14.6c0,5.8,0.8,10.7,2.3,14.8c1.6,4.1,3.9,7.2,7,9.4
		c3.1,2.2,7,3.3,11.6,3.3c4.1,0,7.4-0.6,10.1-1.8c2.7-1.2,4.7-2.9,6.1-5c1.3-2.2,2-4.7,2-7.7l4.6,0.5H460v-19h43.5v13.6
		c0,8.9-1.9,16.6-5.7,23c-3.8,6.3-9,11.2-15.6,14.6c-6.6,3.4-14.2,5-22.8,5c-9.6,0-17.9-2-25.2-6.1c-7.2-4.1-12.9-9.8-16.9-17.4
		c-4-7.5-6-16.4-6-26.8c0-8.1,1.2-15.3,3.7-21.6c2.5-6.3,5.9-11.6,10.4-15.9c4.4-4.3,9.5-7.6,15.3-9.8c5.8-2.2,12-3.4,18.6-3.4
		c5.8,0,11.2,0.8,16.2,2.5c5,1.6,9.4,4,13.3,7c3.9,3,7,6.6,9.3,10.7c2.4,4.1,3.8,8.6,4.3,13.6H475.5z M630.3,38.6h33.2l22.8,55.6
		h1.2l22.8-55.6h33.2v98.2h-26.1V80h-0.8l-21.9,56H679l-21.9-56.4h-0.8v57.1h-26.1V38.6z M757.4,136.8V38.6h70.8v21.5h-44.1v16.9
		h40.5v21.5h-40.5v16.9H828v21.5H757.4z"/>
	<path class="st0" d="M591.9,117.2l15.8,27.4h-40.5h-40.5l15.5-26.9l5.5-1.2c4.7-1,9.1-3.1,12.9-5.9l-12.5,21.6h19h18.9l-12.5-21.6
		C578.9,114.5,585.2,116.8,591.9,117.2z M530.4,73.8c-2.8,2.8-4.3,6.6-4.3,10.3c0,3.7,1.4,7.4,4.3,10.3c2.8,2.8,6.6,4.3,10.3,4.3
		c2.1,0,4.3-0.5,6.2-1.4L539,111c-6.3-0.4-12.5-3-17.3-7.8c-5.3-5.3-7.9-12.2-7.9-19.1c0-6.9,2.6-13.8,7.9-19.1l16.2-16.2l4.4,4.4
		l4.4,4.4l20.5,20.5l4.4,4.4l0.6,0.6l3.8,3.8l7.4,7.4c2.8,2.8,6.6,4.3,10.3,4.3c3.7,0,7.4-1.4,10.3-4.3c2.8-2.8,4.3-6.6,4.3-10.3
		c0-3.7-1.4-7.4-4.3-10.3l-7.4-7.4l-16.1,16.1l-8.8-8.8l16.1-16.1l4.4-4.4l4.4-4.4l16.2,16.2c5.3,5.3,7.9,12.2,7.9,19.1
		c0,6.9-2.6,13.8-7.9,19.1c-5.3,5.3-12.2,7.9-19.1,7.9c-6.9,0-13.8-2.6-19.1-7.9l-7.4-7.4l-7.4,7.4c-3.8,3.8-8.4,6.2-13.3,7.3
		l13-22.5l-21.6-21.6L530.4,73.8z M542.2,44.3l25-25l25,25l-8.8,8.8L567.2,37l-16.1,16.1L542.2,44.3z"/>
	<path class="st1" d="M530.4,73.8c-2.8,2.8-4.3,6.6-4.3,10.3c0,3.7,1.4,7.4,4.3,10.3c2.8,2.8,6.6,4.3,10.3,4.3
		c2.1,0,4.3-0.5,6.2-1.4L539,111c-6.3-0.4-12.5-3-17.3-7.8c-5.3-5.3-7.9-12.2-7.9-19.1c0-6.9,2.6-13.8,7.9-19.1l16.2-16.2l4.4,4.4
		l4.4,4.4l20.5,20.5l4.4,4.4l0.6,0.6l3.8,3.8l7.4,7.4c2.8,2.8,6.6,4.3,10.3,4.3c3.7,0,7.4-1.4,10.3-4.3c2.8-2.8,4.3-6.6,4.3-10.3
		c0-3.7-1.4-7.4-4.3-10.3l-7.4-7.4l-16.1,16.1l-8.8-8.8l16.1-16.1l4.4-4.4l4.4-4.4l16.2,16.2c5.3,5.3,7.9,12.2,7.9,19.1
		c0,6.9-2.6,13.8-7.9,19.1c-5.3,5.3-12.2,7.9-19.1,7.9c-6.9,0-13.8-2.6-19.1-7.9l-7.4-7.4l-7.4,7.4c-3.8,3.8-8.4,6.2-13.3,7.3
		l13-22.5l-21.6-21.6L530.4,73.8z"/>
	
		<rect x="366.2" y="115.4" transform="matrix(0.7071 -0.7071 0.7071 0.7071 21.8624 301.9543)" class="st0" width="18.4" height="18.4"/>
</g>
</svg>
