<?xml version="1.0" encoding="utf-8"?>
<!-- Generator: Adobe Illustrator 27.0.0, SVG Export Plug-In . SVG Version: 6.00 Build 0)  -->
<svg version="1.1" id="Layer_1" xmlns="http://www.w3.org/2000/svg" xmlns:xlink="http://www.w3.org/1999/xlink" x="0px" y="0px"
	 viewBox="0 0 138.1 164" style="enable-background:new 0 0 138.1 164;" xml:space="preserve">
<style type="text/css">
	.st0{fill:#4FC127;}
	.st1{fill:#FFFFFF;}
</style>
<path class="st0" d="M94.2,115.5L110,143H69.6H29.1L44.6,116l5.5-1.2c4.7-1,9.1-3.1,12.9-5.9l-12.5,21.6h19h18.9L76,108.9
	C81.3,112.9,87.6,115.2,94.2,115.5z M32.8,72.1c-2.8,2.8-4.3,6.6-4.3,10.3c0,3.7,1.4,7.4,4.3,10.3c2.8,2.8,6.6,4.3,10.3,4.3
	c2.1,0,4.3-0.5,6.2-1.4l-7.9,13.8c-6.3-0.4-12.5-3-17.3-7.8c-5.3-5.3-7.9-12.2-7.9-19.1c0-6.9,2.6-13.8,7.9-19.1l16.2-16.2l4.4,4.4
	l4.4,4.4l20.5,20.5l4.4,4.4l0.6,0.6l3.8,3.8l7.4,7.4c2.8,2.8,6.6,4.3,10.3,4.3c3.7,0,7.4-1.4,10.3-4.3c2.8-2.8,4.3-6.6,4.3-10.3
	c0-3.7-1.4-7.4-4.3-10.3l-7.4-7.4L82.8,80.8L74,72l16.1-16.1l4.4-4.4l4.4-4.4l16.2,16.2c5.3,5.3,7.9,12.2,7.9,19.1
	c0,6.9-2.6,13.8-7.9,19.1c-5.3,5.3-12.2,7.9-19.1,7.9c-6.9,0-13.8-2.6-19.1-7.9L69.6,94l-7.4,7.4c-3.8,3.8-8.4,6.2-13.3,7.3l13-22.5
	L40.2,64.7L32.8,72.1z M44.6,42.7l25-25l25,25l-8.8,8.8L69.6,35.3L53.4,51.5L44.6,42.7z"/>
<path class="st1" d="M32.8,72.1c-2.8,2.8-4.3,6.6-4.3,10.3c0,3.7,1.4,7.4,4.3,10.3c2.8,2.8,6.6,4.3,10.3,4.3c2.1,0,4.3-0.5,6.2-1.4
	l-7.9,13.8c-6.3-0.4-12.5-3-17.3-7.8c-5.3-5.3-7.9-12.2-7.9-19.1c0-6.9,2.6-13.8,7.9-19.1l16.2-16.2l4.4,4.4l4.4,4.4l20.5,20.5
	l4.4,4.4l0.6,0.6l3.8,3.8l7.4,7.4c2.8,2.8,6.6,4.3,10.3,4.3c3.7,0,7.4-1.4,10.3-4.3c2.8-2.8,4.3-6.6,4.3-10.3
	c0-3.7-1.4-7.4-4.3-10.3l-7.4-7.4L82.8,80.8L74,72l16.1-16.1l4.4-4.4l4.4-4.4l16.2,16.2c5.3,5.3,7.9,12.2,7.9,19.1
	c0,6.9-2.6,13.8-7.9,19.1c-5.3,5.3-12.2,7.9-19.1,7.9c-6.9,0-13.8-2.6-19.1-7.9L69.6,94l-7.4,7.4c-3.8,3.8-8.4,6.2-13.3,7.3l13-22.5
	L40.2,64.7L32.8,72.1z"/>
</svg>
