<svg width="170" height="39" viewBox="0 0 170 39" fill="none" xmlns="http://www.w3.org/2000/svg">
<mask id="mask0_2_10072" style="mask-type:luminance" maskUnits="userSpaceOnUse" x="0" y="0" width="35" height="34">
<path d="M17.2043 0C26.709 0 34.4086 7.69964 34.4086 17.2043C34.4086 24.6783 29.6422 31.0242 23.0002 33.4074C23.3245 32.4767 23.9027 31.4754 24.086 30.4601C28.9371 28.0487 31.9408 24.2271 31.9408 17.2607C31.9408 10.2944 25.327 2.52424 17.2043 2.52424C9.06752 2.52424 2.48193 10.2944 2.48193 17.2466C2.48193 19.517 2.79218 21.449 3.38445 23.0989C3.41266 23.1694 3.84982 23.0848 3.87802 23.1694C3.90622 23.254 3.52547 23.4938 3.55368 23.5784C4.80875 26.7372 7.12146 28.8525 10.238 30.4037C10.4213 31.419 11.0841 32.4626 11.4084 33.3933C4.75234 31.0242 0 24.6642 0 17.1902C0 7.69963 7.69963 0 17.2043 0Z" fill="white"/>
</mask>
<g mask="url(#mask0_2_10072)">
<path d="M34.3945 0H0V33.4074H34.3945V0Z" fill="url(#paint0_linear_2_10072)"/>
</g>
<mask id="mask1_2_10072" style="mask-type:luminance" maskUnits="userSpaceOnUse" x="6" y="8" width="22" height="8">
<path d="M7.67145 10.0688C6.93815 11.1969 6.59971 12.7481 6.96636 14.4827C8.54577 13.2981 10.097 12.8892 12.6494 13.6789L17.1902 15.1032L21.731 13.6789C24.2835 12.8751 25.8347 13.2981 27.4141 14.4827C27.7808 12.734 27.4423 11.1969 26.709 10.0688C25.9193 8.85602 24.213 7.9958 21.858 9.27907L17.1902 11.8315L12.5225 9.27907C10.1816 7.9958 8.46116 8.87012 7.67145 10.0688Z" fill="white"/>
</mask>
<g mask="url(#mask1_2_10072)">
<path d="M27.7808 7.99585H6.59973V15.1173H27.7808V7.99585Z" fill="url(#paint1_linear_2_10072)"/>
</g>
<mask id="mask2_2_10072" style="mask-type:luminance" maskUnits="userSpaceOnUse" x="6" y="10" width="22" height="6">
<path d="M6.86763 12.3815C6.79712 13.0443 6.82533 13.7493 6.98045 14.4967C8.55986 13.3122 10.1111 12.9032 12.6635 13.6929L17.2043 15.1172L21.7451 13.6929C24.2976 12.8891 25.8488 13.3122 27.4282 14.4967C27.5833 13.7493 27.6115 13.0443 27.541 12.3815C27.1744 10.6187 24.8758 10.3085 23.1553 10.9854L17.1902 13.3545L11.2251 10.9854C9.53289 10.3085 7.23428 10.6187 6.86763 12.3815Z" fill="white"/>
</mask>
<g mask="url(#mask2_2_10072)">
<path d="M27.6115 10.3086H6.78302V15.1173H27.6115V10.3086Z" fill="url(#paint2_linear_2_10072)"/>
</g>
<path fill-rule="evenodd" clip-rule="evenodd" d="M17.2043 15.1314L21.7451 13.7071C24.2975 12.9033 25.8487 13.3263 27.4282 14.5109C27.5833 13.7635 27.6115 13.0584 27.541 12.3956C27.1743 10.6329 24.8757 10.3226 23.1553 10.9995L17.1902 13.3687V15.1314H17.2043Z" fill="#1A1A1A"/>
<mask id="mask3_2_10072" style="mask-type:luminance" maskUnits="userSpaceOnUse" x="6" y="14" width="23" height="25">
<path d="M16.6967 20.1797L15.0326 20.8707C14.948 19.4323 15.6249 17.9375 17.1902 16.9363C18.7555 17.9375 19.4324 19.4323 19.3478 20.8707L17.6838 20.1797L17.6415 20.0387L17.1902 18.5862L16.739 20.0387L16.6967 20.1797ZM11.4085 24.8475C11.4226 27.8935 11.8456 32.7727 13.7353 35.2547V25.1154C13.7353 24.4808 14.257 23.959 14.8916 23.959C15.5262 23.959 16.048 24.4808 16.048 25.1154V33.4355C16.048 36.2982 16.3582 37.3558 17.2043 38.8647C18.0505 37.3558 18.3607 36.2982 18.3607 33.4355V25.1154C18.3607 24.4808 18.8825 23.959 19.5171 23.959C20.1516 23.959 20.6734 24.4808 20.6734 25.1154V35.2547C22.5631 32.7586 22.9861 27.8935 23.0002 24.8475C22.972 23.818 22.9015 23.0001 22.6477 21.9989L23.6348 23.3527L28.0205 19.9964C27.7949 17.9516 26.8077 15.6812 24.904 14.3979L25.736 18.0503H21.4913L21.7452 19.7849C20.6029 17.7119 18.6427 16.4145 17.2043 15.8786C15.5403 16.4991 13.7917 17.726 12.6635 19.7849L12.9174 18.0503H8.95473L9.5047 14.3979C7.61505 15.6812 6.62792 17.9516 6.38818 19.9964L10.7739 23.3527L11.761 21.9989C11.5072 23.0001 11.4508 23.8321 11.4085 24.8475Z" fill="white"/>
</mask>
<g mask="url(#mask3_2_10072)">
<path d="M28.0064 14.4121H6.38818V38.8789H28.0064V14.4121Z" fill="url(#paint3_linear_2_10072)"/>
</g>
<mask id="mask4_2_10072" style="mask-type:luminance" maskUnits="userSpaceOnUse" x="15" y="16" width="5" height="5">
<path d="M19.3619 20.8708C19.5875 19.0939 18.9388 17.3876 17.2043 16.3018C15.4557 17.3876 14.8211 19.0798 15.0467 20.8708C14.9621 19.4324 15.639 17.9376 17.2043 16.9363C18.7696 17.9376 19.4465 19.4183 19.3619 20.8708Z" fill="white"/>
</mask>
<g mask="url(#mask4_2_10072)">
<path d="M19.5875 16.3018H14.821V20.8708H19.5875V16.3018Z" fill="url(#paint4_linear_2_10072)"/>
</g>
<mask id="mask5_2_10072" style="mask-type:luminance" maskUnits="userSpaceOnUse" x="6" y="14" width="6" height="10">
<path d="M9.5047 14.4121C7.61505 15.6954 6.62792 17.9658 6.38818 20.0106L10.7739 23.3668C10.9431 21.59 11.6341 19.7285 11.6341 19.7285L7.67146 19.1221C7.77017 16.3018 9.5047 14.4121 9.5047 14.4121Z" fill="white"/>
</mask>
<g mask="url(#mask5_2_10072)">
<path d="M11.6341 14.4121H6.38818V23.3527H11.6341V14.4121Z" fill="url(#paint5_linear_2_10072)"/>
</g>
<path fill-rule="evenodd" clip-rule="evenodd" d="M11.2392 10.9855L17.2043 13.3546V13.1572L11.3097 10.8163C9.50467 10.0971 7.14965 10.4073 6.86761 12.3675C7.23426 10.6047 9.53287 10.3086 11.2392 10.9855Z" fill="white"/>
<path fill-rule="evenodd" clip-rule="evenodd" d="M23.1553 10.9855L17.1902 13.3546V13.1572L23.0848 10.8163C24.8898 10.0971 27.2448 10.4073 27.5269 12.3675C27.1602 10.6047 24.8616 10.3086 23.1553 10.9855Z" fill="white"/>
<mask id="mask6_2_10072" style="mask-type:luminance" maskUnits="userSpaceOnUse" x="7" y="14" width="3" height="6">
<path d="M7.67145 19.108L8.94062 18.0645L9.49059 14.4121C9.50469 14.4121 7.77016 16.3018 7.67145 19.108Z" fill="white"/>
</mask>
<g mask="url(#mask6_2_10072)">
<path d="M9.50469 14.4121H7.67145V19.108H9.50469V14.4121Z" fill="url(#paint6_linear_2_10072)"/>
</g>
<mask id="mask7_2_10072" style="mask-type:luminance" maskUnits="userSpaceOnUse" x="11" y="24" width="12" height="15">
<path d="M13.7353 30.7281C12.0994 28.5846 11.5636 26.5963 11.4508 24.1284C11.4367 24.354 11.4225 24.5938 11.4225 24.8476C11.4366 27.8936 11.8597 32.7729 13.7494 35.2548V30.7281H13.7353ZM16.048 33.4498C16.048 36.3125 16.3582 37.3701 17.2043 38.879C18.0504 37.3701 18.3607 36.3125 18.3607 33.4498V28.909C18.3607 31.7716 18.0504 32.8293 17.2043 34.3382C16.3582 32.8293 16.048 31.7716 16.048 28.909V33.4498ZM20.6593 30.7281V35.2689C22.5489 32.7729 22.972 27.9077 22.9861 24.8617C22.972 24.6079 22.972 24.3681 22.9579 24.1425C22.831 26.5962 22.2951 28.5846 20.6593 30.7281Z" fill="white"/>
</mask>
<g mask="url(#mask7_2_10072)">
<path d="M22.972 24.1284H11.4084V38.8649H22.972V24.1284Z" fill="url(#paint7_linear_2_10072)"/>
</g>
<path fill-rule="evenodd" clip-rule="evenodd" d="M17.2043 34.3382V38.879C18.0504 37.3701 18.3606 36.3124 18.3606 33.4497V28.9089C18.3606 31.7716 18.0504 32.8293 17.2043 34.3382Z" fill="#1A1A1A"/>
<mask id="mask8_2_10072" style="mask-type:luminance" maskUnits="userSpaceOnUse" x="18" y="22" width="3" height="4">
<path d="M19.5029 23.9733C20.1375 23.9733 20.6593 24.4951 20.6593 25.1296V23.7477C20.6593 23.1131 20.1375 22.5913 19.5029 22.5913C18.8683 22.5913 18.3466 23.1131 18.3466 23.7477V25.1156C18.3607 24.481 18.8683 23.9733 19.5029 23.9733Z" fill="white"/>
</mask>
<g mask="url(#mask8_2_10072)">
<path d="M20.6734 22.5913H18.3607V25.1156H20.6734V22.5913Z" fill="url(#paint8_linear_2_10072)"/>
</g>
<mask id="mask9_2_10072" style="mask-type:luminance" maskUnits="userSpaceOnUse" x="13" y="22" width="4" height="4">
<path d="M16.0479 25.1296V23.7477C16.0479 23.1131 15.5262 22.5913 14.8916 22.5913C14.257 22.5913 13.7352 23.1131 13.7352 23.7477V25.1156C13.7352 24.481 14.257 23.9592 14.8916 23.9592C15.5262 23.9733 16.0479 24.481 16.0479 25.1296Z" fill="white"/>
</mask>
<g mask="url(#mask9_2_10072)">
<path d="M16.0479 22.5913H13.7352V25.1156H16.0479V22.5913Z" fill="url(#paint9_linear_2_10072)"/>
</g>
<path fill-rule="evenodd" clip-rule="evenodd" d="M11.6341 19.7146L12.9032 18.0505H8.94062L7.67145 19.1082L11.6341 19.7146Z" fill="white"/>
<path fill-rule="evenodd" clip-rule="evenodd" d="M12.9032 18.0505L11.5495 19.5594L7.67145 19.1082L11.6341 19.7146L12.9032 18.0505Z" fill="white"/>
<path fill-rule="evenodd" clip-rule="evenodd" d="M11.7751 21.9991C11.9161 21.1671 12.4238 20.2081 12.6494 19.7851L12.9032 18.0505L11.6341 19.7005C11.6341 19.7005 11.5213 19.9966 11.3802 20.4761C11.1687 21.1812 10.8726 22.2811 10.7739 23.3387L11.7751 21.9991Z" fill="black"/>
<path fill-rule="evenodd" clip-rule="evenodd" d="M16.0479 23.7475V23.6488C16.0479 23.0142 15.5262 22.4924 14.8916 22.4924C14.257 22.4924 13.7352 23.0142 13.7352 23.6488V23.7475C13.7352 23.1129 14.257 22.5911 14.8916 22.5911C15.5262 22.5911 16.0479 23.1129 16.0479 23.7475Z" fill="white"/>
<path fill-rule="evenodd" clip-rule="evenodd" d="M20.6593 23.7475V23.6488C20.6593 23.0142 20.1375 22.4924 19.5029 22.4924C18.8683 22.4924 18.3466 23.0142 18.3466 23.6488V23.7475C18.3466 23.1129 18.8683 22.5911 19.5029 22.5911C20.1375 22.5911 20.6593 23.1129 20.6593 23.7475Z" fill="white"/>
<mask id="mask10_2_10072" style="mask-type:luminance" maskUnits="userSpaceOnUse" x="22" y="14" width="7" height="10">
<path d="M24.9039 14.4121C26.7936 15.6954 27.7807 17.9658 28.0204 20.0106L23.6348 23.3668C23.4655 21.59 22.7745 19.7285 22.7745 19.7285L26.7372 19.1221C26.6244 16.3018 24.9039 14.4121 24.9039 14.4121Z" fill="white"/>
</mask>
<g mask="url(#mask10_2_10072)">
<path d="M28.0063 14.4121H22.7604V23.3527H28.0063V14.4121Z" fill="url(#paint10_linear_2_10072)"/>
</g>
<mask id="mask11_2_10072" style="mask-type:luminance" maskUnits="userSpaceOnUse" x="24" y="14" width="3" height="6">
<path d="M26.7231 19.108L25.4539 18.0645L24.9039 14.4121C24.9039 14.4121 26.6244 16.3018 26.7231 19.108Z" fill="white"/>
</mask>
<g mask="url(#mask11_2_10072)">
<path d="M26.7372 14.4121H24.9039V19.108H26.7372V14.4121Z" fill="url(#paint11_linear_2_10072)"/>
</g>
<path fill-rule="evenodd" clip-rule="evenodd" d="M22.7604 19.7146L21.4913 18.0505H25.4539L26.7231 19.1082L22.7604 19.7146Z" fill="white"/>
<path fill-rule="evenodd" clip-rule="evenodd" d="M21.4913 18.0505L22.8451 19.5594L26.7231 19.1082L22.7604 19.7146L21.4913 18.0505Z" fill="white"/>
<path fill-rule="evenodd" clip-rule="evenodd" d="M22.6194 21.9991C22.4784 21.1671 21.9707 20.2081 21.7451 19.7851L21.4913 18.0505L22.7604 19.7005C22.7604 19.7005 22.8733 19.9966 23.0143 20.4761C23.2258 21.1812 23.5219 22.2811 23.6207 23.3387L22.6194 21.9991Z" fill="black"/>
<path fill-rule="evenodd" clip-rule="evenodd" d="M2.73576 23.1413C1.97426 21.3081 1.56531 19.2915 1.56531 17.1903C1.56531 8.55996 8.57395 1.55131 17.2043 1.55131C21.4772 1.55131 25.3411 3.25764 28.1615 6.03572C25.3834 3.10252 21.3221 1.32568 17.2043 1.32568C8.44703 1.32568 1.33968 8.43304 1.33968 17.1903C1.32557 19.221 1.77683 21.294 2.73576 23.1413Z" fill="#FEF163"/>
<path fill-rule="evenodd" clip-rule="evenodd" d="M28.7397 6.64209C31.2921 9.42016 32.8433 13.129 32.8433 17.2044C32.8433 23.0708 29.614 28.1757 24.8475 30.855L22.9861 33.4075L24.918 31.0666C29.9101 28.2885 33.0548 23.0003 33.0548 17.2044C33.0689 13.2136 31.2357 8.99711 28.7397 6.64209Z" fill="#FEF163"/>
<mask id="mask12_2_10072" style="mask-type:luminance" maskUnits="userSpaceOnUse" x="1" y="1" width="32" height="31">
<path d="M23.522 31.5037C23.6489 30.9114 23.7617 30.3191 23.8604 29.7128C23.8604 29.7128 24.1565 27.3859 24.1001 26.5257L25.0027 29.0359C28.8525 26.4975 31.3767 22.14 31.3767 17.1903C31.3767 9.36372 25.0309 3.01787 17.2043 3.01787C9.37775 3.01787 3.0319 9.36372 3.0319 17.1903C3.0319 22.14 5.57024 26.4975 9.40596 29.0359L10.3085 26.5257C10.2521 27.3859 10.5482 29.7128 10.5482 29.7128C10.6328 30.3191 10.7456 30.9114 10.8867 31.5037C7.4458 29.9807 4.65362 27.2449 3.06011 23.8464L3.68059 23.2118L2.14348 23.6912L2.74986 23.1413C1.98836 21.308 1.57941 19.2915 1.57941 17.1903C1.57941 8.55991 8.58805 1.55127 17.2184 1.55127C21.4913 1.55127 25.3552 3.2576 28.1756 6.03567L28.8102 5.78184L28.4717 6.31771L27.9923 7.07921L28.7538 6.62795C31.3062 9.40603 32.8574 13.1148 32.8574 17.1903C32.8433 23.5784 29.0076 29.0641 23.522 31.5037Z" fill="white"/>
</mask>
<g mask="url(#mask12_2_10072)">
<path d="M32.8433 1.55127H1.56531V31.4896H32.8433V1.55127Z" fill="url(#paint12_linear_2_10072)"/>
</g>
<mask id="mask13_2_10072" style="mask-type:luminance" maskUnits="userSpaceOnUse" x="9" y="26" width="3" height="8">
<path d="M11.4084 33.3933L9.547 30.8408L10.2944 26.5256C10.238 27.3012 10.4354 29.1909 10.6187 30.2344C10.8021 31.3203 11.0559 32.4061 11.4084 33.3933Z" fill="white"/>
</mask>
<g mask="url(#mask13_2_10072)">
<path d="M11.4084 26.5256H9.547V33.3933H11.4084V26.5256Z" fill="url(#paint13_linear_2_10072)"/>
</g>
<mask id="mask14_2_10072" style="mask-type:luminance" maskUnits="userSpaceOnUse" x="22" y="26" width="3" height="8">
<path d="M22.9861 33.3933L24.8475 30.8408L24.1001 26.5256C24.1565 27.3012 23.9591 29.1909 23.7758 30.2344C23.5925 31.3203 23.3386 32.4061 22.9861 33.3933Z" fill="white"/>
</mask>
<g mask="url(#mask14_2_10072)">
<path d="M24.8475 26.5256H22.9861V33.3933H24.8475V26.5256Z" fill="url(#paint14_linear_2_10072)"/>
</g>
<path fill-rule="evenodd" clip-rule="evenodd" d="M11.4084 24.8476C11.4225 27.8936 11.8456 32.7728 13.7353 35.2548V30.7139C12.0994 28.5705 11.5636 26.5821 11.4508 24.1143C11.4367 24.3681 11.4225 24.6078 11.4084 24.8476Z" fill="black"/>
<path fill-rule="evenodd" clip-rule="evenodd" d="M22.9861 24.8476C22.972 27.8936 22.549 32.7728 20.6593 35.2548V30.7139C22.2951 28.5705 22.831 26.5821 22.9438 24.1143C22.972 24.3681 22.972 24.6078 22.9861 24.8476Z" fill="black"/>
<path fill-rule="evenodd" clip-rule="evenodd" d="M26.7231 19.108C26.6244 16.3018 24.8898 14.4121 24.8898 14.4121C24.8898 14.4121 26.8782 16.2031 26.7231 19.108Z" fill="white"/>
<path fill-rule="evenodd" clip-rule="evenodd" d="M10.7879 23.3528L10.802 23.2823V23.2682V23.2541V23.1836L10.8162 23.1131L10.8303 23.0426V23.0285L10.8444 22.9721V22.958V22.9439L10.8585 22.8875V22.8734L10.8726 22.8169V22.8028V22.7746L10.8867 22.7182V22.7041V22.69L10.9008 22.6477L10.9149 22.5913L10.929 22.549V22.5349V22.5208L10.9431 22.4785V22.4362V22.4221L10.9572 22.3798L10.9713 22.3375V22.3093V22.2952L10.9854 22.2529V22.2388V22.2106L10.9995 22.1683L11.0136 22.0978V22.0837L11.0277 22.0413L11.0418 21.999V21.9849L11.0559 21.9426L11.07 21.9003V21.8721V21.858L11.0841 21.8157V21.8016V21.7734L11.0982 21.7311L11.1123 21.6888L11.1264 21.6606V21.6465L11.1405 21.6042V21.5901L11.1546 21.5619L11.1687 21.5196L11.1828 21.4773L11.1969 21.4491V21.435L11.211 21.3927V21.3786L11.2251 21.3504L11.2392 21.308L11.2533 21.2657L11.2674 21.2375V21.2234L11.2815 21.1811V21.167L11.2956 21.1388L11.3097 21.0965L11.3238 21.0542L11.3379 21.026V21.0119L11.352 20.9696V20.9555V20.9273V20.9132L11.3661 20.8568L11.3802 20.8286V20.8145L11.3943 20.7722V20.7581V20.7299L11.4084 20.6876L11.4225 20.6594L11.4366 20.6312V20.6171L11.4507 20.5889V20.5747V20.5465V20.5183V20.5042V20.4901V20.4619V20.4337V20.4196V20.4055V20.3914V20.3773V20.3632V20.3491V20.335V20.3209V20.3068V20.2927V20.2786V20.2645V20.2504V20.2363V20.2222V20.2081V20.194V20.1799V20.1658V20.1517V20.1376V20.1235V20.1094V20.0953V20.0812V20.0671V20.053V20.0389V20.0248V20.0107V19.9966V19.9825V19.9684V19.9543V19.9402V19.9261V19.912V19.8979V19.8838V19.8697V19.8555V19.8414V19.8273C11.6341 19.7145 10.6751 21.1247 10.7879 23.3528Z" fill="white"/>
<path fill-rule="evenodd" clip-rule="evenodd" d="M23.6207 23.3528L23.6066 23.2823V23.2682V23.2541L23.5925 23.1836L23.5784 23.1131L23.5643 23.0426V23.0285L23.5502 22.9721V22.958V22.9439L23.5361 22.8874V22.8733L23.522 22.8169V22.8028V22.7746L23.5079 22.7182V22.7041V22.69L23.4938 22.6477L23.4797 22.5913L23.4656 22.549V22.5349V22.5208L23.4515 22.4785V22.4362V22.4221L23.4374 22.3798L23.4233 22.3375V22.3093V22.2952L23.4092 22.2529V22.2388V22.2106L23.3951 22.1682L23.381 22.0977V22.0836L23.3669 22.0413L23.3527 21.999V21.9849L23.3386 21.9426L23.3245 21.9003V21.8721V21.858L23.3104 21.8157V21.8016V21.7734L23.2963 21.7311L23.2822 21.6888L23.2681 21.6606V21.6465L23.254 21.6042V21.5901V21.5619L23.2399 21.5196L23.2258 21.4773L23.2117 21.4491V21.435L23.1976 21.3926V21.3785V21.3503L23.2117 21.2093L23.1976 21.167L23.1835 21.1388V21.1247L23.1694 21.0824V21.0683V21.0401L23.1553 20.9978L23.1412 20.9555L23.1271 20.9273V20.9132L23.113 20.8709V20.8568L23.0989 20.8286V20.8145L23.0848 20.7581L23.0707 20.7299V20.7158L23.0566 20.6734V20.6593V20.6311L23.0425 20.5888L23.0284 20.5606V20.5324V20.5183L23.0143 20.4901V20.476V20.4478V20.4196V20.4055V20.3914V20.3632V20.335V20.3209V20.3068V20.2927V20.2786V20.2645V20.2504V20.2363V20.2222V20.2081V20.194V20.1799V20.1658V20.1517V20.1376V20.1235V20.1094V20.0953V20.0812V20.0671V20.053V20.0389V20.0248V20.0107V19.9966V19.9825V19.9684V19.9543V19.9401V19.926V19.9119V19.8978V19.8837V19.8696V19.8555V19.8414V19.8273V19.8132V19.7991V19.785V19.7709V19.7568V19.7427V19.7286C22.7605 19.7145 23.7194 21.1247 23.6207 23.3528Z" fill="white"/>
<path fill-rule="evenodd" clip-rule="evenodd" d="M28.782 5.7959L28.7397 6.64201L27.9641 7.09327L28.782 5.7959Z" fill="#F9D92E"/>
<path fill-rule="evenodd" clip-rule="evenodd" d="M2.1153 23.7053L3.04602 23.8463L3.6524 23.2258L2.1153 23.7053Z" fill="#F9D92E"/>
<path d="M38.8789 23.6428L39.8805 21.9052L46.1241 10.1502L46.7888 8.83366C46.9811 8.44732 47.252 7.89256 47.5981 7.16748C49.0135 7.18396 50.048 7.19126 50.6998 7.19126C51.835 7.19126 52.8842 7.18396 53.8491 7.16748L55.6105 12.2009L59.1938 21.8814L59.8933 23.6428C58.4999 23.6263 57.6539 23.619 57.3555 23.619C56.678 23.619 55.6838 23.6263 54.3709 23.6428C54.0176 22.3153 53.5067 20.7535 52.8403 18.9591H46.765C46.0655 20.3763 45.3423 21.9363 44.5953 23.6428C43.0975 23.6263 42.1784 23.619 41.8414 23.619C41.2299 23.619 40.243 23.6263 38.8807 23.6428H38.8789ZM48.2243 15.4472H51.9724C51.0404 12.611 50.5295 11.0492 50.4416 10.7599C49.9106 11.9409 49.4602 12.9077 49.0904 13.6639L48.2224 15.4472H48.2243Z" fill="white"/>
<path d="M61.2079 23.6428L61.4478 20.5521L61.759 14.5171L61.8908 10.2454C61.8982 9.7858 61.9037 9.32809 61.9037 8.86851C61.9037 8.52245 61.9 7.95483 61.8908 7.16751C62.9528 7.19131 63.8061 7.20412 64.4506 7.20412C65.0951 7.20412 65.919 7.1858 66.9975 7.14918C68.0759 7.11256 68.9896 7.09424 69.7385 7.09424C70.8169 7.09424 71.6153 7.16201 72.1353 7.29933C72.6534 7.43666 73.1222 7.65089 73.5415 7.94568C73.9608 8.24047 74.3068 8.58285 74.5797 8.97834C74.8525 9.37201 75.0594 9.82062 75.1949 10.3241C75.3322 10.8277 75.3999 11.3403 75.3999 11.8622C75.3999 12.9406 75.1381 13.9257 74.6144 14.8193C74.0908 15.7128 73.3547 16.3811 72.4063 16.8224C71.456 17.2655 70.3903 17.487 69.2075 17.487C68.7736 17.487 68.27 17.4394 67.6988 17.3423C67.6347 16.9725 67.5138 16.4214 67.3362 15.689C67.1586 14.9566 67.014 14.4146 66.9023 14.0594C67.2556 14.1308 67.6273 14.1674 68.0119 14.1674C68.8248 14.1674 69.4309 13.9733 69.8282 13.5815C70.2255 13.1915 70.4251 12.7136 70.4251 12.1515C70.4251 11.8787 70.3812 11.6351 70.2933 11.4209C70.2054 11.2085 70.0644 11.0327 69.8703 10.8954C69.6781 10.7581 69.4639 10.6702 69.2313 10.6299C68.997 10.5896 68.7315 10.5695 68.4348 10.5695C68.1382 10.5695 67.8434 10.5768 67.5303 10.5933L66.5159 10.6665C66.4116 12.2192 66.3328 13.9458 66.2779 15.8446C66.1735 19.3052 66.1223 21.3797 66.1223 22.0718V23.641L63.7182 23.6172C63.3794 23.6172 62.5427 23.6245 61.2061 23.641L61.2079 23.6428Z" fill="white"/>
<path d="M76.9216 23.6428C77.123 21.5664 77.2713 19.8288 77.3628 18.4281C77.4562 17.0274 77.5478 15.1671 77.6411 12.8454C77.7345 10.5237 77.7803 8.98567 77.7803 8.22947L77.7675 7.16748C79.6662 7.18396 81.9623 7.19126 84.6575 7.19126C87.144 7.19126 89.3357 7.18396 91.2345 7.16748L91.2106 7.56479C91.2033 7.66184 91.1832 8.00972 91.1502 8.61029L91.077 9.92131C91.0605 10.2033 91.0532 10.4871 91.0532 10.7764C89.5005 10.7123 88.1968 10.6793 87.1422 10.6793C85.9831 10.6793 85.2013 10.6812 84.7949 10.6848C84.3884 10.6885 83.7548 10.7068 82.8943 10.7379L82.7478 13.5137C83.6981 13.5375 84.804 13.5503 86.0674 13.5503C86.5178 13.5503 87.7171 13.5229 89.6653 13.4661C89.5847 14.4951 89.5078 15.7237 89.4364 17.1482C88.0449 17.1318 86.9755 17.1244 86.2285 17.1244C85.1189 17.1244 83.8757 17.1519 82.5006 17.2086L82.3578 20.1419H83.7457C84.1558 20.1419 85.0036 20.1291 86.2908 20.1053L88.7882 20.0449C89.1581 20.0375 89.777 20.0046 90.6449 19.9479C90.5478 21.138 90.4673 22.3702 90.4032 23.641C88.4404 23.6245 86.2871 23.6171 83.9453 23.6171L78.6354 23.6281L76.9216 23.641V23.6428Z" fill="white"/>
<path d="M93.1075 29.1358C93.309 27.237 93.4554 20.195 93.5433 18.9957C93.7136 16.8077 93.8399 14.6325 93.9242 12.4719C94.0084 10.3113 94.0523 8.54256 94.0523 7.16748C95.1454 7.18396 96.114 7.19126 96.9581 7.19126C97.5294 7.19126 98.3497 7.18396 99.419 7.16748L99.1278 11.5362L98.7635 18.3677L98.7159 20.0449C100.1 20.0687 101.001 20.0815 101.42 20.0815C103.537 20.0815 105.139 20.054 106.227 19.9972L105.961 23.6428C103.845 23.6263 101.829 23.619 99.9152 23.619C97.3243 23.619 95.0557 29.1193 93.1075 29.1358Z" fill="#4FC127"/>
<path d="M108.438 7.16748C109.693 7.18396 110.577 7.19126 111.092 7.19126C111.734 7.19126 112.591 7.18396 113.66 7.16748L113.302 12.2979C113.23 13.2629 113.175 14.1692 113.14 15.0133C113.104 15.8574 113.087 16.4415 113.087 16.7637C113.087 17.3753 113.131 17.8861 113.219 18.2963C113.307 18.7064 113.468 19.0543 113.701 19.3399C113.933 19.6256 114.257 19.8416 114.671 19.9863C115.085 20.1309 115.517 20.2042 115.968 20.2042C116.354 20.2042 116.715 20.1511 117.053 20.0467C117.319 19.9606 117.555 19.8416 117.766 19.6878C117.95 19.5432 118.112 19.3765 118.247 19.1843C118.416 18.9536 118.564 18.668 118.694 18.3219C118.822 17.996 118.919 17.5749 118.983 17.0567C119.056 16.5294 119.152 15.3319 119.272 13.4643C119.377 11.8731 119.457 12.2485 119.514 10.9265C119.562 9.64299 119.606 9.00031 119.648 9.00031C120.862 9.00031 121.819 7.16931 122.521 7.16931H124.971L124.385 15.7383C124.377 15.8995 124.372 16.0332 124.372 16.1375C124.339 17.8111 124.236 18.992 124.064 19.6805C123.89 20.3689 123.603 20.9659 123.202 21.473C122.799 21.9802 122.211 22.4361 121.439 22.8426C120.666 23.2491 119.789 23.5366 118.806 23.705C117.824 23.8735 116.83 23.9577 115.823 23.9577C114.922 23.9577 114.052 23.8936 113.216 23.7655C112.443 23.6373 111.747 23.4505 111.126 23.2033C110.507 22.958 109.967 22.6705 109.51 22.3409C109.09 22.0352 108.77 21.7239 108.543 21.4053C108.318 21.0867 108.14 20.7077 108.012 20.2646C107.867 19.7666 107.794 19.2301 107.794 18.6588C107.794 18.4666 107.801 18.1736 107.818 17.7836C107.834 17.3936 107.871 16.8315 107.928 16.0991L108.085 14.1674C108.125 13.6602 108.169 12.9168 108.219 11.9354L108.437 7.16748H108.438Z" fill="#4FC127"/>
<path d="M141.193 17.7909C141.096 18.2651 140.979 20.7553 140.843 21.6012C140.706 22.4471 140.615 23.1044 140.565 23.5695C138.844 23.8277 137.306 23.9559 135.955 23.9559C134.603 23.9559 133.439 23.7929 132.317 23.467C131.194 23.1411 130.163 22.6064 129.226 21.8612C128.288 21.1178 127.618 20.2426 127.215 19.2356C126.813 18.2303 126.611 17.1043 126.611 15.8555C126.611 14.3999 126.882 13.0889 127.426 11.9262C127.97 10.7635 128.75 9.79492 129.768 9.01675C130.786 8.24041 131.903 7.68564 133.117 7.35057C134.331 7.01733 135.587 6.84888 136.883 6.84888C138.073 6.84888 137.714 7.00268 139.468 7.30663L141.323 8.32101C141.34 8.76411 141.364 9.25115 141.395 9.78214L141.479 11.1591C140.538 10.9338 139.774 10.78 139.192 10.6995C138.608 10.6189 138.068 10.5786 137.568 10.5786C136.482 10.5786 135.504 10.7965 134.635 11.2304C133.765 11.6644 133.082 12.2961 132.582 13.1255C132.082 13.955 131.833 14.8723 131.833 15.8775C131.833 16.7948 132.042 17.5822 132.461 18.2377C132.881 18.8932 133.444 19.4004 134.157 19.7592C134.869 20.1181 135.748 20.2957 136.793 20.2957C137.365 20.2957 137.985 20.2499 138.657 20.1566C139.329 20.065 140.172 18.0546 141.186 17.7891L141.193 17.7909Z" fill="#4FC127"/>
<path d="M143.486 23.6427C143.639 22.1377 143.749 20.8908 143.813 19.902C143.934 18.1479 144.064 15.7456 144.202 12.697C144.299 10.5731 144.346 9.07531 144.346 8.20742V7.16926C145.688 7.18573 146.613 7.19304 147.12 7.19304C147.457 7.19304 148.325 7.18573 149.724 7.16926L149.153 16.1851L148.861 23.6446L146.245 23.6207C145.875 23.6207 144.954 23.6281 143.484 23.6446L143.486 23.6427ZM149.533 14.9473L152.238 11.2688L154.422 8.20558L155.098 7.16742C156.594 7.1839 157.608 5.36021 158.139 5.36021C158.284 5.36021 159.245 5.3529 161.023 5.33643L155.929 13.596L154.975 14.8869L155.869 16.3114L160.913 23.6427L157.945 23.6189C157.3 23.6189 156.211 23.6263 154.675 23.6427C153.637 21.6854 151.923 18.7869 149.533 14.9473Z" fill="#4FC127"/>
<path d="M165.683 23.394C165.39 23.1981 164.736 23.5826 164.41 24.3187C164.282 24.608 163.716 27.0725 163.751 27.4936C163.786 27.9148 164.022 28.3451 164.322 28.5025C164.623 28.6618 166.166 29.5535 166.54 29.1745C166.913 28.7955 166.135 23.6961 165.685 23.3922L165.683 23.394Z" fill="white"/>
<path d="M169.339 24.3184C169.013 23.5823 168.358 23.1959 168.067 23.3937C167.614 23.6995 166.84 28.7988 167.212 29.176C167.583 29.5532 169.129 28.6615 169.427 28.504C169.727 28.3466 169.964 27.9163 169.998 27.4952C170.033 27.074 169.467 24.6095 169.339 24.3202V24.3184Z" fill="white"/>
<path d="M160.106 27.671C160.397 27.4733 161.052 27.8596 161.378 28.5957C161.506 28.885 162.072 31.3495 162.037 31.7706C162.002 32.1918 161.766 32.622 161.466 32.7795C161.166 32.9388 159.622 33.8305 159.25 33.4533C158.879 33.0761 159.653 27.975 160.106 27.671Z" fill="#4FC127"/>
<path d="M156.449 28.5957C156.775 27.8596 157.43 27.4733 157.722 27.671C158.174 27.9768 158.948 33.0761 158.577 33.4533C158.205 33.8305 156.66 32.9388 156.361 32.7813C156.061 32.6239 155.825 32.1936 155.79 31.7725C155.755 31.3513 156.321 28.8868 156.449 28.5975V28.5957Z" fill="#4FC127"/>
<defs>
<linearGradient id="paint0_linear_2_10072" x1="17.1988" y1="53.1406" x2="17.1988" y2="-11.408" gradientUnits="userSpaceOnUse">
<stop stop-color="#E60040"/>
<stop offset="1" stop-color="#F9D92E"/>
</linearGradient>
<linearGradient id="paint1_linear_2_10072" x1="17.1988" y1="15.9615" x2="17.1988" y2="8.86495" gradientUnits="userSpaceOnUse">
<stop stop-color="#333333"/>
<stop offset="1" stop-color="#E6E6E6"/>
</linearGradient>
<linearGradient id="paint2_linear_2_10072" x1="17.1987" y1="15.1249" x2="17.1987" y2="-4.19393" gradientUnits="userSpaceOnUse">
<stop stop-color="#333333"/>
<stop offset="1" stop-color="#E6E6E6"/>
</linearGradient>
<linearGradient id="paint3_linear_2_10072" x1="17.1981" y1="41.5752" x2="17.2" y2="2.04259" gradientUnits="userSpaceOnUse">
<stop stop-color="#333333"/>
<stop offset="1" stop-color="#E6E6E6"/>
</linearGradient>
<linearGradient id="paint4_linear_2_10072" x1="17.1987" y1="19.7924" x2="17.1987" y2="13.031" gradientUnits="userSpaceOnUse">
<stop stop-color="#333333"/>
<stop offset="1" stop-color="#E6E6E6"/>
</linearGradient>
<linearGradient id="paint5_linear_2_10072" x1="9.01255" y1="21.9345" x2="9.01255" y2="15.0551" gradientUnits="userSpaceOnUse">
<stop stop-color="#333333"/>
<stop offset="1" stop-color="#E6E6E6"/>
</linearGradient>
<linearGradient id="paint6_linear_2_10072" x1="8.58556" y1="18.4462" x2="8.58556" y2="10.8108" gradientUnits="userSpaceOnUse">
<stop stop-color="#333333"/>
<stop offset="1" stop-color="#E6E6E6"/>
</linearGradient>
<linearGradient id="paint7_linear_2_10072" x1="17.1988" y1="45.9127" x2="17.1988" y2="26.1044" gradientUnits="userSpaceOnUse">
<stop stop-color="#1A1A1A"/>
<stop offset="1" stop-color="#4D4D4D"/>
</linearGradient>
<linearGradient id="paint8_linear_2_10072" x1="19.5075" y1="23.932" x2="19.5075" y2="13.3296" gradientUnits="userSpaceOnUse">
<stop stop-color="#333333"/>
<stop offset="1" stop-color="#E6E6E6"/>
</linearGradient>
<linearGradient id="paint9_linear_2_10072" x1="14.89" y1="23.7892" x2="14.89" y2="13.3297" gradientUnits="userSpaceOnUse">
<stop stop-color="#333333"/>
<stop offset="1" stop-color="#E6E6E6"/>
</linearGradient>
<linearGradient id="paint10_linear_2_10072" x1="25.3849" y1="21.9345" x2="25.3849" y2="15.0551" gradientUnits="userSpaceOnUse">
<stop stop-color="#333333"/>
<stop offset="1" stop-color="#E6E6E6"/>
</linearGradient>
<linearGradient id="paint11_linear_2_10072" x1="25.812" y1="18.4462" x2="25.812" y2="10.8108" gradientUnits="userSpaceOnUse">
<stop stop-color="#333333"/>
<stop offset="1" stop-color="#E6E6E6"/>
</linearGradient>
<linearGradient id="paint12_linear_2_10072" x1="17.1987" y1="30.7315" x2="17.1987" y2="-39.6131" gradientUnits="userSpaceOnUse">
<stop stop-color="#C40E41"/>
<stop offset="1" stop-color="#F9D92E"/>
</linearGradient>
<linearGradient id="paint13_linear_2_10072" x1="10.4823" y1="35.8249" x2="10.4823" y2="25.4133" gradientUnits="userSpaceOnUse">
<stop stop-color="#5E1127"/>
<stop offset="1" stop-color="#C71044"/>
</linearGradient>
<linearGradient id="paint14_linear_2_10072" x1="23.9152" y1="35.8249" x2="23.9152" y2="25.4133" gradientUnits="userSpaceOnUse">
<stop stop-color="#5E1127"/>
<stop offset="1" stop-color="#C71044"/>
</linearGradient>
</defs>
</svg>
