<svg width="21" height="20" viewBox="0 0 21 20" fill="none" xmlns="http://www.w3.org/2000/svg">
<g clip-path="url(#clip0_19_22875)">
<path d="M19.015 0.750397L11.2014 6.5312L12.6542 3.124L19.015 0.750397Z" fill="#7CE234"/>
<path d="M0.993408 0.750397L8.73661 6.5856L7.35341 3.124L0.993408 0.750397Z" fill="#7CE234"/>
<path d="M16.2014 14.1544L14.123 17.3304L18.5742 18.556L19.8494 14.224L16.2014 14.1544Z" fill="#73C43B"/>
<path d="M0.16626 14.224L1.43346 18.556L5.87746 17.3304L3.80626 14.1544L0.16626 14.224Z" fill="#73C33B"/>
<path d="M5.63761 8.7896L4.40161 10.6552L8.80641 10.856L8.65921 6.1152L5.63761 8.7896Z" fill="#7ADA36"/>
<path d="M14.3702 8.78961L11.3022 6.06161L11.2014 10.856L15.6062 10.6552L14.3702 8.78961Z" fill="#7ADA36"/>
<path d="M5.87744 17.3304L8.54304 16.0432L6.24784 14.2552L5.87744 17.3304Z" fill="#4DA80C"/>
<path d="M11.4646 16.0432L14.123 17.3304L13.7598 14.2552L11.4646 16.0432Z" fill="#4DA80C"/>
<path d="M14.123 17.3304L11.4646 16.0432L11.6806 17.7696L11.6574 18.5024L14.123 17.3304Z" fill="#62C919"/>
<path d="M5.87744 17.3304L8.35024 18.5024L8.33504 17.7696L8.54304 16.0432L5.87744 17.3304Z" fill="#62C919"/>
<path d="M8.39668 13.1144L6.18628 12.4664L7.74708 11.7496L8.39668 13.1144Z" fill="#171C2A"/>
<path d="M11.6111 13.1144L12.2607 11.7496L13.8295 12.4664L11.6111 13.1144Z" fill="#171C2A"/>
<path d="M5.8776 17.3304L6.264 14.1544L3.8064 14.224L5.8776 17.3304Z" fill="#4DA80C"/>
<path d="M13.7439 14.1544L14.1231 17.3304L16.2015 14.224L13.7439 14.1544Z" fill="#4DA80C"/>
<path d="M15.6062 10.6552L11.2014 10.856L11.611 13.1144L12.2598 11.7496L13.8294 12.4664L15.6062 10.6552Z" fill="#4DA80C"/>
<path d="M6.18641 12.4664L7.74721 11.7496L8.39681 13.1144L8.80641 10.856L4.40161 10.6552L6.18641 12.4664Z" fill="#4DA80C"/>
<path d="M4.40161 10.6552L6.24801 14.2552L6.18641 12.4664L4.40161 10.6552Z" fill="#62C919"/>
<path d="M13.8296 12.4664L13.76 14.2552L15.6064 10.6552L13.8296 12.4664Z" fill="#62C919"/>
<path d="M8.80633 10.856L8.39673 13.1144L8.91433 15.7808L9.03033 12.2664L8.80633 10.856Z" fill="#62C919"/>
<path d="M11.2016 10.856L10.9856 12.2584L11.0936 15.7808L11.6112 13.1144L11.2016 10.856Z" fill="#62C919"/>
<path d="M11.6111 13.1144L11.0935 15.7808L11.4647 16.0432L13.7599 14.2552L13.8295 12.4664L11.6111 13.1144Z" fill="#7ADA36"/>
<path d="M6.18628 12.4664L6.24788 14.2552L8.54308 16.0432L8.91428 15.7808L8.39668 13.1144L6.18628 12.4664Z" fill="#7ADA36"/>
<path d="M11.6574 18.5024L11.6806 17.7696L11.4798 17.6H8.52784L8.33504 17.7696L8.35024 18.5024L5.87744 17.3304L6.74304 18.04L8.49664 19.2496H11.503L13.2646 18.04L14.123 17.3304L11.6574 18.5024Z" fill="#4DA80C"/>
<path d="M11.4646 16.0432L11.0934 15.7808H8.91423L8.54303 16.0432L8.33423 17.7696L8.52783 17.6H11.4798L11.6806 17.7696L11.4646 16.0432Z" fill="#131313"/>
<path d="M19.347 6.9088L20.0038 3.7176L19.0142 0.750397L11.4646 6.3392L14.3702 8.7896L18.4734 9.9848L19.3782 8.9288L18.9838 8.6432L19.6094 8.0728L19.1302 7.7032L19.7566 7.2248L19.347 6.9088Z" fill="#4DA80C"/>
<path d="M0.00390625 3.7176L0.668706 6.9088L0.243906 7.2248L0.877506 7.7032L0.398306 8.0728L1.02391 8.6432L0.629506 8.9288L1.53431 9.9848L5.63751 8.7896L8.54311 6.3392L0.993506 0.750397L0.00390625 3.7176Z" fill="#4DA80C"/>
<path d="M18.4736 9.98481L14.3704 8.78961L15.6064 10.6552L13.76 14.2552L16.2016 14.224H19.8496L18.4736 9.98481Z" fill="#7CE234"/>
<path d="M5.63746 8.78961L1.53426 9.98481L0.16626 14.224H3.80626L6.24786 14.2552L4.40146 10.6552L5.63746 8.78961Z" fill="#7CE234"/>
<path d="M11.2015 10.856L11.4647 6.33839L12.6543 3.12399H7.35352L8.54312 6.33839L8.80632 10.856L8.90632 12.2736L8.91432 15.7808H11.0935L11.1015 12.2736L11.2015 10.856Z" fill="#62C919"/>
</g>
<defs>
<clipPath id="clip0_19_22875">
<rect width="20.008" height="20" fill="white"/>
</clipPath>
</defs>
</svg>
