<svg width="12" height="12" fill="#fff" viewBox="0 0 12 12" xmlns="http://www.w3.org/2000/svg"><path fill-rule="evenodd" d="m.6 1 .1.1 3.6 1.4h3.2l3.6-1.4.1-.1.8 1.8-.4 1.9.2.2-.3.3.3.2-.3.3.2.1-.6.8.8 2.5-.8 2.5-2.7-.7-.5.4-1 .7H5.1l-1-.7-.4-.3-.1-.1-2.6.7-.9-2.5.8-2.5-.5-.7.2-.1-.4-.4.2-.2-.2-.3.2-.2L0 2.8.6 1zm3.1 2.5 1 .8-.4.4-1 .9-2.2.6-.4-.5.2-.1-.3-.4.2-.2-.3-.2.2-.2-.3-1.7.5-1.5 2.8 2.1zm7.1 2.7.4-.5-.2-.1.3-.3-.2-.2.3-.2-.1-.3.3-1.7-.5-1.5-3.9 2.9.6.5.9.8 2.1.6zM5.3 8.6l-.5-1.2-1.3.6 1.8.6zM5.2 10l-.2.1-.1 1.1H7l.1.1-.1-1.1-.3-.2H5.2zm3.3-2-1.8.5.5-1.1 1.3.6z"></path></svg>