<?xml version="1.0" encoding="utf-8"?>
<!-- Generator: Adobe Illustrator 25.3.1, SVG Export Plug-In . SVG Version: 6.00 Build 0)  -->
<svg version="1.1" id="Layer_1" xmlns="http://www.w3.org/2000/svg" xmlns:xlink="http://www.w3.org/1999/xlink" x="0px" y="0px"
	 viewBox="0 0 90 90" style="enable-background:new 0 0 90 90;" xml:space="preserve">
<style type="text/css">
	.st0{fill:#773CFD;}
</style>
<g>
	<path class="st0" d="M90,28.7v-4.7c0-5.4-4.4-9.8-9.8-9.8H9.8c-5.4,0-9.8,4.4-9.8,9.8v4.7c0,0.5,0.4,0.9,0.9,0.9h88.2
		C89.6,29.5,90,29.1,90,28.7z"/>
	<path class="st0" d="M0,36v30.1c0,5.4,4.4,9.8,9.8,9.8h70.3c5.4,0,9.8-4.4,9.8-9.8V36c0-0.5-0.4-0.9-0.9-0.9H0.9
		C0.4,35.2,0,35.5,0,36z M22.5,59.1c0,1.6-1.3,2.8-2.8,2.8h-2.8c-1.6,0-2.8-1.3-2.8-2.8v-2.8c0-1.6,1.3-2.8,2.8-2.8h2.8
		c1.6,0,2.8,1.3,2.8,2.8V59.1z"/>
</g>
</svg>
