<?xml version="1.0" encoding="utf-8"?>
<!-- Generator: Adobe Illustrator 25.3.1, SVG Export Plug-In . SVG Version: 6.00 Build 0)  -->
<svg version="1.1" id="Layer_1" xmlns="http://www.w3.org/2000/svg" xmlns:xlink="http://www.w3.org/1999/xlink" x="0px" y="0px"
	 viewBox="0 0 90 90" style="enable-background:new 0 0 90 90;" xml:space="preserve">
<style type="text/css">
	.st0{fill:#DA1E28;}
</style>
<g>
	<g>
		<g>
			<path class="st0" d="M8.1,47.6H2.6c-1.5,0-2.6,1.2-2.6,2.6v37.1C0,88.8,1.2,90,2.6,90h5.4c4.4,0,7.9-3.5,7.9-7.9V55.5
				C16,51.2,12.5,47.6,8.1,47.6z"/>
		</g>
	</g>
	<g>
		<g>
			<path class="st0" d="M45,0C29,0,16,13.2,16,29.2c0,5.5,1.5,10.7,4.3,15.2c3.5-2,7.5-3.1,11.6-3.1c5.6,0,11.3,2,16.1,6.3h13
				c1.9,0,3.7,0.6,5.2,1.5c4.9-5.2,8-12.2,8-19.9C74.2,13.2,61,0,45,0z M45,21.3c4.4,0,7.9,3.5,7.9,7.9c0,3.2-1.9,6-4.8,7.3
				c-0.1,0.1-0.3,0.1-0.4,0.1v3.1c0,1.5-1.2,2.6-2.6,2.6c-1.5,0-2.6-1.2-2.6-2.6v-3.1c-1.4-0.5-2.7-1.2-3.9-2.4
				c-1-1-1.1-2.7-0.1-3.7c1-1,2.7-1.1,3.7-0.1c1.3,1.2,2.7,1.7,3.9,1.2c1-0.4,1.6-1.4,1.6-2.4c0-1.5-1.2-2.6-2.6-2.6
				c-4.4,0-7.9-3.5-7.9-7.9c0-3.3,2.1-6.3,5.2-7.4c0,0,0,0,0.1,0V7.9c0-1.5,1.2-2.6,2.6-2.6s2.6,1.2,2.6,2.6v3.2
				c1.7,0.6,3.4,1.7,4.8,3.4c0.9,1.1,0.8,2.8-0.3,3.7c-1.1,0.9-2.8,0.8-3.7-0.3c-1.4-1.7-3-2.3-4.3-1.8c-1,0.4-1.7,1.4-1.7,2.5
				C42.4,20.1,43.5,21.3,45,21.3z"/>
		</g>
	</g>
	<g>
		<g>
			<path class="st0" d="M87.8,48.6c-2.2-1.6-5.2-1.3-7,0.7L66.6,67c-1,1.1-2.9,1.7-3.9,1.7H45c-1.5,0-2.6-1.2-2.6-2.6
				s1.2-2.6,2.6-2.6c11.8,0,2.9,0,16,0c2.9,0,5.3-2.4,5.3-5.3s-2.4-5.3-5.3-5.3c-12.4,0-0.7,0-14,0c-1.3,0-2-0.8-3-1.7
				c-1.6-1.4-3.4-2.5-5.2-3.2c-5.7-2.3-12.3-1.6-17.5,2c0,9.6,0,23.9,0,34.8H61c5,0,9.7-2.5,12.7-6.5l15.3-22.1
				C90.7,53.8,90.2,50.4,87.8,48.6z"/>
		</g>
	</g>
</g>
</svg>
