<?xml version="1.0" encoding="utf-8"?>
<!-- Generator: Adobe Illustrator 27.0.0, SVG Export Plug-In . SVG Version: 6.00 Build 0)  -->
<svg version="1.1" id="Layer_1" xmlns="http://www.w3.org/2000/svg" xmlns:xlink="http://www.w3.org/1999/xlink" x="0px" y="0px"
	 viewBox="0 0 697 640" style="enable-background:new 0 0 697 640;" xml:space="preserve">
<style type="text/css">
	.st0{fill:#F4F5F7;}
	.st1{fill:#FF9F54;}
	.st2{fill:#FFFFFF;}
	.st3{fill:#CF856A;}
	.st4{fill:#260E14;}
	.st5{fill:#9A644A;}
	.st6{fill:#594E8A;}
	.st7{fill:#A497E8;}
	.st8{fill:#172B4D;}
	.st9{fill:#5B2295;}
	.st10{fill:#652BA4;}
	.st11{fill:#FFB69E;}
	.st12{fill:#F68A73;}
	.st13{fill:#262D4F;}
	.st14{fill:#974034;}
	.st15{fill:#662C24;}
	.st16{fill:#7A869A;}
	.st17{fill:#5E6C84;}
	.st18{fill:#DFE1E5;}
	.st19{fill:#44004F;}
	.st20{fill:#C1C7D0;}
	.st21{fill:#36B37E;}
	.st22{fill:#1C2139;}
	.st23{fill:#FAFBFC;}
</style>
<path class="st0" d="M187.9,207.5c-14.7,23.9-44.7,32-69.8,44.5c-34.7,17.4-63.8,46.9-71.3,85.8c-6.6,34.4,1.2,74,29.3,97.2
	c29.9,24.6,74.7,26,102.3,53.1c12.5,12.3,20.6,29.2,35.4,38.7c17.6,11.5,40.6,9.8,61.2,5.1s41-12,61.9-10.4
	c15.7,1.2,30.5,7.2,45.3,12.5c43.1,15.2,90.6,23.6,134.3,10.3c50.1-15.2,86.8-57.1,83.7-111.6c-1.7-30.8-16.8-60.5-13.7-91.3
	c2-20,12.6-31.6,22.1-48.1c9.5-16.4,20-34.7,26.2-52.8c11.7-34.2,4.7-74.1-17.8-102.3c-22.6-28.2-60-43.7-95.9-39.8
	c-18.1,2-34.6,8.7-52.8,9.2c-20.2,0.5-40.4-0.7-59.8-7.2c-50.4-16.9-86.4-42.4-142-33.9c-34.5,5.3-52.9,22.9-62.6,56.9
	C196.2,150.9,203.4,182.3,187.9,207.5z"/>
<g>
	<path class="st1" d="M130.1,164.6v28.9c0,9.5,5.8,17.6,14.1,21c2.6,1.1,5.5,1.7,8.5,1.7h52.5c1.2,3.7,2.5,7,3.9,9.9
		c9.6,19.9,23.4,21.6,23.4,21.6c-4.8-4.6-7.9-11.3-9.9-17.9c-1.5-4.8-2.4-9.6-2.9-13.6h13.9c0.4,0,0.8,0,1.2,0c0.2,0,0.4,0,0.6,0
		c0.1,0,0.2,0,0.3,0c5.7-0.5,10.8-3.2,14.5-7.1c3.8-4,6.1-9.4,6.1-15.4v-28.9c0-12.5-10.1-22.7-22.7-22.7h-80.9
		C140.2,141.9,130.1,152.1,130.1,164.6z"/>
	<g>
		<path class="st2" d="M144.2,214.5c2.6,1.1,5.5,1.7,8.5,1.7h5.9l-4.6-18.3c0,0,0-0.1,0-0.1c0,0,0,0,0,0S147.7,200,144.2,214.5z"/>
		<polygon class="st3" points="235.1,187.6 234.4,177.6 241.3,175.5 244.9,188.1 		"/>
		<path class="st4" d="M203.2,170.8c0-6.4-2.6-13.3-5.7-18.4c-2.4-4.1-5.3-6.5-10.1-7c-3.8-0.4-8.2-1.1-11.9,0.1
			c-3.5,1.1-6.4,3.6-8.6,6.4c-4.3,5.7-6,11.6-7.1,18.6c-0.8,4.7,0.8,8.8,5.3,11c2.8,1.4,6.1,1.6,9.2,1.7c3,0,6.2,0,9.2-0.5
			c2.3-0.3,4-1.2,6.4-1.2c3.6,0,7.7,0.4,10.5-2c1.5-1.3,2.3-3.2,2.6-5.1C203.2,173.3,203.3,172.1,203.2,170.8z"/>
		<path class="st2" d="M206.6,194.7C206.6,194.7,206.7,194.7,206.6,194.7L206.6,194.7c0.8,0.3,7.2,2.6,27.7,20.4
			c-0.2-2.9-0.1-18.2-0.7-31.9c0.3,0,0.7,0,1.1,0h0c2.7,0,5.6-0.6,8.3-1.5c0.4-0.2,0.9-0.3,1.3-0.5c1.4,4.4,4.1,16.1,5.9,27.7
			c-3.7,4-8.8,6.6-14.5,7.1c-0.1,0-0.2,0-0.3,0c-0.2,0-0.4,0-0.6,0c0,0,0,0,0,0c-0.4,0-0.8,0.1-1.1,0.1h-13.9
			c0.6,4,1.5,8.8,2.9,13.6c-4.6-2.6-10.4-5.9-12.4-7.4c-2.4-1.9-3.8-3.1-3.8-3.1S201,201.8,206.6,194.7z"/>
		<path class="st3" d="M167.2,209c0.3,2.4,0.8,4.8,1.4,7.1h33.2c0.2-2.3,0.2-4.6,0-6.9c-0.2-3.1-0.9-6.1-1.9-9
			c-0.1-0.3-0.3-0.7-0.4-1c-1-2.6-1.4-6.4-4.1-7.5c-0.4-0.2-0.8-0.3-1.2-0.5c-3.3-1.3-6-2.4-6.7-5l-0.1-0.8v0l-0.1-0.6l-0.2-3
			l-0.3-4.1l-4.6,0.5l-6.7,0.7h0l-0.2,2.1v0l-0.2,2.1l0,0.1l-0.3,3.5c-0.1,0.9-0.4,1.7-4,3.4c-1.7,0.8-2.6,3.6-3.2,5.3
			c-0.6,1.9-0.9,4-1,6C166.7,204,166.9,206.5,167.2,209z"/>
		<path class="st2" d="M189.5,216.1h15.8c1.2,3.7,2.5,7,3.9,9.9c0.5-1.2,0.9-2.4,1.2-3.7c0.1-0.6,0.1-1.1,0.1-1.7
			c0-1.2-0.2-2.3-0.8-3.2c-0.1-0.1-0.1-0.1-0.1-0.2c-2.6-3.9-3.5-7.9-3.7-11.4c-0.1-2.8,0.8-10.6,0.9-11.1c0,0,0,0,0,0s0,0,0,0
			c-0.2-0.1-4.8-1.5-8.3-2.5c-2-0.6-3.6-1.1-4-1.3l-0.1,0.3l-2.9,15.3l-1,5.2v0l-0.5,2.7L189.5,216.1z"/>
		<path class="st2" d="M154,197.8C154,197.8,154,197.8,154,197.8C154,197.8,154,197.8,154,197.8c0.1,1,1,8.9,1,8.9l0,0.1l1.1,9.4
			h22.2c-0.2-0.8-0.5-1.6-0.7-2.4v0c-0.7-2.4-1.3-4.6-1.9-6.7c-2.8-9.7-4.7-16.4-4.8-16.8l-3.4,1.5l-2.8,1.2l-4,1.8l-5.2,2.3
			c0,0-0.2,0.1-0.2,0.1L154,197.8z"/>
		<path class="st5" d="M175.3,183.3c2.2,2,5.2,3.2,9.2,2.8c1.1-0.1,2.1-0.4,3-0.7l-0.6-7.6l-11.3,1.2L175.3,183.3z"/>
		<path class="st3" d="M170.3,165.6c0,0.3-0.1,0.7-0.1,1c-0.1,1.2,0,2.7,0.2,4.4c0.4,2.9,1.5,5.6,3.4,8.3c1.9,2.8,7.4,5.8,10.9,5.8
			c8.3,0,10.8-7.2,12.2-13.1c0-0.2,0.1-0.4,0.1-0.6c1.1-5.7,0-11.4,0-11.4c-1.7-5.8-9.7-6.8-9.7-6.8s-5,5.4-16.1,8.7
			C171.2,161.9,170.6,163.2,170.3,165.6z"/>
		<path class="st6" d="M182.5,171.5C182.5,171.5,182.5,171.5,182.5,171.5C182.6,171.5,182.6,171.5,182.5,171.5z"/>
		<path class="st5" d="M187.1,169.3c-0.2-0.8,0-1.7-0.4-2.4c0,0-0.1,0-0.1,0c-0.7,0.5-0.5,1.6-0.3,2.4c0.1,0.5,0.3,1,0.4,1.5
			c0.1,0.2,0.3,0.7,0.3,0.9c-0.2,0.5-1.1,0.3-1.4,0.2c-0.6-0.1-0.7,0.7-0.1,0.9c0.8,0.2,2.5,0,2.5-1
			C187.9,171,187.3,170.1,187.1,169.3z"/>
		<path class="st3" d="M171,167.4c0,0-2.2-3.7-3.9-2.4c-2.7,2.1-0.6,9.4,4.6,9.4L171,167.4z"/>
		<path class="st5" d="M168.7,167.4c-0.2-0.1-0.5,0.2-0.3,0.4c0.4,0.5,0.9,0.9,1.2,1.5c-0.4-0.1-0.9,0-1.3,0c-0.3,0.1-0.4,0.6,0,0.6
			c0.6,0.1,1.2,0.3,1.8,0.2c0.1,0.4,0.3,0.7,0.4,1.1c0.1,0.4,0.7,0.2,0.7-0.2C171,169.7,169.9,168.1,168.7,167.4z"/>
		<g>
			<g>
				<g>
					<path class="st3" d="M238.4,181.2c3.8-0.1,5-6.1,5.6-9c0.9-3.8,1-7.7,0.7-11.5c0-0.4-0.3-0.9-0.5-1.2c-0.2-0.3-0.6-0.5-0.9-0.6
						c-0.1-0.1-0.2-0.1-0.3-0.2c-0.1-0.1-0.3-0.1-0.4-0.2c-0.4-0.1-0.8-0.2-1.2-0.3c-0.2,0-0.4-0.1-0.5-0.1
						c-0.3-0.1-0.6-0.1-0.9-0.1c-0.1,0-0.3,0-0.4,0c-0.1,0-0.3,0-0.4,0c-0.1,0-0.2,0-0.3,0.1c-0.8,0.3-1.2,1.2-1.5,2.1
						c-0.9,2.8-1.5,5.7-1.8,8.7c-0.5-1-1-2.1-1.5-3.1c-0.2-0.5-0.4-0.9-0.9-1.2c-0.4-0.3-1-0.3-1.4,0.1c-0.7,0.9,0.4,3.3,0.7,4.2
						c0.6,2,0.3,3.8,0.6,5.8c0.3,2,1.5,3.9,2.8,5.4c0.4,0.4,0.8,0.8,1.3,1C237.5,181.1,238,181.2,238.4,181.2z"/>
					<path class="st5" d="M242.8,169c0.7-1.7,0.7-3.7,0.7-5.5c0-1.5,0.1-3.1-0.2-4.6c-0.1-0.1-0.2-0.1-0.3-0.2
						c-0.1-0.1-0.3-0.1-0.4-0.2c0,1.4,0.2,2.9,0.2,4.4c0,2-0.5,4-0.4,5.9C242.4,169.1,242.7,169.2,242.8,169z"/>
					<path class="st5" d="M240.3,168.3c0.7-1.7,0.9-3.4,1.1-5.2c0.1-1.6,0.3-3.3,0-4.8c-0.2,0-0.4-0.1-0.5-0.1
						c-0.2,1.4-0.1,3-0.2,4.4c-0.1,1.9-0.5,3.8-0.6,5.7C240,168.4,240.2,168.5,240.3,168.3z"/>
					<path class="st5" d="M237.7,167.9c0.6-1.9,0.9-3.8,1.2-5.8c0.2-1.4,0.5-2.8,0.6-4.2c-0.1,0-0.3,0-0.4,0
						c-0.4,1.5-0.6,3.2-0.9,4.7c-0.3,1.7-0.7,3.4-0.9,5.2C237.3,168.1,237.6,168.1,237.7,167.9z"/>
				</g>
			</g>
		</g>
		<path class="st4" d="M183.2,162.2c-0.4-0.3-1-0.2-1.5-0.2c-0.5,0-1,0.1-1.6,0.2c-0.5,0.1-1,0.2-1.5,0.4c-0.5,0.2-1,0.3-1.3,0.7
			c-0.2,0.2,0.1,0.5,0.3,0.5c0.4,0,0.9-0.2,1.3-0.4c0.5-0.1,0.9-0.3,1.4-0.4c0.5-0.1,0.9-0.1,1.4-0.2c0.5,0,1,0,1.4-0.2
			C183.4,162.6,183.4,162.3,183.2,162.2z"/>
		<path class="st4" d="M194.8,162.5c-0.2-0.4-0.8-0.5-1.2-0.5c-0.4-0.1-0.9-0.1-1.3-0.1c-0.4,0-0.8,0-1.3,0.1
			c-0.4,0.1-1,0.1-1.2,0.5c-0.1,0.1,0,0.3,0.1,0.4c0.3,0.2,0.9,0,1.2,0c0.4,0,0.8,0,1.2,0c0.4,0,0.8,0.1,1.1,0.1
			c0.4,0.1,0.9,0.2,1.3,0.1C194.9,162.9,194.9,162.7,194.8,162.5z"/>
		<path class="st2" d="M182,175.3c0,0,4.1,1.2,7.8-0.3c0,0-0.2,2.6-3.5,2.7C182.6,177.7,182,175.3,182,175.3z"/>
		<path class="st4" d="M182.4,166.8c-0.3-0.3-0.7-0.3-1.1-0.3c-0.4,0-0.8,0-1.2,0.1c-0.4,0.1-0.7,0.1-1.1,0.3
			c-0.3,0.1-0.8,0.2-0.9,0.6c0,0,0,0.1,0,0.1c0.1,0.1,0.3,0,0.4,0c0.2,0,0.3-0.1,0.5-0.1c0.4-0.1,0.7-0.2,1.1-0.2
			c0.4,0,0.7-0.1,1.1,0c0.3,0,0.7,0.1,1,0C182.5,167.1,182.5,166.9,182.4,166.8z"/>
		<path class="st4" d="M194,166.9c-0.1-0.1-0.1-0.1-0.2-0.2c-0.1-0.1-0.2-0.1-0.2-0.1c-0.2-0.1-0.4-0.1-0.6-0.2
			c-0.4-0.1-0.8-0.1-1.1-0.1c-0.4,0-0.7,0-1.1,0.1c-0.3,0.1-0.8,0.2-0.9,0.5c0,0.1,0,0.2,0.1,0.2c0.2,0.1,0.3,0,0.5,0
			c0.2,0,0.3-0.1,0.5-0.1c0.3-0.1,0.7-0.1,1-0.1c0.3,0,0.7,0,1,0.1c0.2,0,0.3,0.1,0.5,0.1c0.1,0,0.2,0,0.3,0c0.1,0,0.2,0,0.3,0
			C194.1,167.2,194.2,167.1,194,166.9z"/>
	</g>
</g>
<g>
	<path class="st7" d="M331.4,88.8v30.8c0,13.3,10.8,24.1,24.1,24.1h10c-1.8,17.3-14.7,24.1-15.5,24.5c7.2-1.5,13.3-4,18.2-6.9
		c3.3-1.9,6.2-4.1,8.6-6.2c4.8-4.3,7.9-8.5,9.7-11.4h55.3c13.3,0,24.1-10.8,24.1-24.1V88.8c0-13.3-10.8-24.1-24.1-24.1h-86.3
		C342.2,64.7,331.4,75.5,331.4,88.8z"/>
	<g>
		<g>
			<path class="st8" d="M388.8,105.1c1.8,1.6,3.3,3.4,4.2,5.6c0.8,2.2,0.9,4.6,0.9,6.9c-0.1,5.9-1.2,13.2,2.8,18
				c2.9,3.5,7,6.2,11.5,6.9c2.5,0.3,5.1,0,7.6-0.6c5.1-1.2,10.1-3.5,13.4-7.6c3.8-4.8,4.6-11.6,2.8-17.5
				c-1.8-5.9-6.1-10.8-11.1-14.3c1.6-4.1,1.5-8.8,0.3-13.1c-1.4-5.2-4-10.5-8.4-13.6c-7.1-5-16.9-6.8-24.6-2.4
				c-4.8,2.8-7.8,7.1-8.7,12.5c-0.6,3.7,0,7.6,1.7,10.9c0.8,1.5,1.8,3,2.8,4.3C385.2,102.6,387.3,103.7,388.8,105.1z"/>
			<path class="st9" d="M350,168.3c7.2-1.5,13.3-4,18.2-6.9c3.3-1.9,6.2-4.1,8.6-6.2c-2.2-11-5.2-24-6.4-28.6c0,0,0-0.1,0-0.1
				c0,0,0,0,0,0s-5.4,7.1-11.1,17.4h6.2C363.6,161.1,350.8,167.9,350,168.3z"/>
			<path class="st9" d="M417.6,143.8H432c-1-3.2-2-6.3-3.2-9.1c-1.5-3.5-3.1-6.6-5-8.9c0,0-3.7,3.9-5.8,15.5
				C417.9,142.1,417.7,142.9,417.6,143.8z"/>
			<path class="st10" d="M368.2,161.4c3.3-1.9,6.2-4.1,8.6-6.2c4.8-4.3,7.9-8.5,9.7-11.4H420c0.2-1.1,0.3-2.3,0.5-3.4v0
				c0.8-5.2,1.9-10.3,3.3-14.6c0,0-7-2.4-15.5-4.1c-0.1,0-0.3-0.1-0.4-0.1l-1.3-0.2c-0.4-0.1-0.9-0.2-1.4-0.2
				c-2.6-0.4-5.2-0.8-7.8-0.9c-0.1,0-0.3,0-0.5,0c-0.3,0-0.6,0-0.9,0c-0.5,0-0.9,0-1.4,0c-0.3,0-0.6,0-0.9,0c-1.2,0-2.4,0.1-3.5,0.2
				c-1.1,0.1-2.2,0.2-3.3,0.4c0,0-0.1,0-0.1,0c-0.1,0-0.2,0-0.4,0.1c-3.4,0.6-6.4,1.5-8.9,2.4c-4.5,1.6-7.3,3.3-7.3,3.3s0,0,0,0
				c0,0,0,0,0,0.1c0.1,1.2,1.8,7.3-2.6,22.2C367.2,150.7,366.6,155.4,368.2,161.4z"/>
			<path class="st9" d="M384.5,127.7l6.2,16.1h5.5l2.7-3.2l0.3-0.3l1.1-1.3l6.3-7.4l0.5-0.6l1.9-2.3l-1-2.1l-0.3-0.6l-2.3-4.7
				c-2.9-0.6-5.2-1-7.8-1.1c-0.4,0-0.9-0.1-1.3-0.1c-0.5,0-0.9,0-1.4,0c-0.4,0-0.7,0-0.9,0c-1.7-0.1-1.4-0.1-3.5,0.2l-2.4,3.1
				l-0.3,0.4v0L384.5,127.7z"/>
			<path class="st11" d="M390.3,120.2l0.5,7.1v0l0.1,0.8l1.1,15.7h2.3c0.8-1.6,1.6-3.4,2.5-5.3c0.1-0.1,0.1-0.3,0.2-0.4
				c0.2-0.4,0.4-0.8,0.6-1.3c3.6-7.5,7.6-15.4,7.6-15.4v-0.2l0-2.9l-0.1-4.7l0-1.6l-3.4,0l-8.4,0h-1.9l-0.3,1.9l-0.2,1.4l-0.7,4.2
				l0,0.1l0,0.2L390.3,120.2z"/>
			<path class="st12" d="M391.1,115.2c1.6,0.7,3.4,1,5.5,1.1c3.6,0,6.5-1.1,8.6-2.8l0.1-5.5l-13.7,3.9L391.1,115.2z"/>
			<path class="st11" d="M382.2,100.1c0,0,0,0.1,0,0.1c1.1,6.1,3.4,12.4,9.7,13.8c3.5,0.8,14,0,17.6-13.7c0.4-1.3,0.4-2.7,0.4-4
				c0-0.2,0-0.4,0-0.7c0-4.7-1.7-9.1-5.8-12.1c-3.9-2.9-8.1-3.2-12.7-2.1c-3.5,0.9-7.6,2.6-8.9,6.3C382.6,87.7,381.1,94,382.2,100.1
				z"/>
			<path class="st6" d="M396.9,100.2C397,100.2,397,100.2,396.9,100.2C396.9,100.2,396.9,100.2,396.9,100.2z"/>
			<path class="st13" d="M399.5,94.7c0.1,0,0.1,0,0.2,0c0.8,0.1,0.8,1.2,0.5,1.7c-0.1,0.3-0.3,0.5-0.7,0.5c-0.4,0-0.6-0.3-0.7-0.6
				C398.7,95.8,398.8,94.7,399.5,94.7z"/>
			<path class="st13" d="M388.6,94.5c0.1,0,0.1,0,0.2,0c0.8,0.1,0.8,1.2,0.5,1.7c-0.1,0.3-0.3,0.5-0.7,0.5c-0.4,0-0.6-0.3-0.7-0.6
				C387.8,95.6,387.8,94.5,388.6,94.5z"/>
			<path class="st12" d="M393.2,97.6c0.2-0.8,0.1-1.8,0.5-2.4c0,0,0.1,0,0.1,0c0.7,0.5,0.4,1.7,0.2,2.5c-0.1,0.5-0.3,1-0.5,1.5
				c-0.1,0.2-0.4,0.7-0.3,0.9c0.2,0.5,1.1,0.4,1.4,0.3c0.6-0.1,0.7,0.8,0.1,0.9c-0.8,0.2-2.6-0.1-2.5-1.2
				C392.4,99.3,393,98.4,393.2,97.6z"/>
			<path class="st11" d="M409,97c0,0,1.9-3.9,4.1-2.2c1.7,1.3,0.2,9.5-5,9.3L409,97z"/>
			<path class="st8" d="M403.4,83.5c-3,1.1-6.1,0.2-9.1-0.3c-3.3-0.6-6-0.3-9,1.2c-1.4,0.7-2.3,2-3.1,3.3c-0.7,1.3-1.3,2.8-2.2,4
				C378,81.2,392,73.5,400.8,75c6.2,1,11.7,6.1,12.7,12.3c0.4,2.4-0.7,8.5-4.3,5.6C408.4,92.2,402.6,83.8,403.4,83.5z"/>
			<polygon class="st11" points="390.4,119.8 390.4,119.8 390.4,119.5 			"/>
			<path class="st12" d="M391.2,104.9c0.5-0.1,1,0,1.6,0.1c0.6,0.1,1.1,0.2,1.7,0.1c0.6,0,1.1,0,1.7-0.1c0.6-0.1,1.1-0.3,1.7-0.4
				c0.1,0,0.3,0.2,0.2,0.3c-0.9,0.7-2.2,1.1-3.4,1.2c-0.6,0.1-1.2,0-1.8-0.1c-0.6-0.1-1.2-0.2-1.6-0.7
				C391,105.1,391,104.9,391.2,104.9z"/>
			<path class="st13" d="M396.8,92.1c0.2-0.1,0.2-0.1,0.4-0.1c0.1,0,0.3,0,0.4,0c0.3,0,0.6,0,0.8,0c0.6,0,1.2,0.1,1.7,0.2
				c0.5,0.1,1.1,0.2,1.6,0.5c0.5,0.2,1,0.4,1.3,0.9c0,0.1,0,0.2-0.1,0.2c-0.5,0-0.9-0.4-1.4-0.5c-0.5-0.2-1-0.3-1.6-0.4
				c-0.5-0.1-1.1-0.1-1.6-0.2c-0.3,0-0.5,0-0.8,0c-0.1,0-0.3,0-0.4,0c-0.2,0-0.2-0.1-0.4-0.1C396.6,92.5,396.6,92.2,396.8,92.1z"/>
			<path class="st13" d="M386,91.5c0.4-0.2,0.8-0.3,1.2-0.3c0.4,0,0.8,0,1.3,0c0.8,0.1,1.7,0.1,2.5,0.4c0.3,0.1,0.3,0.6-0.1,0.6
				c-0.8-0.1-1.6-0.2-2.4-0.3c-0.4,0-0.8,0-1.2,0c-0.4,0-0.8,0.1-1.2-0.1C385.8,91.8,385.8,91.6,386,91.5z"/>
			<path class="st12" d="M411.3,97.7c-0.1-0.2-0.4-0.2-0.6-0.1c-0.5,0.4-0.9,0.8-1.3,1.2c-0.4,0.5-0.8,0.9-0.9,1.6
				c0,0.2,0.2,0.4,0.4,0.3c0.1-0.1,0.2-0.2,0.3-0.3c0.1-0.1,0.2-0.2,0.3-0.3c0.1-0.1,0.2-0.2,0.3-0.3c0,0.1,0.1,0.2,0.1,0.3
				c0.1,0.2,0.2,0.5,0.3,0.7c0,0.1,0.2,0.2,0.3,0.2c0.1,0,0.2,0,0.3,0c0.1-0.1,0.2-0.1,0.2-0.3c0-0.1,0-0.2,0-0.3
				c-0.1-0.2-0.2-0.5-0.3-0.7c-0.1-0.1-0.1-0.2-0.2-0.3c0-0.1-0.1-0.1-0.1-0.2c0.3-0.3,0.6-0.6,0.9-0.9
				C411.4,98.1,411.4,97.8,411.3,97.7z"/>
		</g>
	</g>
</g>
<g>
	<path class="st1" d="M604.1,219V248c0,9.8-6.2,18.1-14.9,21.3c-2.4,0.9-5,1.4-7.7,1.4h-53c-0.2,0.5-0.3,1.1-0.5,1.6
		c-1.4,3.9-3.1,7.3-5,10.4c-0.8,1.2-1.5,2.4-2.3,3.5c-7.8,10.7-17.2,15.6-17.6,15.8c4.1-6.8,6.7-13.3,8.4-19.3
		c1.2-4.3,1.9-8.3,2.3-11.9h-13.1c-3.8,0-7.3-0.9-10.4-2.5c-7.3-3.8-12.2-11.4-12.2-20.1V219c0-12.5,10.1-22.6,22.6-22.6h81
		C593.9,196.4,604.1,206.5,604.1,219z"/>
	<g>
		<path class="st2" d="M571.6,270.6h-43.2c-0.2,0.5-0.3,1.1-0.5,1.6c-1.4,3.9-3.1,7.3-5,10.4h-11.6c1.2-4.3,1.9-8.3,2.3-11.9h-7.8
			c-0.3-8.8-0.6-15.5-0.6-15.5c9-4.4,15.1-6.8,21-7.9c1-0.2,1.9-0.3,2.9-0.5c0,0,0,0,0,0c0.8-0.1,1.7-0.2,2.6-0.3
			c0.8-0.1,1.7-0.1,2.5-0.1h0c3.6-0.1,7.5,0,12.2,0.2c0.1,0,0.2,0,0.3,0c0.8,0,1.7,0.1,2.5,0.2c0.8,0.1,1.5,0.2,2.3,0.3h0
			c0,0,0.1,0,0.1,0c1.2,0.1,2.3,0.3,3.3,0.5c9,1.7,14.3,5,14.3,5L571.6,270.6z"/>
		<path class="st14" d="M549.3,247.2c-1,3.6-5.2,9.4-7.7,9.4c-5.5,0.1-9.9-9.8-9.9-9.8v-14.9l16.8,2.5l0.1,1.7l0.2,2.8l0.1,1.6
			l0.1,1.4L549.3,247.2z"/>
		<path class="st15" d="M548.9,240.6c-2,1.3-4.6,2-7.7,2c-2.9,0-5.3-0.7-7.3-1.8c-0.8-0.5-1.6-1-2.2-1.6v-7.3l16.8,2.5l0.1,1.7
			l0.2,2.8L548.9,240.6z"/>
		<path class="st16" d="M529.1,246.5v0.2c0,0,0,0,0,0c0,1.1-0.7,12.2-1.3,25.4c-1.4,3.9-3.1,7.3-5,10.4c-0.8,1.2-1.5,2.4-2.3,3.5
			c-7.8,10.7-17.2,15.6-17.6,15.8c4.1-6.8,6.7-13.3,8.4-19.3c1.2-4.3,1.9-8.3,2.3-11.9h-12.2c1.3-9.6,2.5-16.8,2.5-16.8
			s11.8-4.6,22.5-6.7C527.3,246.8,528.2,246.7,529.1,246.5z"/>
		<path class="st16" d="M574.6,270.6h-22.4c-0.1-7.2-0.4-14.3-0.5-21.6c0-0.7,0-1.3,0-2v-0.5c0,0,1.3,0.2,3.1,0.6
			c4.1,0.9,16,3.5,16.9,4.1c0,0,0,0,0,0C573.6,252.3,573.8,261.6,574.6,270.6z"/>
		<path class="st17" d="M536,252.2c0,0,7,0,8.6-0.6c1.6-0.6-1.5,7.3-1.5,7.3l-4.9,0.2C538.2,259.2,535,253.5,536,252.2z"/>
		<polygon class="st17" points="543.7,270.6 537.8,270.6 538.2,259.2 543.1,259 543.1,259 		"/>
		<path class="st17" d="M555.6,268.1l2.7,2.5h-6c-0.1-7.2-0.4-14.3-0.5-21.6c0-0.7,0-1.3,0-2v-0.5c0,0,1.3,0.2,3.1,0.6l0.2,0.4
			l5.8,14.8L555.6,268.1z"/>
		<path class="st17" d="M528.4,270.6c-0.2,0.5-0.3,1.1-0.5,1.6c-1.4,3.9-3.1,7.3-5,10.4c-0.8,1.2-1.5,2.4-2.3,3.5l-0.7-3.5
			l-2.5-12.7l6.2-4l-4.8-4.3c2.6-5.7,6.2-12.1,7.5-14.4c0,0,0.1-0.1,0.1-0.1c1-0.2,1.9-0.4,2.8-0.5v0.2c0,0,0,0,0,0
			C529.2,248.1,528.4,270.6,528.4,270.6z"/>
		<polygon class="st18" points="551.7,246.5 549.1,243 542.5,252 549.2,259.4 		"/>
		<polygon class="st18" points="529.1,246.5 531.7,242.6 538.3,252.2 531.6,259.4 		"/>
		<path class="st17" d="M503.1,270.6h-2.6c-3.8,0-7.3-0.9-10.4-2.5c7.6-10.7,13.8-14.3,13.8-14.3
			C504.3,259.4,503.9,265.2,503.1,270.6z"/>
		<path class="st17" d="M589.2,269.2c-2.4,0.9-5,1.4-7.7,1.4h-7.5c-0.6-5.6-1.3-12.1-2.2-19.4c0,0,0,0,0,0
			C572.2,251.4,580.1,256.2,589.2,269.2z"/>
		<path class="st4" d="M522.8,220.1c0,0-1.1-7.9,0.3-14.6c1.4-6.7,2.7-10.5,10.5-11.5c7.8-1,18.7-1.4,21.9,3.6s4.7,14.9,2.5,23.5
			c-2.2,8.6-31.9,0.9-31.9,0.9L522.8,220.1z"/>
		<path class="st14" d="M557.1,219.9c0,0-0.1,0-0.4,0c0,0.7,0,1.3,0,2c-0.1,0.6-0.1,1.2-0.2,1.7c0,0.3-0.1,0.6-0.1,0.8
			c-0.3,1.9-0.4,3.6-1,5.4c-0.6,1.9-1.4,3.7-2.6,5.3l-0.3,0.4c-0.8,0.9-1.6,1.8-2.6,2.5c-2.2,1.6-5,2.7-8.6,2.7
			c-2.9,0-5.3-0.7-7.3-1.8c-1.4-0.8-2.6-1.8-3.7-3c0-0.1-0.1-0.1-0.1-0.1c-2.7-3.3-4.1-7.6-4.8-11.3c-0.2-1.4-0.3-3-0.3-4.7
			c0-0.3,0-0.6,0-1c0,0,0,0,0,0c0,0,0-0.1,0.1-0.4c0.1-1,0.3-2.1,0.6-3.2c0.5-2.8,0.7-4,1-5.2c0.4-2.1,0.9-6.3,5.8-7.1
			c4.9-0.8,16.5-1.1,20.7,1.3C557.5,206.5,557.1,219.9,557.1,219.9z"/>
		<path class="st6" d="M542.5,224.5C542.6,224.5,542.6,224.5,542.5,224.5C542.5,224.5,542.5,224.5,542.5,224.5z"/>
		<path class="st4" d="M534.2,218.5c0-0.4,0.2-0.9,0.6-1.1c0.4-0.2,0.9,0,1.1,0.4c0.2,0.3,0.2,0.8,0.1,1.2c0,0.1-0.1,0.3-0.2,0.4
			c-0.1,0.2-0.2,0.4-0.3,0.5c-0.3,0.3-0.8,0.2-1.1-0.2C534.2,219.4,534.2,218.9,534.2,218.5z"/>
		<path class="st4" d="M547.2,218.5c0-0.4,0.2-0.9,0.6-1.1c0.4-0.2,0.9,0,1.1,0.4c0.2,0.3,0.2,0.8,0.1,1.2c0,0.1-0.1,0.3-0.2,0.4
			c-0.1,0.2-0.2,0.4-0.3,0.5c-0.3,0.3-0.8,0.2-1.1-0.2C547.2,219.4,547.2,218.9,547.2,218.5z"/>
		<path class="st14" d="M525.5,218.4c0,0-2-3.9-4.5-1.9c-2,1.5-0.3,11,5.7,10.8L525.5,218.4z"/>
		<path class="st15" d="M523.3,219.7c0.5,0.4,0.9,1,1.2,1.6c0.3,0.4,0.7,1.1,0.5,1.6c0,0.1-0.2,0.2-0.3,0.1c-0.3-0.2-0.5-0.6-0.7-1
			c-0.1,0-0.2,0-0.3,0c-0.1,0-0.2,0.1-0.4,0.2c-0.3,0.2-0.7-0.1-0.4-0.4c0.2-0.2,0.5-0.3,0.7-0.4c-0.3-0.5-0.7-0.9-1-1.4
			C522.5,219.8,523,219.5,523.3,219.7z"/>
		<path class="st14" d="M556.6,218.4c0,0,2-3.9,4.5-1.9c2,1.5,0.3,11-5.7,10.8L556.6,218.4z"/>
		<path class="st15" d="M558.9,219.7c-0.5,0.4-0.9,1-1.2,1.6c-0.3,0.4-0.7,1.1-0.5,1.6c0,0.1,0.2,0.2,0.3,0.1c0.3-0.2,0.5-0.6,0.7-1
			c0.1,0,0.2,0,0.3,0c0.1,0,0.2,0.1,0.4,0.2c0.3,0.2,0.7-0.1,0.4-0.4c-0.2-0.2-0.5-0.3-0.7-0.4c0.3-0.5,0.7-0.9,1-1.4
			C559.6,219.8,559.1,219.5,558.9,219.7z"/>
		<path class="st4" d="M539,213.1c-0.7-0.4-1.6-0.3-2.4-0.3c-0.7,0-1.4,0-2.2,0.1c-0.8,0.1-1.5,0.1-2.3,0.4
			c-0.5,0.1-1.8,0.8-1.2,1.5c0.4,0.5,1.3,0.4,1.9,0.4c0.6-0.1,1.3-0.1,2-0.1c0.7,0,1.3,0,2,0c0.7,0,1.4,0.2,2.1-0.1
			C539.6,214.6,539.8,213.5,539,213.1z"/>
		<path class="st4" d="M552.8,213.2c-0.7-0.4-1.6-0.4-2.4-0.4c-0.7,0-1.5,0-2.2,0c-0.8,0-1.5,0.1-2.3,0.2c-0.5,0.1-1.8,0.7-1.3,1.4
			c0.4,0.5,1.3,0.5,1.8,0.4c0.7,0,1.3-0.1,2,0c0.7,0,1.3,0,2,0.1c0.7,0,1.4,0.3,2.1,0C553.3,214.8,553.6,213.7,552.8,213.2z"/>
		<path class="st15" d="M545.5,223.8c-0.1-0.4-0.4-1-0.8-1.2c-0.2-0.1-0.3,0.1-0.3,0.2c0.1,0.4,0.4,0.6,0.5,1c0,0.3-0.2,0.6-0.4,0.6
			c-0.4,0.1-0.7,0.1-1.1,0.2c-0.3,0.1-0.6,0.4-1,0.4c-0.3,0-0.7-0.1-0.9-0.2c-0.4-0.1-0.7-0.2-1.1-0.2c-0.2,0-0.6,0.1-0.7-0.2
			c-0.1-0.4,0.1-0.8,0-1.1c0-0.2-0.2-0.2-0.3,0c-0.3,0.4-0.5,1-0.3,1.5c0.1,0.5,0.6,0.7,1,0.7c0.2,0,0.4,0,0.6,0
			c0.2,0,0.5,0.1,0.7,0.2c0.5,0.2,0.9,0.4,1.4,0.2c0.5-0.1,0.8-0.4,1.3-0.5c0.5-0.1,1,0,1.3-0.4
			C545.6,224.6,545.6,224.2,545.5,223.8z"/>
		<path class="st15" d="M546.8,228.8c-0.7,0.2-1.4,0.6-2.2,0.8c-0.8,0.2-1.7,0.3-2.6,0.3c-0.8,0-1.7,0-2.5-0.1
			c-0.7-0.1-1.5-0.2-2.1-0.7c-0.2-0.2-0.4,0.2-0.3,0.3c0.6,0.6,1.2,0.9,2,1.1c0.9,0.2,1.9,0.2,2.8,0.3c1,0,1.9,0,2.9-0.3
			c0.9-0.2,1.7-0.6,2.1-1.4C547.1,229,547,228.8,546.8,228.8z"/>
	</g>
</g>
<g>
	<path class="st11" d="M380.9,454.3c0,0-28.7,16.8-47.5,26.6c-2.9,1.5-5.5,2.8-7.8,3.9c0,0-20.8,62.8-30.3,90.1H156.1
		c16-28.2,69.9-140.4,77-174.4c9.8-46.7,69.6-19.4,69.6-19.4l40.4,37.8l13.7,12.9L380.9,454.3z"/>
	<path class="st12" d="M276.1,451.1c0,0,12.3-15.5,12.3-45.2l2.7,31.9C291.2,437.7,289,448.6,276.1,451.1z"/>
	<path class="st11" d="M447.6,252.1c-15-9.9-97.3,64.3-125.8,90.7c-20.8,17.7-31.5-20.4-51.3-8.4c-17.7,14.8,9.3,39.4,12.9,57.6
		c-1.8,8,35.1,9.4,40.4,14.5c49.3,17,56.7,32.4,62.5,27.5c8.6-8.3,13.9-24.6,8.8-31.4c-6.2-9.8-4.6-2-7.9-14.7
		c-4.6-16.1-13.7-44.9-12.3-42.4C435.5,285.7,467.9,265.6,447.6,252.1z"/>
	<g>
		<path class="st19" d="M288.4,391V265.8c0-39.2,31.8-71,71-71h0c39.2,0,71,31.8,71,71V391c0,39.2-31.8,71-71,71h0
			C320.2,462,288.4,430.2,288.4,391z"/>
		<path class="st20" d="M294.7,391V265.8c0-35.8,29-64.8,64.8-64.8h0c35.8,0,64.8,29,64.8,64.8V391c0,35.8-29,64.8-64.8,64.8h0
			C323.7,455.8,294.7,426.8,294.7,391z"/>
		<path class="st2" d="M421.8,212.7V444c0,1.6-0.4,3.1-1.1,4.5c-1,1.8-2.6,3.3-4.5,4.1c-0.3,0.1-0.6,0.2-0.9,0.3
			c-0.9,0.3-1.8,0.4-2.8,0.4H306.4c-0.8,0-1.6-0.1-2.3-0.3c-0.2-0.1-0.5-0.1-0.8-0.2c-3.7-1.3-6.3-4.7-6.3-8.8V212.7
			c0-5.1,4.2-9.3,9.3-9.3h106.1C417.6,203.4,421.8,207.6,421.8,212.7z"/>
	</g>
	<path class="st11" d="M284.8,432.6c-7.2,29.8-44.8,54.1-56.5,20.8c-14.6-39.9,13.5-112.1,45.9-152.6c0.2-0.3,0.5-0.7,0.7-1
		c0.3-0.5,0.6-0.9,0.9-1.4c4.1-6,7.1-11.1,9.8-14.1c0.4-0.4,0.8-0.8,1.2-1.1c2.5-2.2,4.9-2.3,8,0.6c14.9,13.8-9.2,49-9.1,66.4
		C284.8,378.4,292.2,402.1,284.8,432.6z"/>
	<path class="st18" d="M399.4,251.1h-79.6c-8.9,0-16.1-7.2-16.1-16.1v0c0-8.9,7.2-16.1,16.1-16.1h79.6c8.9,0,16.1,7.2,16.1,16.1v0
		C415.5,243.9,408.3,251.1,399.4,251.1z"/>
	<path class="st2" d="M329.7,234.9c0,3.3-1.5,6.3-4,8.3c-1.8,1.5-4.2,2.4-6.7,2.4c-2.5,0-4.8-0.8-6.6-2.3c-2.5-2-4.1-5-4.1-8.4
		c0-5.9,4.8-10.7,10.7-10.7C324.9,224.2,329.7,229,329.7,234.9z"/>
	<circle class="st21" cx="404.8" cy="234.9" r="4.4"/>
	<g>
		<path class="st2" d="M365,228.7h-29.1c-0.7,0-1.2-0.5-1.2-1.2c0-0.7,0.5-1.2,1.2-1.2H365c0.7,0,1.2,0.5,1.2,1.2
			C366.2,228.2,365.7,228.7,365,228.7z"/>
	</g>
	<g>
		<path class="st2" d="M392.6,236.1h-56.7c-0.7,0-1.2-0.5-1.2-1.2c0-0.7,0.5-1.2,1.2-1.2h56.7c0.7,0,1.2,0.5,1.2,1.2
			C393.8,235.6,393.3,236.1,392.6,236.1z"/>
	</g>
	<g>
		<path class="st2" d="M392.6,243.6h-56.7c-0.7,0-1.2-0.5-1.2-1.2c0-0.7,0.5-1.2,1.2-1.2h56.7c0.7,0,1.2,0.5,1.2,1.2
			C393.8,243,393.3,243.6,392.6,243.6z"/>
	</g>
	<g>
		<path class="st0" d="M404.6,237.3c-0.1,0-0.2,0-0.3-0.1l-2.2-1.9c-0.2-0.1-0.2-0.4-0.1-0.6c0.1-0.2,0.4-0.2,0.6-0.1l2,1.6l2.6-2.9
			c0.2-0.2,0.4-0.2,0.6,0c0.2,0.2,0.2,0.4,0,0.6l-2.9,3.1C404.8,237.2,404.7,237.3,404.6,237.3z"/>
	</g>
	<path class="st7" d="M325.7,243.2c-1.8,1.5-4.2,2.4-6.7,2.4c-2.5,0-4.8-0.8-6.6-2.3c0.5-2.3,1.7-5.3,4.4-6.3
		c-1.1-0.7-1.9-2-1.9-3.4c0-2.3,1.8-4.1,4.1-4.1c2.3,0,4.1,1.8,4.1,4.1c0,1.4-0.7,2.7-1.8,3.4C324.2,238,325.3,240.9,325.7,243.2z"
		/>
	<path class="st18" d="M399.4,295.6h-79.6c-8.9,0-16.1-7.2-16.1-16.1v0c0-8.9,7.2-16.1,16.1-16.1h79.6c8.9,0,16.1,7.2,16.1,16.1v0
		C415.5,288.4,408.3,295.6,399.4,295.6z"/>
	<path class="st2" d="M329.7,279.4c0,3.3-1.5,6.3-4,8.3c-1.8,1.5-4.2,2.4-6.7,2.4c-2.5,0-4.8-0.8-6.6-2.3c-2.5-2-4.1-5-4.1-8.4
		c0-5.9,4.8-10.7,10.7-10.7C324.9,268.7,329.7,273.5,329.7,279.4z"/>
	<circle class="st21" cx="404.8" cy="279.4" r="4.4"/>
	<g>
		<path class="st2" d="M365,273.2h-29.1c-0.7,0-1.2-0.5-1.2-1.2c0-0.7,0.5-1.2,1.2-1.2H365c0.7,0,1.2,0.5,1.2,1.2
			C366.2,272.7,365.7,273.2,365,273.2z"/>
	</g>
	<g>
		<path class="st2" d="M392.6,280.6h-56.7c-0.7,0-1.2-0.5-1.2-1.2c0-0.7,0.5-1.2,1.2-1.2h56.7c0.7,0,1.2,0.5,1.2,1.2
			C393.8,280.1,393.3,280.6,392.6,280.6z"/>
	</g>
	<g>
		<path class="st2" d="M392.6,288.1h-56.7c-0.7,0-1.2-0.5-1.2-1.2s0.5-1.2,1.2-1.2h56.7c0.7,0,1.2,0.5,1.2,1.2
			S393.3,288.1,392.6,288.1z"/>
	</g>
	<g>
		<path class="st0" d="M404.6,281.8c-0.1,0-0.2,0-0.3-0.1l-2.2-1.9c-0.2-0.1-0.2-0.4-0.1-0.6c0.1-0.2,0.4-0.2,0.6-0.1l2,1.6l2.6-2.9
			c0.2-0.2,0.4-0.2,0.6,0c0.2,0.2,0.2,0.4,0,0.6l-2.9,3.1C404.8,281.7,404.7,281.8,404.6,281.8z"/>
	</g>
	<path class="st1" d="M325.7,287.7c-1.8,1.5-4.2,2.4-6.7,2.4c-2.5,0-4.8-0.8-6.6-2.3c0.5-2.3,1.7-5.3,4.4-6.3
		c-1.1-0.7-1.9-2-1.9-3.4c0-2.3,1.8-4.1,4.1-4.1c2.3,0,4.1,1.8,4.1,4.1c0,1.4-0.7,2.7-1.8,3.4C324.2,282.5,325.3,285.4,325.7,287.7z
		"/>
	<path class="st18" d="M399.4,340.1h-79.6c-8.9,0-16.1-7.2-16.1-16.1v0c0-8.9,7.2-16.1,16.1-16.1h79.6c8.9,0,16.1,7.2,16.1,16.1v0
		C415.5,332.9,408.3,340.1,399.4,340.1z"/>
	<path class="st2" d="M329.7,323.9c0,3.3-1.5,6.3-4,8.3c-1.8,1.5-4.2,2.4-6.7,2.4c-2.5,0-4.8-0.8-6.6-2.3c-2.5-2-4.1-5-4.1-8.4
		c0-5.9,4.8-10.7,10.7-10.7C324.9,313.2,329.7,318,329.7,323.9z"/>
	<circle class="st21" cx="404.8" cy="323.9" r="4.4"/>
	<g>
		<path class="st2" d="M365,317.7h-29.1c-0.7,0-1.2-0.5-1.2-1.2s0.5-1.2,1.2-1.2H365c0.7,0,1.2,0.5,1.2,1.2S365.7,317.7,365,317.7z"
			/>
	</g>
	<g>
		<path class="st2" d="M392.6,325.1h-56.7c-0.7,0-1.2-0.5-1.2-1.2c0-0.7,0.5-1.2,1.2-1.2h56.7c0.7,0,1.2,0.5,1.2,1.2
			C393.8,324.6,393.3,325.1,392.6,325.1z"/>
	</g>
	<g>
		<path class="st2" d="M392.6,332.6h-56.7c-0.7,0-1.2-0.5-1.2-1.2c0-0.7,0.5-1.2,1.2-1.2h56.7c0.7,0,1.2,0.5,1.2,1.2
			C393.8,332,393.3,332.6,392.6,332.6z"/>
	</g>
	<g>
		<path class="st0" d="M404.6,326.3c-0.1,0-0.2,0-0.3-0.1l-2.2-1.9c-0.2-0.1-0.2-0.4-0.1-0.6c0.1-0.2,0.4-0.2,0.6-0.1l2,1.6l2.6-2.9
			c0.2-0.2,0.4-0.2,0.6,0c0.2,0.2,0.2,0.4,0,0.6l-2.9,3.1C404.8,326.2,404.7,326.3,404.6,326.3z"/>
	</g>
	<path class="st7" d="M325.7,332.2c-1.8,1.5-4.2,2.4-6.7,2.4c-2.5,0-4.8-0.8-6.6-2.3c0.5-2.3,1.7-5.3,4.4-6.3
		c-1.1-0.7-1.9-2-1.9-3.4c0-2.3,1.8-4.1,4.1-4.1c2.3,0,4.1,1.8,4.1,4.1c0,1.4-0.7,2.7-1.8,3.4C324.2,327,325.3,329.9,325.7,332.2z"
		/>
	<path class="st18" d="M399.4,384.6h-79.6c-8.9,0-16.1-7.2-16.1-16.1v0c0-8.9,7.2-16.1,16.1-16.1h79.6c8.9,0,16.1,7.2,16.1,16.1v0
		C415.5,377.4,408.3,384.6,399.4,384.6z"/>
	<path class="st2" d="M329.7,368.4c0,3.3-1.5,6.3-4,8.3c-1.8,1.5-4.2,2.4-6.7,2.4c-2.5,0-4.8-0.8-6.6-2.3c-2.5-2-4.1-5-4.1-8.4
		c0-5.9,4.8-10.7,10.7-10.7C324.9,357.7,329.7,362.5,329.7,368.4z"/>
	<circle class="st2" cx="404.8" cy="368.4" r="4.4"/>
	<g>
		<path class="st2" d="M365,362.2h-29.1c-0.7,0-1.2-0.5-1.2-1.2s0.5-1.2,1.2-1.2H365c0.7,0,1.2,0.5,1.2,1.2S365.7,362.2,365,362.2z"
			/>
	</g>
	<g>
		<path class="st2" d="M392.6,369.6h-56.7c-0.7,0-1.2-0.5-1.2-1.2s0.5-1.2,1.2-1.2h56.7c0.7,0,1.2,0.5,1.2,1.2
			S393.3,369.6,392.6,369.6z"/>
	</g>
	<g>
		<path class="st2" d="M392.6,377.1h-56.7c-0.7,0-1.2-0.5-1.2-1.2s0.5-1.2,1.2-1.2h56.7c0.7,0,1.2,0.5,1.2,1.2
			S393.3,377.1,392.6,377.1z"/>
	</g>
	<path class="st1" d="M325.7,376.7c-1.8,1.5-4.2,2.4-6.7,2.4c-2.5,0-4.8-0.8-6.6-2.3c0.5-2.3,1.7-5.3,4.4-6.3
		c-1.1-0.7-1.9-2-1.9-3.4c0-2.3,1.8-4.1,4.1-4.1c2.3,0,4.1,1.8,4.1,4.1c0,1.4-0.7,2.7-1.8,3.4C324.2,371.5,325.3,374.4,325.7,376.7z
		"/>
	<path class="st18" d="M399.4,429.1h-79.6c-8.9,0-16.1-7.2-16.1-16.1v0c0-8.9,7.2-16.1,16.1-16.1h79.6c8.9,0,16.1,7.2,16.1,16.1v0
		C415.5,421.9,408.3,429.1,399.4,429.1z"/>
	<path class="st2" d="M329.7,412.9c0,3.3-1.5,6.3-4,8.3c-1.8,1.5-4.2,2.4-6.7,2.4c-2.5,0-4.8-0.8-6.6-2.3c-2.5-2-4.1-5-4.1-8.4
		c0-5.9,4.8-10.7,10.7-10.7C324.9,402.2,329.7,407,329.7,412.9z"/>
	<circle class="st2" cx="404.8" cy="412.9" r="4.4"/>
	<g>
		<path class="st2" d="M365,406.7h-29.1c-0.7,0-1.2-0.5-1.2-1.2s0.5-1.2,1.2-1.2H365c0.7,0,1.2,0.5,1.2,1.2S365.7,406.7,365,406.7z"
			/>
	</g>
	<g>
		<path class="st2" d="M392.6,414.1h-56.7c-0.7,0-1.2-0.5-1.2-1.2c0-0.7,0.5-1.2,1.2-1.2h56.7c0.7,0,1.2,0.5,1.2,1.2
			C393.8,413.6,393.3,414.1,392.6,414.1z"/>
	</g>
	<g>
		<path class="st2" d="M392.6,421.6h-56.7c-0.7,0-1.2-0.5-1.2-1.2s0.5-1.2,1.2-1.2h56.7c0.7,0,1.2,0.5,1.2,1.2
			S393.3,421.6,392.6,421.6z"/>
	</g>
	<path class="st7" d="M325.7,421.2c-1.8,1.5-4.2,2.4-6.7,2.4c-2.5,0-4.8-0.8-6.6-2.3c0.5-2.3,1.7-5.3,4.4-6.3
		c-1.1-0.7-1.9-2-1.9-3.4c0-2.3,1.8-4.1,4.1-4.1c2.3,0,4.1,1.8,4.1,4.1c0,1.4-0.7,2.7-1.8,3.4C324.2,416,325.3,418.9,325.7,421.2z"
		/>
	<path class="st11" d="M409.4,341.9c3-21.9,54.9-35.3,41.8-2.6c0.1,0,12.7,12.1,0.4,29.3c34.7,39.6-58.4,56.9-27.7,17
		c0,0-26.2-8.3-1.4-30.8C422.5,354.7,407.9,355.4,409.4,341.9z"/>
	<g>
		<path class="st12" d="M424.5,354.6c-0.3,0-0.6-0.2-0.7-0.4c-0.2-0.4-0.1-0.9,0.3-1.1l24.9-13.6c0.4-0.2,0.9-0.1,1.1,0.3
			c0.2,0.4,0.1,0.9-0.3,1.1l-24.9,13.6C424.8,354.5,424.6,354.6,424.5,354.6z"/>
	</g>
	<g>
		<path class="st12" d="M425.7,385c-0.3,0-0.5-0.1-0.7-0.4c-0.2-0.4-0.1-0.9,0.3-1.1l24.4-14.4c0.4-0.2,0.9-0.1,1.1,0.3
			c0.2,0.4,0.1,0.9-0.3,1.1l-24.4,14.4C426,384.9,425.9,385,425.7,385z"/>
	</g>
</g>
<path class="st11" d="M463.3,529.8c-3.9,23.7-9.7,34.2-9.7,34.2v10.9H344.3c0,0,3-15.9,0.8-24c-2-7.4-13.8-42.3-11.8-70
	c0.2-2.8,0.5-5.6,0.9-8.5c3.5-24.2,12.9-34.7,20-39.2c0.9-0.6,1.7-1,2.5-1.4c3.3-1.6,5.6-1.9,6-1.9c0,0,0.1,0,0.1,0s5.4-42.5,6-50.1
	c0.5-7.6,2.3-60.2,14.7-62.6c14.7-3,16.9,13.1,13.6,53.4c-3.3,40.3-2.7,47.4-2.7,47.4s17.4-4.9,27.2,6c0,0,13.6-3.3,21.8,8.7
	c0,0,17.4-5,25.6,11.9C477.3,461.4,465.5,516.4,463.3,529.8z"/>
<path class="st12" d="M356.8,470c0.2-19.8-1.2-31-2.5-36.9c4.5-2.9,8.1-3.3,8.6-3.4L356.8,470z"/>
<path class="st7" d="M232.4,309.3c0,0-3.7,25.4-25,36v17.4c0,5.9-2.3,11.3-6.1,15.4c-2.2,2.4-5,4.4-8.1,5.6c-2,0.8-4.1,1.4-6.4,1.5
	c-0.1,0-0.2,0-0.3,0c-0.2,0-0.4,0-0.7,0c-0.4,0-0.8,0-1.1,0h-80.9c-2.2,0-4.4-0.3-6.4-0.9c-0.7-0.2-1.4-0.5-2.1-0.7
	c-8.3-3.4-14.1-11.5-14.1-21v-28.9c0-12.5,10.2-22.7,22.7-22.7h80.9c10.7,0,19.7,7.5,22,17.5C213.4,326.9,223.9,322.1,232.4,309.3z"
	/>
<path class="st7" d="M628.5,409.2v28.9c0,5.9-2.3,11.3-6,15.4c-3.7,4-8.8,6.6-14.5,7.1c-0.1,0-0.2,0-0.3,0h0c-0.2,0-0.4,0-0.6,0
	c-0.4,0-0.8,0-1.2,0h-80.9c-1.7,0-3.3-0.2-4.8-0.5c-1.3-0.3-2.5-0.7-3.7-1.1c-8.3-3.4-14.1-11.5-14.1-21v-6.8
	c-24.2-9.5-28.3-37.5-28.3-37.5c9.8,14.7,22.1,18.8,28.3,20v-4.7c0-12.5,10.2-22.7,22.7-22.7h80.9
	C618.4,386.5,628.5,396.7,628.5,409.2z"/>
<g>
	<path class="st8" d="M596.3,446.5c-0.6,1.2-1.3,2.2-2.1,3.2c-1,1.2-2.1,2.3-3.3,3.3v0c-3,2.5-6.6,4.3-10.3,5.6
		c-2.9,1-5.9,1.6-8.9,2.1h-21.8c-4.3-1.4-8.6-4-12-7.1c-1.6-1.5-3-3-4.1-4.7c-0.5-0.8-1-1.7-1.4-2.6c-1.3-2.9-1.6-6.3,0-9.3
		c2.3-4.4,7.1-7.3,9.1-11.8c1.4-3,0.9-6.6,0.6-9.9c-0.4-6.3-0.6-15.4,3.4-20.6c2.6-3.3,5.5-6.2,9-8.2c1.8-1,3.7-1.8,5.9-2.2
		c1.5-0.3,3-0.5,4.5-0.5c3.1,0,6.2,1.1,9.1,2.7c3.5,2,6.5,4.8,8.6,7.9c4.5,6.5,5,14.9,4.7,22.8c-0.1,2.4-0.3,4.9,0.1,7.2
		c0.4,2.4,1.5,4.8,3.4,6.2c2.7,2,5.2,3.9,6.4,7.4C598.2,440.8,597.6,443.8,596.3,446.5z"/>
	<path class="st11" d="M593.6,460.7h-58.2c0.4-1.5,0.9-2.9,1.4-4.1c0.3-0.9,0.7-1.9,1.1-3c0,0,0-0.1,0-0.1
		c1.7-4.5,3.7-10.1,3.7-10.1s3.4-0.3,6.6-1c0.6-0.1,1.1-0.3,1.6-0.4c0.3-0.1,0.7-0.2,1-0.3c0.1,0,0.3-0.1,0.4-0.1
		c1.2-0.5,2.2-1.2,2.8-2.2c0.9-1.5,1.7-3.1,2.1-4.8c0.1-0.6,0.2-1.1,0.3-1.6c0.1-0.4,0.1-0.8,0.2-1.2c0-0.3,0.1-0.5,0.1-0.8
		c0-0.2,0-0.3,0-0.5c0-0.4,0-0.7,0-1c0-0.3,0-0.6,0-0.8c0-0.2,0-0.3,0-0.5c0-0.1,0-0.3,0-0.3c0-0.1,0-0.2,0-0.2l16.3-2.2h0
		c0,0,0,0,0,0.1c0,0,0,0.1,0,0.1c0,0.2,0,0.6-0.1,1.1c0,0,0,0.1,0,0.1c0,0,0,0,0,0c0,0.1,0,0.3,0,0.5c0,0.2,0,0.4,0,0.6
		c0,0.6,0,1.2,0,1.9v0c0.1,4,0.8,9.4,3.8,10.8c0.4,0.2,0.8,0.3,1.2,0.3c0.2,0,0.4,0,0.6,0c0.1,0,0.3,0,0.4,0c0.2,0,0.5,0,0.7,0.1
		c3.6,0.3,8,0.9,8,0.9s1.3,4.8,3.4,11.1v0C591.7,455.4,592.6,458.1,593.6,460.7z"/>
	<path class="st12" d="M556.1,434.6c1.6,0.7,3.4,1.1,5.6,1.1c5,0,8.6-2.7,11.2-5.8c-0.1-2.5,0.1-4.5,0.1-4.5l-16.3,2.2
		C556.6,427.6,556.9,430.9,556.1,434.6z"/>
	<path class="st11" d="M577.5,412.4c0,0,2.6-2.5,4.2-0.7s-0.2,10.4-5.9,9.9L577.5,412.4z"/>
	<path class="st11" d="M547.4,415.3c0,0.4-0.1,17.3,14.2,17.3c10.4,0,15-11.6,15.8-14.6c0.4-1.6,0.6-3.1,0.7-4.4c0-0.6,0-1.1,0-1.5
		c0-2.8-0.7-4.3-0.7-4.3c-6-2.9-11.5-6.3-15.6-11.4c-1.5,1.1-2.6,2.3-4.3,3.1c-1.7,0.8-3.5,1.4-5.2,2.1c-2.3,0.9-4,2.3-4.4,4.7
		C547.4,409.3,547.3,411.7,547.4,415.3z"/>
	<path class="st6" d="M563.7,417.3C563.7,417.3,563.7,417.3,563.7,417.3C563.7,417.3,563.7,417.3,563.7,417.3z"/>
	<path class="st22" d="M555,410.5c-0.1,0-0.1,0-0.2,0c-0.8,0.1-0.9,1.2-0.7,1.9c0.1,0.3,0.3,0.6,0.7,0.6c0.4,0,0.7-0.3,0.8-0.6
		C555.8,411.7,555.9,410.5,555,410.5z"/>
	<path class="st22" d="M567.4,411.1c-0.1,0-0.1,0-0.2,0c-0.8,0.1-0.9,1.2-0.7,1.9c0.1,0.3,0.3,0.6,0.7,0.6c0.4,0,0.7-0.3,0.8-0.6
		C568.2,412.3,568.3,411.1,567.4,411.1z"/>
	<path class="st12" d="M559.8,414.3c0.3-0.8,0.2-1.9,0.7-2.6c0,0,0.1,0,0.1,0c0.7,0.6,0.4,1.9,0.1,2.7c-0.2,0.6-0.4,1.1-0.6,1.7
		c-0.1,0.2-0.4,0.8-0.4,1c0.2,0.6,1.2,0.5,1.6,0.4c0.6-0.1,0.7,0.9,0.1,1c-0.9,0.1-2.8-0.2-2.6-1.4
		C558.8,416.1,559.5,415.2,559.8,414.3z"/>
	<path class="st12" d="M579.2,414.1c0.2-0.1,0.5,0.3,0.3,0.4c-0.5,0.5-1.1,0.9-1.5,1.5c0.5,0,1,0,1.4,0.2c0.3,0.1,0.3,0.6-0.1,0.7
		c-0.6,0-1.3,0.2-1.9,0.1c-0.2,0.4-0.4,0.8-0.6,1.2c-0.2,0.4-0.8,0.2-0.7-0.2C576.4,416.3,577.8,414.7,579.2,414.1z"/>
	<path class="st12" d="M558.2,422.4c1.2,0,2.3,0,3.5-0.1c1.3-0.1,2.3-0.5,3.5-1c0.2-0.1,0.4,0.1,0.3,0.3c-1.3,1.9-5.5,2.4-7.4,1.5
		C557.7,422.9,557.8,422.4,558.2,422.4z"/>
	<path class="st8" d="M566,407c0.6-0.4,1.4-0.2,2.1-0.1c0.9,0.1,1.8,0.4,2.5,0.8c0.4,0.2,0.1,0.9-0.3,0.8c-0.8-0.2-1.5-0.5-2.3-0.6
		c-0.7-0.1-1.4,0-2-0.4C565.9,407.3,565.9,407.1,566,407z"/>
	<path class="st8" d="M552.9,406.1c1.3-0.5,2.9-0.6,4.2,0c0.6,0.2,0.4,1.2-0.3,1c-0.6-0.2-1.2-0.3-1.8-0.4c-0.7-0.1-1.4,0-2.1,0
		C552.6,406.7,552.6,406.2,552.9,406.1z"/>
	<path class="st1" d="M607.6,460.6c-0.2,0-0.4,0-0.6,0c-0.4,0-0.8,0-1.2,0h-80.9c-1.7,0-3.3-0.2-4.8-0.5c3.6-7.6,8.2-11.8,12.3-13.9
		c0,0,0,0,0,0c4.3-2.2,9.2-2.8,9.2-2.8s3.4-0.3,6.6-1c0.6-0.1,1.1-0.3,1.6-0.4c0.1,0.5,0.2,0.9,0.5,1.4c0.1,0.3,0.3,0.6,0.6,0.9v0
		c0.3,0.4,0.7,0.9,1.2,1.2c4.6,3.7,15.1,3.7,22-0.6c0.4-0.2,0.7-0.4,1-0.7c0.3-0.2,0.7-0.5,1-0.7c0.9-0.7,1.7-1.6,2.3-2.5
		c0.1-0.1,0.1-0.1,0.2-0.2c5.1,0,8.9,1.2,8.9,1.2c3.2,1,6.2,2.6,8.8,4.6C601,450.1,604.7,455.1,607.6,460.6z"/>
	<path class="st2" d="M550.9,441.8c-0.1-0.2-0.2-0.4-0.4-0.6c-0.1-0.1-0.2-0.1-0.3-0.2c-0.2-0.1-0.4-0.2-0.7-0.2
		c-0.2,0-0.4,0-0.5,0.1c-0.2,0.1-0.3,0.2-0.4,0.3c-0.1,0.1-0.2,0.3-0.3,0.4c-0.1,0.2-0.1,0.3-0.1,0.5c0,0.1,0,0.2,0,0.4
		c0.1,0.2,0.2,0.4,0.4,0.6c0.1,0.1,0.2,0.1,0.3,0.2c0.2,0.1,0.4,0.2,0.7,0.2c0.2,0,0.4,0,0.5-0.1c0.2-0.1,0.3-0.2,0.4-0.3
		c0.1-0.1,0.2-0.3,0.3-0.4c0.1-0.2,0.1-0.3,0.1-0.5C550.9,442,550.9,441.9,550.9,441.8z"/>
	<path class="st2" d="M552.1,445.2c-0.1-0.2-0.2-0.4-0.4-0.6c-0.1-0.1-0.2-0.1-0.3-0.2c-0.2-0.1-0.4-0.2-0.7-0.2
		c-0.2,0-0.4,0-0.5,0.1c-0.2,0.1-0.3,0.2-0.4,0.3c-0.1,0.1-0.2,0.3-0.3,0.4c-0.1,0.2-0.1,0.3-0.1,0.5c0,0.1,0,0.2,0,0.4
		c0.1,0.2,0.2,0.4,0.4,0.6c0.1,0.1,0.2,0.1,0.3,0.2c0.2,0.1,0.4,0.2,0.7,0.2c0.2,0,0.4,0,0.5-0.1c0.2-0.1,0.3-0.2,0.4-0.3
		c0.1-0.1,0.2-0.3,0.3-0.4c0.1-0.2,0.1-0.3,0.1-0.5C552.1,445.5,552.1,445.3,552.1,445.2z"/>
	<path class="st2" d="M554.6,448.2c-0.1-0.3-0.2-0.5-0.4-0.7c-0.1-0.1-0.2-0.2-0.3-0.2c-0.2-0.1-0.5-0.2-0.8-0.2
		c-0.2,0-0.4,0-0.6,0.1c-0.2,0.1-0.4,0.2-0.5,0.3c-0.2,0.1-0.3,0.3-0.3,0.5c-0.1,0.2-0.1,0.4-0.1,0.6c0,0.1,0,0.3,0.1,0.4
		c0.1,0.3,0.2,0.5,0.4,0.7c0.1,0.1,0.2,0.2,0.3,0.2c0.2,0.1,0.5,0.2,0.8,0.2c0.2,0,0.4,0,0.6-0.1c0.2-0.1,0.4-0.2,0.5-0.3
		c0.2-0.1,0.3-0.3,0.3-0.5c0.1-0.2,0.1-0.4,0.1-0.6C554.6,448.5,554.6,448.3,554.6,448.2z"/>
	<path class="st2" d="M558.3,450.4c-0.1-0.3-0.2-0.5-0.4-0.8c-0.1-0.1-0.2-0.2-0.3-0.3c-0.3-0.2-0.6-0.2-0.9-0.2
		c-0.2,0-0.5,0-0.7,0.1c-0.2,0.1-0.4,0.2-0.6,0.4c-0.2,0.2-0.3,0.3-0.4,0.6c-0.1,0.2-0.2,0.4-0.1,0.7l0.1,0.5
		c0.1,0.3,0.2,0.5,0.4,0.8c0.1,0.1,0.2,0.2,0.3,0.3c0.3,0.2,0.6,0.2,0.9,0.2c0.2,0,0.5,0,0.7-0.1c0.2-0.1,0.4-0.2,0.6-0.4
		c0.2-0.2,0.3-0.3,0.4-0.6c0.1-0.2,0.2-0.4,0.1-0.7C558.3,450.7,558.3,450.6,558.3,450.4z"/>
	<path class="st2" d="M560.5,450.9c-1.8,0-1.8,2.8,0,2.8C562.3,453.7,562.3,450.9,560.5,450.9z"/>
	<path class="st2" d="M564.8,450.9c-2.1,0-2.1,3.3,0,3.3C566.9,454.2,566.9,450.9,564.8,450.9z"/>
	<path class="st2" d="M570.9,450.9c-0.1-0.3-0.2-0.5-0.4-0.7c-0.1-0.1-0.2-0.2-0.3-0.3c-0.3-0.2-0.5-0.2-0.9-0.2
		c-0.2,0-0.4,0-0.6,0.1c-0.2,0.1-0.4,0.2-0.5,0.3c-0.2,0.2-0.3,0.3-0.3,0.5c-0.1,0.2-0.2,0.4-0.1,0.6c0,0.1,0,0.3,0.1,0.4
		c0.1,0.3,0.2,0.5,0.4,0.7l0.3,0.3c0.3,0.2,0.5,0.2,0.9,0.2c0.2,0,0.4,0,0.6-0.1c0.2-0.1,0.4-0.2,0.5-0.3c0.2-0.2,0.3-0.3,0.3-0.5
		c0.1-0.2,0.2-0.4,0.1-0.6L570.9,450.9z"/>
	<path class="st2" d="M574.4,448.8c-0.1-0.3-0.2-0.5-0.4-0.7c-0.1-0.1-0.2-0.2-0.3-0.3c-0.3-0.1-0.5-0.2-0.8-0.2
		c-0.2,0-0.4,0-0.6,0.1c-0.2,0.1-0.4,0.2-0.5,0.3c-0.2,0.1-0.3,0.3-0.3,0.5c-0.1,0.2-0.1,0.4-0.1,0.6c0,0.1,0,0.3,0.1,0.4
		c0.1,0.3,0.2,0.5,0.4,0.7c0.1,0.1,0.2,0.2,0.3,0.3c0.3,0.1,0.5,0.2,0.8,0.2c0.2,0,0.4,0,0.6-0.1c0.2-0.1,0.4-0.2,0.5-0.3
		c0.2-0.1,0.3-0.3,0.3-0.5c0.1-0.2,0.1-0.4,0.1-0.6C574.5,449.1,574.4,449,574.4,448.8z"/>
	<path class="st2" d="M575.5,444.2c-2.2,0-2.2,3.5,0,3.5C577.8,447.7,577.8,444.2,575.5,444.2z"/>
	<path class="st2" d="M577.5,440.4c-2.4,0-2.4,3.7,0,3.7C579.8,444.1,579.8,440.4,577.5,440.4z"/>
</g>
<g>
	<path class="st1" d="M193.2,383.7c-2,0.8-4.1,1.4-6.4,1.5c-0.1,0-0.2,0-0.3,0c-0.2,0-0.4,0-0.7,0c-0.4,0-0.8,0-1.1,0H178l0.7-12.7
		l0.3-4.8C184.2,370.4,189.1,376.7,193.2,383.7z"/>
	<path class="st1" d="M112.1,385.4h-8.4c-2.2,0-4.4-0.3-6.4-0.9c5-11.6,10.1-15.2,12.2-16.2c0.6-0.3,0.9-0.4,0.9-0.4l1.1,11.7
		L112.1,385.4z"/>
	<polygon class="st11" points="158.1,365.9 156,372.5 156,372.5 151.8,385.4 136.8,385.4 131.7,373.4 131,371.6 129.7,364.8 
		133.2,364.1 133.2,364.1 134.2,363.9 134.6,360.6 135.1,355.1 135.2,353.9 135.3,353.3 135.4,352 135.5,351.3 141.2,351.5 
		146.5,351.7 148.7,351.8 148.7,351.8 151.6,351.8 152.2,357.2 152.5,360 152.8,362.3 153.1,364.6 153.9,364.8 154.3,364.9 	"/>
	<path class="st12" d="M152.5,360.1c-1.2,0.3-2.6,0.4-4.3,0.4c-6.3,0-10.5-2.2-13.2-5.4l0.4-3.8l16.2,0.5L152.5,360.1z"/>
	<path class="st13" d="M152.6,339c-1.4,0.6-2.8,1.3-4.1,2.3c-2.1,1.7-3.8,3.8-5.8,5.5c-2.4,1.9-5.2,6.4-8.5,2.6
		c-1.1-1.3-1.6-3-2.7-4.3c-1.5-1.9-3.7-2.7-4.5-5.1c-1.3-4-2.2-8.2-2.3-12.4c0-3.3,0.3-7.4,3.9-8.9c0.4-0.2,0.9-0.3,1.3-0.6
		c0.5-0.3,0.9-0.9,1.2-1.4c2.6-3.7,6.7-6.3,11.2-7.1c4.6-0.8,9.5,0.4,14.1-0.6c0.6-0.1,1.3-0.3,1.9-0.2c0.5,0.1,0.9,0.5,1.3,0.9
		c2.2,2.2,3.5,5.2,3.6,8.2c0.1,1.9-0.2,3.8-0.9,5.5c-0.6,1.5-2,2.7-2.1,4.3c-0.1,1.6,0,3.3-0.2,4.9c-0.2,1.3-0.8,2-1.7,2.9
		C156.6,337.3,154.6,338.1,152.6,339z"/>
	<path class="st11" d="M162.1,340.2c0,0.5-0.6,7.4-4.1,12.4c-1.9,2.8-4.8,5-9,5.2c-2.9,0.1-5.4-0.4-7.5-1.2
		c-7.2-3-10.2-10.6-10.8-13.8c-1-5-3.1-13.6-2.3-18.7c0,0,0,0,0-0.1c0.9-3.8,3.6-4.8,6-4.8c1.8,0,3.5,0.6,5.3,1.1
		c3,0.9,6.2,1.4,9.2,0.6c1.5-0.4,3-1.1,4.5-1.2c2-0.2,5-0.1,6.2,1.4c1.2,1.5,1.4,3.7,1.9,6.9c0,0,0,0,0,0
		C162.1,332,162.5,336.6,162.1,340.2z"/>
	<path class="st22" d="M142.2,334.4c-0.1,0-0.1,0-0.2,0c-0.8,0.1-0.9,1.3-0.6,1.9c0.1,0.3,0.4,0.6,0.7,0.6c0.4,0,0.6-0.3,0.8-0.7
		C143.1,335.6,143.1,334.4,142.2,334.4z"/>
	<path class="st22" d="M155.1,333.6c0.1,0,0.1,0,0.2,0c0.7,0.1,0.8,1.1,0.5,1.6c-0.1,0.3-0.3,0.5-0.6,0.5c-0.3,0-0.6-0.3-0.7-0.6
		C154.3,334.6,154.3,333.6,155.1,333.6z"/>
	<path class="st13" d="M129.5,335c0.2,0.2,0.4,0.5,0.7,0.6c0.4,0.2,0.9,0.1,1.3,0c0.1,0,0.2,0,0.2-0.1c0-0.1,0-0.1,0-0.2
		c0-1.3,0.4-6.7,0.6-8.1c0.3-2,1.3-4.2,3.3-4.9c0.7-0.3,1.5-0.3,2.3-0.4c1.5-0.1,3,0,4.5,0.1c2,0.1,4,0.4,5.9,0
		c1.3-0.3,2.5-0.9,3.8-1.2c1.6-0.3,3.3-0.4,4.8-0.1c1.1,0.2,3.8,0.9,3.9,2.3c0.1,0,0.2-0.1,0.3-0.3c0.2-0.6,0.7-1,0.9-1.6
		c0.4-1,0-2.2-0.6-3.1c-1.7-2.5-4.3-4.7-7.5-4.5c-1.6,0.1-3.1,0.8-4.7,1.3c-2.2,0.7-4.5,0.9-6.8,0.7c-1.9-0.2-5.2-1.5-6.9-0.3
		c-0.5,0.4-0.9,0.8-1.4,1.3c-1.5,1.5-3.4,2.5-4.7,4.2c-1.7,2.1-2,4.9-2.1,7.6c0,1.8-0.8,4.8,1.1,6c0.3,0.2,0.6,0.3,0.8,0.5
		C129.4,334.9,129.4,335,129.5,335z"/>
	<path class="st12" d="M150.1,338.1c-0.2-1.1-0.5-2.3-0.9-3.4c-0.1-0.3-0.6-0.2-0.6,0.2c0.2,1.2,0.5,2.3,0.7,3.5
		c0.1,0.6,0.3,1.1,0.4,1.7c0,0.6-0.3,0.6-0.8,0.4c-0.3-0.1-0.6-0.1-0.9-0.2c-0.4-0.1-0.7,0.5-0.3,0.7c0.7,0.3,2.6,1,2.8-0.3
		C150.7,339.9,150.3,338.8,150.1,338.1z"/>
	<path class="st2" d="M133.2,364.1c0.5,1.1,6.3,14.4,9.6,21.3h-31.7c0.2-2.1,0.3-4,0.4-5.8c0.6-7.4,0.9-11.9,0.9-11.9
		s5.9-1.1,11.4-2.1l0.9-0.2l1.5-0.3c3.2-0.6,5.9-1,6.6-1.1L133.2,364.1L133.2,364.1C133.2,364,133.2,364.1,133.2,364.1L133.2,364.1z
		"/>
	<path class="st2" d="M179.4,385.4h-33c2.2-6,6.3-17,7.4-20.5c0,0,0-0.1,0-0.2l22.1,4.1c0.2,0.1,2.1,2.8,2.7,3.9
		c0.1,0.2,0.2,0.4,0.2,0.4C179,374.5,179.2,379,179.4,385.4z"/>
	<path class="st13" d="M143.9,328.9c-0.3-0.6-1.1-0.5-1.6-0.4c-0.6,0.1-1.2,0.2-1.8,0.3c-0.6,0.1-1.1,0.3-1.7,0.6
		c-0.6,0.2-1.2,0.5-1.6,0.9c-0.1,0.2-0.1,0.6,0.2,0.5c0.5-0.1,1-0.3,1.5-0.5c0.5-0.2,1-0.4,1.6-0.5c0.5-0.1,1.1-0.2,1.6-0.3
		c0.2,0,0.5-0.1,0.7-0.1c0.3,0,0.5,0.1,0.8,0C143.9,329.4,144,329.1,143.9,328.9z"/>
	<path class="st13" d="M158.3,328c-0.2-0.5-0.8-0.7-1.3-0.7c-0.5-0.1-1.1-0.1-1.6,0c-0.6,0.1-1.1,0.1-1.7,0.2
		c-0.5,0.1-1.2,0.1-1.6,0.5c-0.1,0.1-0.1,0.3,0.1,0.4c0.4,0.2,1.1,0.1,1.6,0.1c0.5,0,1-0.1,1.5-0.1c0.5,0,1,0,1.5,0
		c0.5,0,0.9,0.2,1.4,0.1C158.3,328.4,158.4,328.1,158.3,328z"/>
	<path class="st1" d="M133.2,364C133.2,364,133.2,364.1,133.2,364L133.2,364c-0.1,0.3-0.7,4-1.5,9.4c-0.5,3.5-1.1,7.6-1.6,11.9
		h-20.9c0.6-9.1,1.3-17.5,1.3-17.5l13.4-2.3l0.9-0.2l1.5-0.3l6.6-1.1L133.2,364L133.2,364z"/>
	<path class="st1" d="M180.7,385.4h-22.4c-0.8-4.9-1.6-9.4-2.3-12.8v0c-0.9-4.6-1.5-7.5-1.7-7.6c-0.2-0.2-0.4-0.3-0.4-0.3l25.1,3.3
		C179,367.9,179.8,376.2,180.7,385.4z"/>
	<g>
		<path class="st2" d="M141.7,341.1c-3,0-5.4-2.4-5.4-5.4c0-3,2.4-5.4,5.4-5.4s5.4,2.4,5.4,5.4C147.1,338.7,144.7,341.1,141.7,341.1
			z M141.7,330.9c-2.6,0-4.8,2.1-4.8,4.8c0,2.6,2.1,4.8,4.8,4.8c2.6,0,4.8-2.1,4.8-4.8C146.5,333.1,144.3,330.9,141.7,330.9z"/>
	</g>
	<g>
		<path class="st2" d="M155.7,339.8c-3,0-5.4-2.4-5.4-5.4c0-3,2.4-5.4,5.4-5.4s5.4,2.4,5.4,5.4C161.1,337.3,158.7,339.8,155.7,339.8
			z M155.7,329.6c-2.6,0-4.8,2.1-4.8,4.8s2.1,4.8,4.8,4.8c2.6,0,4.8-2.1,4.8-4.8S158.3,329.6,155.7,329.6z"/>
	</g>
	<g>
		<path class="st2" d="M147,336l-0.4-0.5c0.1-0.1,1.6-1.2,4.2-0.4l-0.2,0.6C148.3,334.9,147,336,147,336z"/>
	</g>
	<g>
		
			<rect x="130.2" y="335.1" transform="matrix(0.9977 -6.732804e-02 6.732804e-02 0.9977 -22.282 9.7424)" class="st2" width="6.5" height="0.6"/>
	</g>
	<path class="st11" d="M132,336.4c0,0-3.2-4.3-5.3-2.3c-2.1,2-0.4,12.3,6.7,12.1L132,336.4z"/>
	<path class="st12" d="M130.8,339.5c-0.4-0.7-1-1.7-1.7-2.1c-0.1-0.1-0.3,0-0.2,0.2c0.2,0.7,0.9,1.3,1.3,2c-0.5,0.1-1,0.4-1,0.9
		c0,0.2,0.2,0.3,0.3,0.3c0.4-0.1,0.7-0.2,1.1-0.3c0.3,0.6,0.5,1.2,0.9,1.7c0.1,0.2,0.5,0.1,0.4-0.1
		C131.8,341.2,131.2,340.3,130.8,339.5z"/>
	<path class="st12" d="M146.6,345.7c0.4-0.2,0.9,0,1.3,0.1c0.5,0.2,0.9,0.2,1.4,0.2c0.5,0,1-0.1,1.5-0.2c0.4-0.1,0.9-0.2,1.3-0.4
		c0.2-0.1,0.4,0.1,0.3,0.3c-0.2,0.4-0.8,0.5-1.2,0.6c-0.5,0.2-1.1,0.3-1.7,0.3c-0.5,0-1.1,0-1.6-0.1c-0.5-0.1-1-0.3-1.4-0.6
		C146.5,345.9,146.5,345.8,146.6,345.7z"/>
	<path class="st13" d="M157.4,347c-1-2.8-3.4-4.8-6.4-5c-1.2-0.1-2.5,0-3.7,0.3c-0.7,0.2-1.3,0.4-1.9,0.8c-1.4,0.9-2.5,2.3-3.2,3.8
		c0,0.1-0.1,0.1-0.1,0.2v0c-0.3,0.7-0.5,1.5-0.7,2.2c-0.2,0.7-0.3,1.4-0.3,2.1v0c0,0.6-0.1,1.2-0.1,1.8c0,1.1,0.1,2.2,0.4,3.2
		l0.7,0.3c0.5,0.2,1,0.3,1.5,0.5c0,0,0,0,0,0c0.3,0.1,0.7,0.2,1,0.2c1.1,0.2,2.2,0.3,3.4,0.3c0.3,0,0.6,0,0.9,0c0.3,0,0.5,0,0.8-0.1
		h0.1c0.1,0,0.1,0,0.2,0c0.1,0,0.2,0,0.3,0c0.2,0,0.3-0.1,0.5-0.1c0.1,0,0.1,0,0.2,0c0.1,0,0.2,0,0.3-0.1c0.1,0,0.2,0,0.3-0.1h0
		c0.2,0,0.4-0.1,0.5-0.2h0c0,0,0,0,0,0c0.3-0.1,0.6-0.2,0.8-0.3c0,0,0,0,0.1,0c0.1-0.1,0.3-0.1,0.4-0.2c0.1-0.1,0.2-0.1,0.4-0.2
		c0,0,0,0,0,0c0,0,0,0,0,0c0.3-0.1,0.5-0.3,0.8-0.5c0.1-0.1,0.3-0.2,0.4-0.3c0.2-0.1,0.3-0.2,0.4-0.4c0,0,0,0,0,0
		c0.2-0.2,0.4-0.3,0.6-0.5c0,0,0,0,0,0c0.2-0.2,0.4-0.4,0.6-0.7c0.2-0.2,0.4-0.5,0.6-0.7c0.2-0.2,0.4-0.5,0.6-0.7v0
		C158.1,350.7,158,348.8,157.4,347z M154.1,350.2c-0.2,0.8-1.4,2.1-2.3,1.4c-0.1-0.1-0.3-0.3-0.4-0.4c-0.4-0.5-1.2-0.6-1.8-0.3
		c-0.3,0.2-0.5,0.5-0.8,0.7c-0.1,0-0.1,0.1-0.2,0.1h0c-0.2,0.1-0.3,0.1-0.5,0.2c-0.6,0.2-1.2,0-1.7-0.3c-0.5-0.3-0.9-0.7-1.1-1.2
		c-0.4-0.9-0.9-3.8,0-4.8c0.2-0.3,0.6-0.4,0.9-0.6c0.8-0.4,1.5-0.7,2.3-1.1c0.8-0.4,1.5-0.3,2.3,0c0.6,0.2,1.2,0.5,1.8,0.8
		c0.9,0.4,1.3,1.8,1.5,2.7C154.4,348.4,154.4,349.3,154.1,350.2z"/>
</g>
<path class="st23" d="M604.7,362.6c-2.5-2.6-3.6-6.2-4.1-9.7c-2-12.1,1.6-25.1,9.9-34.2c4.2-4.6,10.1-8.4,16.3-7.8
	c1.6,0.2,3.3,0.6,4.6,1.6c3.7,2.9,3,8.9,0.5,12.9c-2.5,4-6.3,7.2-8.2,11.5c-2.2,4.7-1.9,10.2-2.3,15.4
	C620.7,361.1,613.7,371.8,604.7,362.6z"/>
<g>
	<circle class="st1" cx="520.2" cy="150.6" r="12.6"/>
	<g>
		<g>
			<path class="st2" d="M516.7,147.4c0,0.9-0.4,1.6-0.9,1.6c-0.5,0-0.9-0.7-0.9-1.6c0-0.9,0.4-1.6,0.9-1.6
				C516.3,145.8,516.7,146.5,516.7,147.4z"/>
		</g>
		<g>
			<path class="st2" d="M525.3,147.4c0,0.9-0.4,1.6-0.9,1.6c-0.5,0-0.9-0.7-0.9-1.6c0-0.9,0.4-1.6,0.9-1.6
				C524.9,145.8,525.3,146.5,525.3,147.4z"/>
		</g>
	</g>
	<g>
		<path class="st2" d="M520.2,156.9c-5.2,0-6.4-3.4-6.4-3.5c-0.1-0.3,0.1-0.7,0.4-0.8c0.3-0.1,0.7,0.1,0.8,0.4c0,0.1,1,2.7,5.3,2.7
			c4.3,0,5.6-2.6,5.7-2.7c0.1-0.3,0.5-0.4,0.8-0.3c0.3,0.1,0.4,0.5,0.3,0.8C526.9,153.6,525.4,156.9,520.2,156.9z"/>
	</g>
</g>
<g>
	
		<ellipse transform="matrix(0.1602 -0.9871 0.9871 0.1602 -279.1683 528.8678)" class="st1" cx="171.2" cy="428.5" rx="15.7" ry="15.7"/>
	<g>
		<g>
			<g>
				<ellipse class="st2" cx="165.7" cy="424.5" rx="1.1" ry="2.1"/>
			</g>
			<g>
				<ellipse class="st2" cx="176.5" cy="424.5" rx="1.1" ry="2.1"/>
			</g>
		</g>
	</g>
	<g>
		<g>
			<path class="st2" d="M171.2,436.5c-6.5,0-8-4.2-8.1-4.4c-0.1-0.4,0.1-0.8,0.5-1c0.4-0.1,0.8,0.1,1,0.5c0.1,0.2,1.3,3.3,6.6,3.3
				c5.4,0,7-3.3,7.1-3.4c0.2-0.4,0.6-0.5,1-0.4c0.4,0.2,0.6,0.6,0.4,1C179.6,432.3,177.7,436.5,171.2,436.5z"/>
		</g>
	</g>
</g>
<g>
	<circle class="st1" cx="280.3" cy="111.3" r="15.7"/>
	<g>
		<g>
			<g>
				<ellipse class="st2" cx="274.8" cy="107.3" rx="1.1" ry="2.1"/>
			</g>
			<g>
				<ellipse class="st2" cx="285.5" cy="107.3" rx="1.1" ry="2.1"/>
			</g>
		</g>
	</g>
	<g>
		<g>
			<path class="st2" d="M280.3,119.2c-6.5,0-8-4.2-8.1-4.4c-0.1-0.4,0.1-0.8,0.5-1c0.4-0.1,0.8,0.1,1,0.5c0.1,0.1,1.3,3.3,6.6,3.3
				c5.4,0,7-3.3,7.1-3.4c0.2-0.4,0.6-0.5,1-0.4c0.4,0.2,0.6,0.6,0.4,1C288.7,115.1,286.7,119.2,280.3,119.2z"/>
		</g>
	</g>
</g>
<path class="st7" d="M556.9,329.4c-1.7-10.7-13.7-6.6-15-1.6c-1.2-5-12.6-9.2-14.5,1.5c-2.1,11.3,14.5,21.9,14.5,21.9
	S558.7,340.7,556.9,329.4z"/>
<g>
	<circle class="st1" cx="497.2" cy="489.5" r="4.2"/>
	<circle class="st1" cx="515.3" cy="489.5" r="4.2"/>
	<circle class="st1" cx="533.3" cy="489.5" r="4.2"/>
</g>
<g>
	<g>
		<g>
			<circle class="st7" cx="181.8" cy="117.4" r="4.2"/>
		</g>
		<g>
			<circle class="st7" cx="199.9" cy="117.4" r="4.2"/>
		</g>
		<g>
			<circle class="st7" cx="217.9" cy="117.4" r="4.2"/>
		</g>
	</g>
</g>
</svg>
