<svg width="13" height="9" fill="#fff" viewBox="0 0 13 9" xmlns="http://www.w3.org/2000/svg"><path fill-rule="evenodd" clip-rule="evenodd" d="M11.4289 3.91921L12.1201 4.58746C12.2153 4.67825 12.2153 4.82718 12.1201 4.91797L9.00652 7.93605C8.91132 8.02685 8.75766 8.02685 8.66608 7.93605L6.45637 5.79324C6.43412 5.77145 6.39429 5.77145 6.37204 5.79324L4.16233 7.93605C4.06713 8.02685 3.91347 8.02685 3.82189 7.93605L0.697462 4.91797C0.602265 4.82718 0.602265 4.67825 0.697462 4.58746L1.38868 3.91921C1.48387 3.82842 1.63753 3.82842 1.72911 3.91921L3.93882 6.06203C3.96107 6.08381 4.00142 6.08381 4.02315 6.06203L6.23287 3.91921C6.32806 3.82842 6.48172 3.82842 6.5733 3.91921L8.78353 6.06203C8.80526 6.08381 8.84561 6.08381 8.86734 6.06203L11.0776 3.91921C11.18 3.82842 11.3337 3.82842 11.4289 3.91921ZM2.9949 2.36498C4.87918 0.53817 7.93791 0.53817 9.82219 2.36498L10.0493 2.58655C10.144 2.67735 10.144 2.82627 10.0493 2.91707L9.27326 3.66883C9.22566 3.71605 9.14909 3.71605 9.10149 3.66883L8.79054 3.36739C7.47331 2.09261 5.34379 2.09261 4.02655 3.36739L3.69388 3.69062C3.64628 3.73783 3.56919 3.73783 3.52159 3.69062L2.74604 2.93885C2.65085 2.84806 2.65085 2.69913 2.74604 2.60834L2.9949 2.36498Z"></path></svg>