<?xml version="1.0" encoding="utf-8"?>
<!-- Generator: Adobe Illustrator 24.3.0, SVG Export Plug-In . SVG Version: 6.00 Build 0)  -->
<svg version="1.1" id="Layer_1" xmlns="http://www.w3.org/2000/svg" xmlns:xlink="http://www.w3.org/1999/xlink" x="0px" y="0px"
	 viewBox="0 0 32 32" style="enable-background:new 0 0 32 32;" xml:space="preserve">
<style type="text/css">
	.st0{fill:#E5257C;}
	.st1{fill:#FFFFFF;}
</style>
<g>
	<circle class="st0" cx="16" cy="16" r="16"/>
	<g>
		<path class="st1" d="M22.4,16.8H9.8v-1.4h12.6V16.8z"/>
		<path class="st1" d="M14,9.8l1.1,4.2L10.7,15l-0.3-1.3l2.1-0.5c0,0-1.9-1.1-3.8,0.4c-1,0.9-1,1.3-1.2,2.3c-0.1,0.9,0.2,3,2.6,3.6
			c1.6,0.3,2.7,0,4.2-2l1.7,0.1c0,0-1.6,2.2-2.7,2.8c-0.9,0.4-2.6,1.2-5-0.2C7,19.5,5.9,18,6,15.4c0.1-1.3,1.6-4.5,5.3-4
			c0.7,0.1,1.6,0.4,1.6,0.4l-0.4-1.7C12.6,10.2,14,9.8,14,9.8z M23.8,12.2c1.2,0.8,2.3,2.3,2.1,4.8c-0.1,1.3-1.8,4.4-5.4,3.8
			c-0.7-0.1-1.6-0.5-1.6-0.5l0.3,1.7l-1.4,0.3l-1-4.3l4.4-0.8l0.3,1.3l-2.1,0.4c0,0,1.8,1.2,3.8-0.3c1-0.9,1.1-1.3,1.3-2.3
			c0.2-0.9-0.1-3-2.5-3.6c-1.5-0.3-2.7,0-4.3,1.9l-1.7-0.2c0,0,1.6-2.2,2.7-2.7C19.7,11.5,21.5,10.8,23.8,12.2z"/>
	</g>
</g>
</svg>
