<svg id="Layer_1" enable-background="new 0 0 512 512" viewBox="0 0 512 512" xmlns="http://www.w3.org/2000/svg"><g><path d="m202 109.037c0 59 48 107 107 107l10-125-10-89c-59 0-107 48-107 107z" fill="#ffbe3f"/><path d="m309 2.037v214c59 0 107-48 107-107s-48-107-107-107z" fill="#dc8758"/><path d="m202 185.037c0 59 48 107 107 107l22-96-22-118c-59 0-107 48-107 107z" fill="#ffe651"/><path d="m309 78.037v214c59 0 107-48 107-107s-48-107-107-107z" fill="#ffbe3f"/><path d="m258 185.037c0 28.121 22.879 51 51 51l12-55-12-47c-28.121 0-51 22.879-51 51z" fill="#ffbe3f"/><path d="m309 134.037v102c28.121 0 51-22.879 51-51s-22.879-51-51-51z" fill="#dc8758"/><path d="m256 402.677c20.225 0 36.621-16.953 36.621-37.179 0-20.225-16.396-37.178-36.621-37.178h-72.831c-22.847-24.397-54.779-38.24-88.203-38.24h-31.232l-5.907 169.764 121.566 50.119h129.607l16-58.926-16-48.36z" fill="#efaea1"/><path d="m505.031 340.005c-9.898-12.701-27.521-16.398-41.689-8.746l-127.192 71.418h-27.15v107.286h38.88l151.524-123.756c14.275-11.226 16.79-31.879 5.627-46.202z" fill="#e99a8b"/><path d="m0 290.079h63.734v207.137h-63.734z" fill="#ffe651"/></g><g/><g/><g/><g/><g/><g/><g/><g/><g/><g/><g/><g/><g/><g/><g/></svg>