<?xml version="1.0" encoding="utf-8"?>
<!-- Generator: Adobe Illustrator 27.0.0, SVG Export Plug-In . SVG Version: 6.00 Build 0)  -->
<svg version="1.1" id="Layer_1" xmlns:svgjs="http://svgjs.com/svgjs"
	 xmlns="http://www.w3.org/2000/svg" xmlns:xlink="http://www.w3.org/1999/xlink" x="0px" y="0px" viewBox="0 0 512 512"
	 style="enable-background:new 0 0 512 512;" xml:space="preserve">
<style type="text/css">
	.st0{fill:#F3F3F3;}
</style>
<g>
	<path class="st0" d="M329.7,406c11.8,0.2,21.5-9.2,21.8-21c0.1-6.5-2.7-12.7-7.7-16.8L213.2,256.4l130.6-111.8
		c9.5-7,11.6-20.3,4.7-29.9c-7-9.5-20.3-11.6-29.9-4.7c-0.9,0.7-1.8,1.4-2.6,2.3L166.7,240c-9,7.7-10,21.2-2.4,30.1
		c0.7,0.9,1.5,1.6,2.4,2.4l149.3,128C319.8,403.9,324.6,405.9,329.7,406z"/>
</g>
</svg>
