<?xml version="1.0" encoding="utf-8"?>
<!-- Generator: Adobe Illustrator 27.0.0, SVG Export Plug-In . SVG Version: 6.00 Build 0)  -->
<svg version="1.1" id="Layer_1" xmlns:svgjs="http://svgjs.com/svgjs"
	 xmlns="http://www.w3.org/2000/svg" xmlns:xlink="http://www.w3.org/1999/xlink" x="0px" y="0px" viewBox="0 0 512 512"
	 style="enable-background:new 0 0 512 512;" xml:space="preserve">
<style type="text/css">
	.st0{fill:#F3F3F3;}
</style>
<g>
	<path class="st0" d="M405.9,182.2c0.2-11.8-9.2-21.5-21-21.8c-6.5-0.1-12.7,2.7-16.8,7.7L256.3,298.7L144.5,168.1
		c-7-9.5-20.3-11.6-29.9-4.7c-9.5,7-11.6,20.3-4.7,29.9c0.7,0.9,1.4,1.8,2.3,2.6l127.6,149.3c7.7,9,21.2,10,30.1,2.4
		c0.9-0.7,1.6-1.5,2.4-2.4l128-149.3C403.8,192.1,405.7,187.3,405.9,182.2z"/>
</g>
</svg>
