<?xml version="1.0" encoding="utf-8"?>
<!-- Generator: Adobe Illustrator 27.0.0, SVG Export Plug-In . SVG Version: 6.00 Build 0)  -->
<svg version="1.1" id="Layer_1" xmlns="http://www.w3.org/2000/svg" xmlns:xlink="http://www.w3.org/1999/xlink" x="0px" y="0px"
	 viewBox="0 0 379.1 50.7" style="enable-background:new 0 0 379.1 50.7;" xml:space="preserve">
<style type="text/css">
	.st0{fill:url(#SVGID_1_);}
	.st1{fill:url(#SVGID_00000023976037765161739090000005198049389769916067_);}
	.st2{fill:url(#SVGID_00000087400777462730333230000003375002320389423295_);}
	.st3{fill:url(#SVGID_00000070102475788492443600000015628483286496078734_);}
	.st4{fill:url(#SVGID_00000069364328170726032030000005608672380385624223_);}
	.st5{fill:url(#SVGID_00000088827350778651252010000006484302633081035966_);}
	.st6{fill:url(#SVGID_00000125596452146618124040000005592878244655126148_);}
	.st7{fill:url(#SVGID_00000177445578357600344750000011466599349384797362_);}
	.st8{fill:url(#SVGID_00000035493544315505457620000008515274114274027154_);}
	.st9{fill:url(#SVGID_00000137108188907671488160000008865435862293357963_);}
	.st10{fill:url(#SVGID_00000124847315942353218430000014845619504626376856_);}
	.st11{fill:url(#SVGID_00000047025979780579434190000014351683126264478854_);}
	.st12{fill:url(#SVGID_00000053545480703805182000000012193667342945856427_);}
	.st13{fill:url(#SVGID_00000065776403973078455170000008124653983247389830_);}
	.st14{fill:url(#SVGID_00000076600852723393301400000013441796352701615272_);}
	.st15{fill:url(#SVGID_00000142137816780478823340000018298905643529097124_);}
	.st16{fill:url(#SVGID_00000103950165933240871450000010446733499366390928_);}
	.st17{fill:url(#SVGID_00000072278134627143106190000004195528517305231256_);}
	.st18{fill:url(#SVGID_00000076594787962376622570000006591678492395765396_);}
	.st19{fill:url(#SVGID_00000145758262947852469050000013275179331315986079_);}
	.st20{fill:url(#SVGID_00000002353842827322405410000014428922900429323919_);}
	.st21{fill:url(#SVGID_00000131352325645049534820000009057483960570887810_);}
	.st22{fill:url(#SVGID_00000165929200321726748850000012991466719239227788_);}
	.st23{fill:url(#SVGID_00000169520490480979013420000013947455807127698606_);}
	.st24{fill:url(#SVGID_00000081635213714993054580000003342933723389077156_);}
	.st25{fill:url(#SVGID_00000088849875373979932220000008357476205464812965_);}
</style>
<g>
	<linearGradient id="SVGID_1_" gradientUnits="userSpaceOnUse" x1="20.3908" y1="-8.4237" x2="19.2496" y2="36.0819">
		<stop  offset="0.2849" style="stop-color:#955736"/>
		<stop  offset="1" style="stop-color:#3C2415"/>
	</linearGradient>
	<path class="st0" d="M32.1,21l-7.3,0.5c-0.1-4.8-1.7-7.2-4.9-7.2c-3.6,0-5.4,3.7-5.4,11c0,4.2,0.5,7.1,1.5,8.6
		c1,1.5,2.4,2.3,4.1,2.3c2.9,0,4.6-2.1,5.3-6.4l6.7,0.5c-0.4,4-1.8,7.1-4,9.2c-2.2,2.1-4.9,3.2-8.1,3.2c-3.9,0-7.1-1.5-9.6-4.6
		C8,35,6.8,30.7,6.8,25.3c0-5.1,1.2-9.3,3.6-12.5c2.4-3.3,5.6-4.9,9.7-4.9C27.2,7.9,31.2,12.2,32.1,21z"/>
	
		<linearGradient id="SVGID_00000103242121095094981690000014783379525407794072_" gradientUnits="userSpaceOnUse" x1="47.5227" y1="-7.592" x2="46.3835" y2="36.8354">
		<stop  offset="0.2849" style="stop-color:#955736"/>
		<stop  offset="1" style="stop-color:#3C2415"/>
	</linearGradient>
	<path style="fill:url(#SVGID_00000103242121095094981690000014783379525407794072_);" d="M50.4,8.4l9.3,33.8h-7.5l-1.8-7h-9.6
		l-1.9,7h-6.1l9.5-33.8H50.4z M42.5,29h6.3l-3.1-11.9L42.5,29z"/>
	
		<linearGradient id="SVGID_00000035490095844905160340000000912208473639068333_" gradientUnits="userSpaceOnUse" x1="71.1807" y1="-6.8692" x2="70.0414" y2="37.5635">
		<stop  offset="0.2849" style="stop-color:#955736"/>
		<stop  offset="1" style="stop-color:#3C2415"/>
	</linearGradient>
	<path style="fill:url(#SVGID_00000035490095844905160340000000912208473639068333_);" d="M83.4,8.4l-9,33.8H67L58.1,8.4h7.4
		l5.9,24.2l6.2-24.2H83.4z"/>
	
		<linearGradient id="SVGID_00000117640535435672356870000012446854167871656866_" gradientUnits="userSpaceOnUse" x1="97.5057" y1="-6.102" x2="96.367" y2="38.3087">
		<stop  offset="0.2849" style="stop-color:#955736"/>
		<stop  offset="1" style="stop-color:#3C2415"/>
	</linearGradient>
	<path style="fill:url(#SVGID_00000117640535435672356870000012446854167871656866_);" d="M107.3,14.8H93.2v6.9h11.1v6.4H93.2v7.4
		h14.1v6.7H86.1V8.4h21.2V14.8z"/>
	
		<linearGradient id="SVGID_00000044165334833945536540000005676196049795129748_" gradientUnits="userSpaceOnUse" x1="134.5803" y1="-5.0838" x2="133.4391" y2="39.4214">
		<stop  offset="0.2849" style="stop-color:#955736"/>
		<stop  offset="1" style="stop-color:#3C2415"/>
	</linearGradient>
	<path style="fill:url(#SVGID_00000044165334833945536540000005676196049795129748_);" d="M133.7,42.7c-4,0-7.1-1.7-9.3-5.1
		s-3.3-7.6-3.3-12.4c0-4.9,1.1-9.1,3.3-12.4c2.2-3.3,5.4-5,9.5-5c4.1,0,7.3,1.8,9.4,5.3c2.1,3.5,3.2,7.6,3.2,12.1
		c0,4.9-1.1,9-3.3,12.4C141,41,137.9,42.7,133.7,42.7z M133.9,14.3c-3.6,0-5.5,3.7-5.5,11c0,7.3,1.8,11,5.5,11c3.5,0,5.3-3.7,5.3-11
		C139.2,18,137.4,14.3,133.9,14.3z"/>
	
		<linearGradient id="SVGID_00000057866240878128989180000005569049278740421551_" gradientUnits="userSpaceOnUse" x1="161.9353" y1="-4.2196" x2="160.7966" y2="40.1915">
		<stop  offset="0.2849" style="stop-color:#955736"/>
		<stop  offset="1" style="stop-color:#3C2415"/>
	</linearGradient>
	<path style="fill:url(#SVGID_00000057866240878128989180000005569049278740421551_);" d="M172.1,15.1h-13.9v7.6h11V29h-11v13.2H151
		V8.4h21.1V15.1z"/>
	
		<linearGradient id="SVGID_00000060011767261250454820000016898618993835220664_" gradientUnits="userSpaceOnUse" x1="198.6696" y1="-3.1914" x2="197.5298" y2="41.2595">
		<stop  offset="0.2849" style="stop-color:#955736"/>
		<stop  offset="1" style="stop-color:#3C2415"/>
	</linearGradient>
	<path style="fill:url(#SVGID_00000060011767261250454820000016898618993835220664_);" d="M193.8,29.6v12.6h-7.1V8.4h11.7
		c2.6,0,4.6,0.3,6,1c1.4,0.6,2.6,1.8,3.7,3.4c1.1,1.6,1.6,3.6,1.6,6c0,1.7-0.3,3.3-0.9,4.9s-1.4,2.8-2.5,3.7s-2.1,1.5-3.1,1.8
		c-1,0.3-2.5,0.4-4.7,0.4H193.8z M193.6,23.5h4.5c1.7,0,2.9-0.5,3.6-1.4c0.7-0.9,1-1.9,1-3.1c0-1.4-0.4-2.5-1.2-3.3
		c-0.8-0.8-2-1.2-3.5-1.2h-4.5V23.5z"/>
	
		<linearGradient id="SVGID_00000178172494265282046070000011439674264700550822_" gradientUnits="userSpaceOnUse" x1="223.6995" y1="-2.4793" x2="222.559" y2="41.9972">
		<stop  offset="0.2849" style="stop-color:#955736"/>
		<stop  offset="1" style="stop-color:#3C2415"/>
	</linearGradient>
	<path style="fill:url(#SVGID_00000178172494265282046070000011439674264700550822_);" d="M220.6,35.5h11.8v6.7h-18.8V8.4h7V35.5z"
		/>
	
		<linearGradient id="SVGID_00000140706074671013438060000005628167498117829506_" gradientUnits="userSpaceOnUse" x1="247.7196" y1="-1.7197" x2="246.5798" y2="42.7322">
		<stop  offset="0.2849" style="stop-color:#955736"/>
		<stop  offset="1" style="stop-color:#3C2415"/>
	</linearGradient>
	<path style="fill:url(#SVGID_00000140706074671013438060000005628167498117829506_);" d="M259,8.4v21.1c0,3.4-0.3,5.9-1,7.6
		c-0.7,1.7-1.9,3-3.8,4.1c-1.8,1.1-4.2,1.6-7,1.6c-2.9,0-5.1-0.5-6.8-1.4c-1.7-1-2.9-2.3-3.8-4.1c-0.8-1.8-1.3-4.4-1.3-7.8V8.4h7.5
		v21.1c0,1.8,0.1,3.2,0.4,4c0.3,0.9,0.8,1.5,1.6,2c0.8,0.5,1.8,0.8,3,0.8c1.3,0,2.4-0.2,3.2-0.7c0.8-0.5,1.4-1.2,1.6-2
		c0.3-0.8,0.4-2.2,0.4-4.1V8.4H259z"/>
	
		<linearGradient id="SVGID_00000093161542784768034300000000876045036283848634_" gradientUnits="userSpaceOnUse" x1="276.5976" y1="-0.8679" x2="275.459" y2="43.5353">
		<stop  offset="0.2849" style="stop-color:#955736"/>
		<stop  offset="1" style="stop-color:#3C2415"/>
	</linearGradient>
	<path style="fill:url(#SVGID_00000093161542784768034300000000876045036283848634_);" d="M287.3,8.4v33.8h-5.9l-11.6-22.8
		c0,0.6,0,1,0,1.1c0.1,0.6,0.1,1.1,0.1,1.5v20.2h-5.4V8.4h7.5l10.1,19.9c-0.1-1-0.1-1.7-0.1-2.3V8.4H287.3z"/>
	
		<linearGradient id="SVGID_00000088095591652070881700000014667915423769616274_" gradientUnits="userSpaceOnUse" x1="305.857" y1="-7.260448e-02" x2="304.7169" y2="44.3902">
		<stop  offset="0.2849" style="stop-color:#955736"/>
		<stop  offset="1" style="stop-color:#3C2415"/>
	</linearGradient>
	<path style="fill:url(#SVGID_00000088095591652070881700000014667915423769616274_);" d="M293.3,8.4h9c3.7,0,6.4,0.6,8.2,1.7
		c1.8,1.2,3.4,3,4.9,5.5s2.1,5.7,2.1,9.6c0,4.8-1.3,8.9-3.8,12.1c-2.5,3.2-6,4.9-10.3,4.9h-10.2V8.4z M300.1,14.6v21.2h2.9
		c2.5,0,4.4-1.1,5.6-3.2c1.2-2.2,1.8-4.7,1.8-7.6c0-2-0.4-3.9-1.1-5.7s-1.6-3-2.6-3.7s-2.3-1.1-3.7-1.1H300.1z"/>
	
		<linearGradient id="SVGID_00000044897263208557853610000015246749875329500297_" gradientUnits="userSpaceOnUse" x1="333.3155" y1="0.7839" x2="332.1768" y2="45.1946">
		<stop  offset="0.2849" style="stop-color:#955736"/>
		<stop  offset="1" style="stop-color:#3C2415"/>
	</linearGradient>
	<path style="fill:url(#SVGID_00000044897263208557853610000015246749875329500297_);" d="M343.3,14.8h-14.1v6.9h11.1v6.4h-11.1v7.4
		h14.1v6.7h-21.2V8.4h21.2V14.8z"/>
	
		<linearGradient id="SVGID_00000001634032658447530390000016571113082438124191_" gradientUnits="userSpaceOnUse" x1="360.1411" y1="1.5301" x2="359.0015" y2="45.9752">
		<stop  offset="0.2849" style="stop-color:#955736"/>
		<stop  offset="1" style="stop-color:#3C2415"/>
	</linearGradient>
	<path style="fill:url(#SVGID_00000001634032658447530390000016571113082438124191_);" d="M354.4,28.8v13.4h-7V8.4h13
		c2.4,0,4.3,0.3,5.8,1c1.5,0.6,2.7,1.8,3.6,3.5c1,1.7,1.4,3.6,1.4,5.7c0,4.1-1.7,7-5.1,8.7l5.5,15H364l-4.6-13.4H354.4z M354.4,14.4
		V23h4.3c1.4,0,2.4-0.1,3-0.3c0.6-0.2,1.2-0.7,1.7-1.5s0.7-1.6,0.7-2.6c0-0.9-0.2-1.8-0.7-2.5c-0.5-0.7-1-1.2-1.6-1.4
		c-0.6-0.2-1.7-0.3-3.3-0.3H354.4z"/>
</g>
<g>
	
		<linearGradient id="SVGID_00000046338226577163831530000009718479505332126142_" gradientUnits="userSpaceOnUse" x1="18.3908" y1="-8.4237" x2="17.2496" y2="36.0819">
		<stop  offset="0.2849" style="stop-color:#F7925E"/>
		<stop  offset="1" style="stop-color:#3C2415"/>
	</linearGradient>
	<path style="fill:url(#SVGID_00000046338226577163831530000009718479505332126142_);" d="M30.1,21l-7.3,0.5
		c-0.1-4.8-1.7-7.2-4.9-7.2c-3.6,0-5.4,3.7-5.4,11c0,4.2,0.5,7.1,1.5,8.6c1,1.5,2.4,2.3,4.1,2.3c2.9,0,4.6-2.1,5.3-6.4l6.7,0.5
		c-0.4,4-1.8,7.1-4,9.2c-2.2,2.1-4.9,3.2-8.1,3.2c-3.9,0-7.1-1.5-9.6-4.6C6,35,4.8,30.7,4.8,25.3c0-5.1,1.2-9.3,3.6-12.5
		c2.4-3.3,5.6-4.9,9.7-4.9C25.2,7.9,29.2,12.2,30.1,21z"/>
	
		<linearGradient id="SVGID_00000149362867572699213130000014530267353611343033_" gradientUnits="userSpaceOnUse" x1="45.5227" y1="-7.592" x2="44.3835" y2="36.8354">
		<stop  offset="0.2849" style="stop-color:#F7925E"/>
		<stop  offset="1" style="stop-color:#3C2415"/>
	</linearGradient>
	<path style="fill:url(#SVGID_00000149362867572699213130000014530267353611343033_);" d="M48.4,8.4l9.3,33.8h-7.5l-1.8-7h-9.6
		l-1.9,7h-6.1l9.5-33.8H48.4z M40.5,29h6.3l-3.1-11.9L40.5,29z"/>
	
		<linearGradient id="SVGID_00000165942005830246524760000004681342805842681507_" gradientUnits="userSpaceOnUse" x1="69.1807" y1="-6.8692" x2="68.0414" y2="37.5635">
		<stop  offset="0.2849" style="stop-color:#F7925E"/>
		<stop  offset="1" style="stop-color:#3C2415"/>
	</linearGradient>
	<path style="fill:url(#SVGID_00000165942005830246524760000004681342805842681507_);" d="M81.4,8.4l-9,33.8H65L56.1,8.4h7.4
		l5.9,24.2l6.2-24.2H81.4z"/>
	
		<linearGradient id="SVGID_00000038389263328644852650000002424806854530802838_" gradientUnits="userSpaceOnUse" x1="95.5057" y1="-6.102" x2="94.367" y2="38.3087">
		<stop  offset="0.2849" style="stop-color:#F7925E"/>
		<stop  offset="1" style="stop-color:#3C2415"/>
	</linearGradient>
	<path style="fill:url(#SVGID_00000038389263328644852650000002424806854530802838_);" d="M105.3,14.8H91.2v6.9h11.1v6.4H91.2v7.4
		h14.1v6.7H84.1V8.4h21.2V14.8z"/>
	
		<linearGradient id="SVGID_00000114037596200672205180000013729462852788154529_" gradientUnits="userSpaceOnUse" x1="132.5803" y1="-5.0838" x2="131.4391" y2="39.4214">
		<stop  offset="0.2849" style="stop-color:#F7925E"/>
		<stop  offset="1" style="stop-color:#3C2415"/>
	</linearGradient>
	<path style="fill:url(#SVGID_00000114037596200672205180000013729462852788154529_);" d="M131.7,42.7c-4,0-7.1-1.7-9.3-5.1
		s-3.3-7.6-3.3-12.4c0-4.9,1.1-9.1,3.3-12.4c2.2-3.3,5.4-5,9.5-5c4.1,0,7.3,1.8,9.4,5.3c2.1,3.5,3.2,7.6,3.2,12.1
		c0,4.9-1.1,9-3.3,12.4C139,41,135.9,42.7,131.7,42.7z M131.9,14.3c-3.6,0-5.5,3.7-5.5,11c0,7.3,1.8,11,5.5,11c3.5,0,5.3-3.7,5.3-11
		C137.2,18,135.4,14.3,131.9,14.3z"/>
	
		<linearGradient id="SVGID_00000081633905457027435240000011274740930263702191_" gradientUnits="userSpaceOnUse" x1="159.9353" y1="-4.2196" x2="158.7966" y2="40.1915">
		<stop  offset="0.2849" style="stop-color:#F7925E"/>
		<stop  offset="1" style="stop-color:#3C2415"/>
	</linearGradient>
	<path style="fill:url(#SVGID_00000081633905457027435240000011274740930263702191_);" d="M170.1,15.1h-13.9v7.6h11V29h-11v13.2H149
		V8.4h21.1V15.1z"/>
	
		<linearGradient id="SVGID_00000140726843215355036000000005529200313591055035_" gradientUnits="userSpaceOnUse" x1="196.6696" y1="-3.1914" x2="195.5298" y2="41.2595">
		<stop  offset="0.2849" style="stop-color:#F7925E"/>
		<stop  offset="1" style="stop-color:#3C2415"/>
	</linearGradient>
	<path style="fill:url(#SVGID_00000140726843215355036000000005529200313591055035_);" d="M191.8,29.6v12.6h-7.1V8.4h11.7
		c2.6,0,4.6,0.3,6,1c1.4,0.6,2.6,1.8,3.7,3.4c1.1,1.6,1.6,3.6,1.6,6c0,1.7-0.3,3.3-0.9,4.9s-1.4,2.8-2.5,3.7s-2.1,1.5-3.1,1.8
		c-1,0.3-2.5,0.4-4.7,0.4H191.8z M191.6,23.5h4.5c1.7,0,2.9-0.5,3.6-1.4c0.7-0.9,1-1.9,1-3.1c0-1.4-0.4-2.5-1.2-3.3
		c-0.8-0.8-2-1.2-3.5-1.2h-4.5V23.5z"/>
	
		<linearGradient id="SVGID_00000086650723791319760770000004711429455206807686_" gradientUnits="userSpaceOnUse" x1="221.6995" y1="-2.4793" x2="220.559" y2="41.9972">
		<stop  offset="0.2849" style="stop-color:#F7925E"/>
		<stop  offset="1" style="stop-color:#3C2415"/>
	</linearGradient>
	<path style="fill:url(#SVGID_00000086650723791319760770000004711429455206807686_);" d="M218.6,35.5h11.8v6.7h-18.8V8.4h7V35.5z"
		/>
	
		<linearGradient id="SVGID_00000057846898062656968140000003901074454968533391_" gradientUnits="userSpaceOnUse" x1="245.7196" y1="-1.7197" x2="244.5798" y2="42.7322">
		<stop  offset="0.2849" style="stop-color:#F7925E"/>
		<stop  offset="1" style="stop-color:#3C2415"/>
	</linearGradient>
	<path style="fill:url(#SVGID_00000057846898062656968140000003901074454968533391_);" d="M257,8.4v21.1c0,3.4-0.3,5.9-1,7.6
		c-0.7,1.7-1.9,3-3.8,4.1c-1.8,1.1-4.2,1.6-7,1.6c-2.9,0-5.1-0.5-6.8-1.4c-1.7-1-2.9-2.3-3.8-4.1c-0.8-1.8-1.3-4.4-1.3-7.8V8.4h7.5
		v21.1c0,1.8,0.1,3.2,0.4,4c0.3,0.9,0.8,1.5,1.6,2c0.8,0.5,1.8,0.8,3,0.8c1.3,0,2.4-0.2,3.2-0.7c0.8-0.5,1.4-1.2,1.6-2
		c0.3-0.8,0.4-2.2,0.4-4.1V8.4H257z"/>
	
		<linearGradient id="SVGID_00000160884476204007052900000007762754640131087547_" gradientUnits="userSpaceOnUse" x1="274.5976" y1="-0.8679" x2="273.459" y2="43.5353">
		<stop  offset="0.2849" style="stop-color:#F7925E"/>
		<stop  offset="1" style="stop-color:#3C2415"/>
	</linearGradient>
	<path style="fill:url(#SVGID_00000160884476204007052900000007762754640131087547_);" d="M285.3,8.4v33.8h-5.9l-11.6-22.8
		c0,0.6,0,1,0,1.1c0.1,0.6,0.1,1.1,0.1,1.5v20.2h-5.4V8.4h7.5l10.1,19.9c-0.1-1-0.1-1.7-0.1-2.3V8.4H285.3z"/>
	
		<linearGradient id="SVGID_00000139293354924251890140000004162643488203057086_" gradientUnits="userSpaceOnUse" x1="303.857" y1="-7.260448e-02" x2="302.7169" y2="44.3902">
		<stop  offset="0.2849" style="stop-color:#F7925E"/>
		<stop  offset="1" style="stop-color:#3C2415"/>
	</linearGradient>
	<path style="fill:url(#SVGID_00000139293354924251890140000004162643488203057086_);" d="M291.3,8.4h9c3.7,0,6.4,0.6,8.2,1.7
		c1.8,1.2,3.4,3,4.9,5.5s2.1,5.7,2.1,9.6c0,4.8-1.3,8.9-3.8,12.1c-2.5,3.2-6,4.9-10.3,4.9h-10.2V8.4z M298.1,14.6v21.2h2.9
		c2.5,0,4.4-1.1,5.6-3.2c1.2-2.2,1.8-4.7,1.8-7.6c0-2-0.4-3.9-1.1-5.7s-1.6-3-2.6-3.7s-2.3-1.1-3.7-1.1H298.1z"/>
	
		<linearGradient id="SVGID_00000127731621253436400570000000557264790376085635_" gradientUnits="userSpaceOnUse" x1="331.3155" y1="0.7839" x2="330.1768" y2="45.1946">
		<stop  offset="0.2849" style="stop-color:#F7925E"/>
		<stop  offset="1" style="stop-color:#3C2415"/>
	</linearGradient>
	<path style="fill:url(#SVGID_00000127731621253436400570000000557264790376085635_);" d="M341.3,14.8h-14.1v6.9h11.1v6.4h-11.1v7.4
		h14.1v6.7h-21.2V8.4h21.2V14.8z"/>
	
		<linearGradient id="SVGID_00000141429278508687218920000015874766505190584752_" gradientUnits="userSpaceOnUse" x1="358.1411" y1="1.5301" x2="357.0015" y2="45.9752">
		<stop  offset="0.2849" style="stop-color:#F7925E"/>
		<stop  offset="1" style="stop-color:#3C2415"/>
	</linearGradient>
	<path style="fill:url(#SVGID_00000141429278508687218920000015874766505190584752_);" d="M352.4,28.8v13.4h-7V8.4h13
		c2.4,0,4.3,0.3,5.8,1c1.5,0.6,2.7,1.8,3.6,3.5c1,1.7,1.4,3.6,1.4,5.7c0,4.1-1.7,7-5.1,8.7l5.5,15H362l-4.6-13.4H352.4z M352.4,14.4
		V23h4.3c1.4,0,2.4-0.1,3-0.3c0.6-0.2,1.2-0.7,1.7-1.5s0.7-1.6,0.7-2.6c0-0.9-0.2-1.8-0.7-2.5c-0.5-0.7-1-1.2-1.6-1.4
		c-0.6-0.2-1.7-0.3-3.3-0.3H352.4z"/>
</g>
</svg>
