<?xml version="1.0" encoding="utf-8"?>
<!-- Generator: Adobe Illustrator 25.3.1, SVG Export Plug-In . SVG Version: 6.00 Build 0)  -->
<svg version="1.1" id="Layer_1" xmlns="http://www.w3.org/2000/svg" xmlns:xlink="http://www.w3.org/1999/xlink" x="0px" y="0px"
	 viewBox="0 0 90 90" style="enable-background:new 0 0 90 90;" xml:space="preserve">
<style type="text/css">
	.st0{fill:#67707B;}
</style>
<g id="Layer_1_1_">
	<g>
		<path class="st0" d="M79.4,0H24.5c-5.8,0-10.6,4.8-10.6,10.6v3.3h-3.3C4.8,13.9,0,18.7,0,24.5v54.8C0,85.2,4.8,90,10.6,90h54.9
			c5.9,0,10.6-4.8,10.6-10.6v-3.3h3.3c5.9,0,10.6-4.8,10.6-10.6V10.6C90,4.8,85.2,0,79.4,0L79.4,0z M83.5,65.5
			c0,2.3-1.8,4.1-4.1,4.1h-3.3v-45c0-5.9-4.8-10.6-10.6-10.6h-45v-3.3c0-2.3,1.8-4.1,4.1-4.1h54.9c2.3,0,4.1,1.8,4.1,4.1V65.5z"/>
	</g>
</g>
</svg>
