<svg width="13" height="8" viewBox="0 0 13 8" fill="none" xmlns="http://www.w3.org/2000/svg">
<path d="M6.5815 7.05782C8.12837 5.51094 9.67525 3.96407 11.2221 2.41719C11.4471 2.19219 11.6721 1.96719 11.8971 1.74219C12.4034 1.23594 11.6159 0.420319 11.1096 0.954694C9.56275 2.50157 8.01587 4.04844 6.469 5.59532C6.38462 5.67969 6.30025 5.76407 6.21587 5.84844C4.80962 4.44219 3.40337 3.03594 1.99712 1.62969C1.77212 1.40469 1.57524 1.20782 1.35025 0.982818C0.843995 0.476568 0.0283708 1.26407 0.562746 1.77032L5.17525 6.38282L5.82212 7.02969C5.99087 7.28282 6.3565 7.28282 6.5815 7.05782Z" fill="#98A7B5"/>
</svg>
