<svg id="Icons" enable-background="new 0 0 128 128" fill="#67707B" height="512" viewBox="0 0 128 128" width="512" xmlns="http://www.w3.org/2000/svg"><path id="Globe" d="m64 4c-33.084 0-60 26.916-60 60s26.916 60 60 60 60-26.916 60-60-26.916-60-60-60zm47.989 40h-21.486c-1.887-12.155-5.474-22.32-10.23-29.355 14.333 4.738 25.931 15.527 31.716 29.355zm-27.989 20c0 4.191-.213 8.188-.577 12h-38.846c-.364-3.812-.577-7.809-.577-12s.213-8.188.577-12h38.845c.365 3.812.578 7.809.578 12zm-20 52c-7.222 0-15.059-12.473-18.369-32h36.738c-3.31 19.527-11.147 32-18.369 32zm-18.369-72c3.31-19.527 11.147-32 18.369-32s15.059 12.473 18.369 32zm2.096-29.355c-4.756 7.036-8.344 17.2-10.23 29.355h-21.486c5.785-13.828 17.383-24.617 31.716-29.355zm-34.274 37.355h23.081c-.338 3.861-.534 7.859-.534 12s.196 8.139.535 12h-23.082c-.916-3.86-1.453-7.864-1.453-12s.537-8.14 1.453-12zm2.558 32h21.485c1.887 12.155 5.474 22.32 10.23 29.355-14.333-4.738-25.93-15.527-31.715-29.355zm64.262 29.355c4.756-7.036 8.344-17.2 10.23-29.355h21.485c-5.784 13.828-17.381 24.617-31.715 29.355zm34.274-37.355h-23.082c.339-3.861.535-7.859.535-12s-.196-8.139-.535-12h23.081c.917 3.86 1.453 7.864 1.453 12s-.536 8.14-1.452 12z"/></svg>