<svg width="7" height="11" viewBox="0 0 7 11" fill="none" xmlns="http://www.w3.org/2000/svg">
<path d="M6.0078 4.9375C4.71873 3.64844 3.42967 2.35937 2.14061 1.07031C1.95311 0.882811 1.76561 0.695311 1.57811 0.507811C1.15623 0.0859364 0.476547 0.742186 0.92186 1.16406C2.21092 2.45312 3.49998 3.74219 4.78905 5.03125C4.85936 5.10156 4.92967 5.17187 4.99999 5.24219C3.82811 6.41406 2.65623 7.58594 1.48436 8.75781C1.29686 8.94531 1.1328 9.10937 0.945297 9.29687C0.523422 9.71875 1.17967 10.3984 1.60155 9.95312L5.4453 6.10937L5.98436 5.57031C6.1953 5.42969 6.1953 5.125 6.0078 4.9375Z" fill="#98A7B5"/>
</svg>
