<?xml version="1.0" encoding="utf-8"?>
<!-- Generator: Adobe Illustrator 27.0.0, SVG Export Plug-In . SVG Version: 6.00 Build 0)  -->
<svg version="1.1" id="Layer_1" xmlns="http://www.w3.org/2000/svg" xmlns:xlink="http://www.w3.org/1999/xlink" x="0px" y="0px"
	 viewBox="0 0 512 512" style="enable-background:new 0 0 512 512;" xml:space="preserve">
<style type="text/css">
	.st0{fill:#FFFFFF;}
</style>
<path class="st0" d="M304,64l32-16l-32-16L288,0l-16,32l-32,16l32,16l16,32L304,64z M458.7,106.7L512,80l-53.3-26.7L432,0
	l-26.7,53.3L352,80l53.3,26.7L432,160L458.7,106.7z M53.3,341.3L0,368l53.3,26.7L80,448l26.7-53.3L160,368l-53.3-26.7L80,288
	L53.3,341.3z M9.4,139.5l363.1,363.1c6.2,6.2,14.4,9.4,22.6,9.4c8.2,0,16.4-3.1,22.6-9.4l84.9-84.9c12.5-12.5,12.5-32.8,0-45.2
	L139.5,9.4C133.2,3.1,125,0,116.9,0c-8.2,0-16.4,3.1-22.6,9.4L9.4,94.2C-3.1,106.7-3.1,127,9.4,139.5z M152.5,203.5l-86.6-86.6
	L116.9,66l86.6,86.6L152.5,203.5L152.5,203.5z"/>
</svg>
