<svg width="18" height="18" viewBox="0 0 18 18" fill="none" xmlns="http://www.w3.org/2000/svg">
<g clip-path="url(#clip0_23_57541)">
<path d="M17.25 9.73438H0.75C0.335999 9.73438 0 9.39838 0 8.98438C0 8.57037 0.335999 8.23438 0.75 8.23438H17.25C17.664 8.23438 18 8.57037 18 8.98438C18 9.39838 17.664 9.73438 17.25 9.73438Z" fill="#67707B"/>
<path d="M17.25 3.98438H0.75C0.335999 3.98438 0 3.64838 0 3.23438C0 2.82037 0.335999 2.48438 0.75 2.48438H17.25C17.664 2.48438 18 2.82037 18 3.23438C18 3.64838 17.664 3.98438 17.25 3.98438Z" fill="#67707B"/>
<path d="M12.25 15.4844H0.75C0.335999 15.4844 0 15.1484 0 14.7344C0 14.3204 0.335999 13.9844 0.75 13.9844H12.25C12.664 13.9844 13 14.3204 13 14.7344C13 15.1484 12.664 15.4844 12.25 15.4844Z" fill="#67707B"/>
<path d="M15.5864 16.0232L13.1494 12.2558L18.0234 12.2558L15.5864 16.0232Z" fill="#67707B"/>
<path d="M15.5864 16.0232L13.1494 12.2558L18.0234 12.2558L15.5864 16.0232Z" stroke="#17181B"/>
</g>
<defs>
<clipPath id="clip0_23_57541">
<rect width="18" height="18" fill="white"/>
</clipPath>
</defs>
</svg>
