<?xml version="1.0" encoding="utf-8"?>
<!-- Generator: Adobe Illustrator 27.0.0, SVG Export Plug-In . SVG Version: 6.00 Build 0)  -->
<svg version="1.1" id="Layer_1" xmlns="http://www.w3.org/2000/svg" xmlns:xlink="http://www.w3.org/1999/xlink" x="0px" y="0px"
	 viewBox="0 0 208.7 208" style="enable-background:new 0 0 208.7 208;" xml:space="preserve">
<style type="text/css">
	.st0{fill:#707487;}
	.st1{fill:#5B5D6E;}
	.st2{fill:#484856;}
	.st3{fill:#FC507D;}
	.st4{fill:#FEDB64;}
</style>
<g>
	<path class="st0" d="M198.8,136.2c-2.5,8.1-6.5,15.5-11.1,22.6c-0.4,0.7-1,1.1-1.7,0.8c-0.9-0.3-0.9-1.2-0.9-1.9
		c0.2-3.7-0.5-7.1-2.5-10.3c-3.3-5.3-8.2-7.9-14.4-8.2c-1.2,0-1.8,0.4-1.9,1.5c-0.1,0.9-0.3,1.9-0.6,2.8c-0.1,0.5-0.2,1.1-0.9,1.1
		c-0.6,0.1-0.9-0.4-1.1-0.9c-1-1.9-2.3-3.7-3.7-5.3c3.3-4.1,6-8.5,8.2-13.3c6.1-13.4,8.6-27.4,6.7-42c-0.3-2.2,0-4.6-1.4-6.6
		c0-0.8,0-1.6-0.3-2.5c-2-7.3-4.6-14.3-8.2-21c-3.1-5.8-6.6-11.4-10.9-16.3c-9.4-10.7-20.7-18.6-34.5-22.7
		c-10.5-3.2-21.2-3.7-32.1-3.1c-2,0.1-4.2,0.1-6.2,1c-1.3-1.6-1-2.6,1-3.1c9.5-2.3,19.1-3.4,28.9-2.8c9.8,0.6,19.4,2.5,28.6,5.9
		c14.9,5.4,27.7,13.9,38.4,25.6c10.6,11.5,18,24.9,22.3,39.9c1.7,6,2.9,12.2,3.3,18.4c0,0.4-0.1,0.8,0.4,1c0,1.2,0,2.3,0,3.5
		c-0.5-0.6-0.4-1.7-1.6-1.9c-3.2-0.5-6.5-0.8-9.7,0.1c-5.4,1.5-9.4,4.7-11.9,9.7c-3,5.8-2.9,11.6,0,17.2
		C184.7,132.8,191,135.9,198.8,136.2z"/>
	<path class="st0" d="M130.6,196.6c1.3,1.7,1,2.6-1.2,3.1c-4.9,1.2-9.9,2-14.9,2.5c-0.4,0-0.9-0.2-1.2,0.4c-5,0-10,0-15,0
		c-2.1-0.8-4.3-0.7-6.5-1C65.5,197.5,44,185,27.7,163.8c-10.6-13.7-16.6-29.3-19.1-46.4c-0.4-2.5-0.6-5.1-0.5-7.6
		c3.7,0.9,7.4,1.2,11.1,0.2c4-1.1,7.4-3.3,9.9-6.7c4.7-6.3,5.3-13.5,1.9-20.1c-3.7-7.1-10-10.2-17.8-10.5
		c2.5-8.1,6.5-15.5,11.1-22.6c0.4-0.7,1-1.1,1.7-0.8c0.9,0.3,0.9,1.2,0.9,1.9c-0.2,3.7,0.5,7.1,2.5,10.3c3.3,5.3,8.2,7.9,14.4,8.2
		c1.2,0,1.8-0.4,1.9-1.5c0.1-0.9,0.3-1.9,0.6-2.8c0.1-0.5,0.2-1.1,0.9-1.1c0.6-0.1,0.9,0.4,1.1,0.9c1,1.9,2.3,3.7,3.7,5.3
		c-3.3,4.1-6,8.5-8.2,13.3c-6.1,13.4-8.6,27.4-6.7,42c0.3,2.2,0,4.6,1.4,6.6c0,0.8,0,1.6,0.3,2.5c2.1,7.8,5,15.2,8.9,22.3
		c2.9,5.4,6.3,10.5,10.3,15.1c7.3,8.2,15.8,15,26,19.4c6.3,2.7,12.8,4.6,19.6,5.5c3.6,0.5,7.3,0.4,10.8,0.9
		c3.6,0.5,7.1-0.3,10.6-0.3C126.8,197.4,128.8,197.4,130.6,196.6z"/>
	<path class="st1" d="M198.8,136.2c-7.8-0.3-14.1-3.4-17.8-10.5c-2.9-5.6-2.9-11.5,0-17.2c2.6-5,6.6-8.2,11.9-9.7
		c3.2-0.9,6.4-0.6,9.7-0.1c1.2,0.2,1.1,1.3,1.6,1.9c0,1.3,0,2.6,0,3.8c-0.9,0.9-1.9,0.9-3,0.6c-8.5-2.4-16.6,4.6-15.9,13
		c0.4,4.4,3.2,7.2,6.5,9.6c1.9,1.4,4.1,2,6.4,2.1c1.8,0,2.4,0.9,1.9,2.6C199.9,133.6,199.3,134.9,198.8,136.2z"/>
	<path class="st1" d="M81.5,12.1c2-0.9,4.1-0.9,6.2-1c10.8-0.7,21.5-0.1,32.1,3.1c13.8,4.1,25.1,12,34.5,22.7
		c4.3,4.9,7.9,10.5,10.9,16.3c3.5,6.7,6.2,13.7,8.2,21c0.2,0.8,0.2,1.6,0.3,2.5c-1.4-0.1-1.7,0.9-1.9,1.9
		c-2.1,11.6-6.3,22.5-12,32.8c-3.6,6.4-7.7,12.4-13.4,17.1c-0.7,0.6-1.8,0.9-2,1.9c-1-0.4-0.6-1.3-0.6-2c-0.2-5.2-1.8-9.7-5.5-13.5
		c-0.5-0.5-1-1.1-1.8-1.3c1.2-4.1,1.5-8.2,1.2-12.4c7.8,0.4,10.7-3.4,11.7-7.3c0.5-2.1,0.8-4.3,0.9-6.4c0.6-10.4-0.7-20.6-4.5-30.4
		c-5.3-13.5-14-24.4-26-32.6c-9.1-6.2-19.2-9.9-30.1-11.4c-2-0.3-4.1-0.3-6.1-0.5C82.8,12.6,82.1,12.6,81.5,12.1z"/>
	<path class="st1" d="M130.6,196.6c-1.8,0.8-3.7,0.8-5.6,0.9c-3.5,0-7,0.8-10.6,0.3c-3.6-0.5-7.2-0.4-10.8-0.9
		c-6.8-0.9-13.3-2.8-19.6-5.5c-10.2-4.4-18.7-11.2-26-19.4c-4.1-4.6-7.4-9.7-10.3-15.1c-3.9-7.1-6.8-14.5-8.9-22.3
		c-0.2-0.8-0.2-1.6-0.3-2.5c1.7,0.1,1.7-1.3,1.9-2.3c2.2-11.5,6.3-22.2,12-32.4C55.9,91,60,85,65.7,80.3c0.7-0.6,1.8-0.9,2-1.9
		c0.9,0.3,0.6,1,0.6,1.6c0.1,6.1,2.3,11.2,6.9,15.2c-0.4,4.1-1.6,8.2-0.9,12.4c-7.4-0.5-10.6,3.1-11.7,7.3c-0.5,2.1-0.7,4.3-0.9,6.4
		c-0.6,10.4,0.7,20.6,4.5,30.4c5.3,13.4,13.8,24.2,25.6,32.3c9.2,6.4,19.5,10.1,30.6,11.7c2,0.3,3.9,0.3,5.9,0.4
		C129.3,196.1,130,196.1,130.6,196.6z"/>
	<path class="st2" d="M74.5,107.6c-0.8-4.2,0.5-8.3,0.9-12.4c0.8-0.4,0.8-1.3,1-1.9c5.1-13.5,18-21.5,33-20.4
		c13.1,1,25,11.7,27.7,25.1c0.2,1.1,0.4,2.1,0.5,3.2c0.3,4.2,0,8.4-1.2,12.4c-3.2,9.6-9.4,16.7-18.9,20.3
		c-19.4,7.4-39.7-4.8-42.8-25.5C74.5,108.1,74.5,107.8,74.5,107.6z M106.1,129.7c14,0,25.4-11.5,25.3-25.4C131.3,90.3,120,79,106,79
		c-14,0-25.4,11.3-25.4,25.4C80.7,118.4,92,129.7,106.1,129.7z"/>
	<path class="st3" d="M67.8,78.3c-0.3,1.1-1.3,1.3-2,1.9C60,85,55.9,91,52.3,97.4c-5.7,10.2-9.8,20.9-12,32.4
		c-0.2,1.1-0.2,2.4-1.9,2.3c-1.5-2-1.2-4.4-1.4-6.6c-1.9-14.6,0.6-28.6,6.7-42c2.2-4.8,4.9-9.2,8.2-13.3c4,3.9,8.6,6.8,14.1,7.9
		C66.6,78.2,67.2,78.3,67.8,78.3z"/>
	<path class="st1" d="M13.2,72.5C21,72.8,27.3,75.9,31,83.1c3.4,6.6,2.8,13.9-1.9,20.1c-2.6,3.4-5.9,5.6-9.9,6.7
		c-3.7,1.1-7.4,0.7-11.1-0.2c-0.5-1.5-0.4-3.2-0.2-4.7c0.2-1.9,1.6-1.6,2.9-1.3c3.4,0.9,6.5,0.5,9.6-1.2c7.3-4,8.5-13.6,2.4-19.3
		c-2.6-2.5-5.5-4.3-9.3-4.3c-1.7,0-2.1-1-1.7-2.4C12.1,75.2,12.7,73.9,13.2,72.5z"/>
	<path class="st3" d="M144.3,130.4c0.3-1.1,1.3-1.3,2-1.9c5.7-4.7,9.8-10.7,13.4-17.1c5.7-10.3,9.9-21.1,12-32.8
		c0.2-1,0.4-2.1,1.9-1.9c1.5,2,1.2,4.4,1.4,6.6c1.9,14.6-0.6,28.6-6.7,42c-2.2,4.8-4.9,9.2-8.2,13.3c-4-3.9-8.6-6.8-14.1-7.9
		C145.4,130.5,144.8,130.5,144.3,130.4z"/>
	<path class="st4" d="M106.1,129.7c-14,0-25.4-11.3-25.4-25.3C80.7,90.3,92,79,106,79c13.9,0,25.3,11.3,25.3,25.2
		C131.4,118.2,120.1,129.7,106.1,129.7z"/>
</g>
</svg>
