<svg width="13" height="8" viewBox="0 0 13 8" fill="none" xmlns="http://www.w3.org/2000/svg">
<path d="M6.5815 1.03886C8.12837 2.58574 9.67525 4.13261 11.2221 5.67949C11.4471 5.90449 11.6721 6.12949 11.8971 6.35449C12.4034 6.86074 11.6159 7.67636 11.1096 7.14199C9.56275 5.59511 8.01587 4.04824 6.469 2.50136C6.38462 2.41699 6.30025 2.33261 6.21587 2.24824C4.80962 3.65449 3.40337 5.06074 1.99712 6.46699C1.77212 6.69199 1.57524 6.88886 1.35025 7.11386C0.843995 7.62011 0.0283709 6.83261 0.562746 6.32636L5.17525 1.71386L5.82212 1.06699C5.99087 0.813861 6.3565 0.813861 6.5815 1.03886Z" fill="#98A7B5"/>
</svg>
