<?xml version="1.0" encoding="utf-8"?>
<!-- Generator: Adobe Illustrator 24.3.0, SVG Export Plug-In . SVG Version: 6.00 Build 0)  -->
<svg version="1.1" id="Layer_1" xmlns="http://www.w3.org/2000/svg" xmlns:xlink="http://www.w3.org/1999/xlink" x="0px" y="0px"
	 viewBox="0 0 32 32" style="enable-background:new 0 0 32 32;" xml:space="preserve">
<style type="text/css">
	.st0{fill-rule:evenodd;clip-rule:evenodd;fill:#FFA617;}
	.st1{fill:#FFFFFF;}
</style>
<g>
	<circle class="st0" cx="16" cy="16" r="16"/>
</g>
<path class="st1" d="M20.4,17.5c0.2,0.6,0.7,0.8,1.2,0.8c1.4,0,2.8,0,4.2,0c0,0,0.1,0,0.1,0c-0.3-1.8-0.9-3.4-2.4-4.4
	c-0.2-0.1-0.2-0.2-0.2-0.4c0.2-0.7,0.3-1.3,0.5-2c0-0.2,0.1-0.3,0.2-0.3c0-0.4,0.1-0.9,0.1-1.3c0,0,0,0,0.1,0
	c0.2,0.1,0.3,0.3,0.5,0.4c1.2,1.1,1.9,2.5,2.2,4.1c0.2,1,0.2,2,0.3,3.1c0,1.4,0,2.7,0,4.1c0,0.1,0,0.2,0,0.2c-0.1,0-0.2,0-0.3,0
	c-1.8,0-3.6,0-5.3,0c-0.2,0-0.3,0-0.5,0c-0.9-0.1-1.5-0.6-1.5-1.5c0-0.9,0.1-1.7,0.2-2.6c0-0.1,0.1-0.1,0.2-0.1
	C20.1,17.4,20.2,17.5,20.4,17.5z"/>
<path class="st1" d="M8.7,6.4C8.8,7,8.9,7.7,9,8.4c0.3,1.8,0.6,3.5,0.8,5.3c0.2,1.6,0.3,3.1,0.3,4.7c0,0.9-0.3,1.8-0.6,2.7
	C9.3,21.5,9,22,8.8,22.5c-0.3-0.1-0.5-0.2-0.8-0.3c0.1-0.5,0.2-1.1,0.2-1.6c0-0.9,0.1-1.8,0-2.7c-0.1-1.5-0.3-3-0.5-4.5
	c-0.1-1-0.3-1.9-0.5-2.8c-0.1-0.5-0.1-1,0.1-1.4C7.7,8.2,8.2,7.3,8.7,6.4C8.6,6.4,8.6,6.4,8.7,6.4z"/>
<path class="st1" d="M13.6,25.4c0-1.2,0-2.3,0-3.5c1.2,0,2.3,0,3.5,0c0,1.2,0,2.3,0,3.5C16,25.4,14.8,25.4,13.6,25.4z"/>
<path class="st1" d="M7.7,25.3c0.7,0.6,1.4,1.1,2.4,0.6"/>
</svg>
