<svg width="10" height="10" viewBox="0 0 10 10" fill="none" xmlns="http://www.w3.org/2000/svg">
<path d="M5 0C2.25371 0 0 2.25371 0 5C0 7.74629 2.25371 10 5 10C7.74629 10 10 7.74629 10 5C10 2.25371 7.74629 0 5 0ZM5.58594 7.34375C5.58594 7.66676 5.32301 7.92969 5 7.92969C4.67699 7.92969 4.41406 7.66676 4.41406 7.34375V4.41406C4.41406 4.09105 4.67699 3.82812 5 3.82812C5.32301 3.82812 5.58594 4.09105 5.58594 4.41406V7.34375ZM5 3.24219C4.67699 3.24219 4.41406 2.97926 4.41406 2.65625C4.41406 2.33324 4.67699 2.07031 5 2.07031C5.32301 2.07031 5.58594 2.33324 5.58594 2.65625C5.58594 2.97926 5.32301 3.24219 5 3.24219Z" fill="#98A7B5"/>
</svg>
