<svg width="221" height="137" xmlns="http://www.w3.org/2000/svg" xmlns:xlink="http://www.w3.org/1999/xlink"><defs><linearGradient x1="110.96%" y1="11.864%" x2="19.36%" y2="72.6%" id="b"><stop stop-color="#555B65" offset="0%"/><stop stop-color="#40424D" offset="100%"/></linearGradient><rect id="a" x="0" y="0" width="220" height="135.568" rx="8"/><path id="c" d="M0 0h81v77.4H0z"/></defs><g fill="none" fill-rule="evenodd"><use fill="url(#b)" xlink:href="#a" transform="translate(.5 .5)"/><path fill="#34363F" d="M15.959 38.554h15.459v9.514H15.959z"/><path fill="#34363F" opacity=".326" d="M38.554 38.554h30.919v9.514H38.554z"/><path fill="#34363F" d="M15.959 67.095h15.459v9.514H15.959z"/><path fill="#34363F" opacity=".326" d="M38.554 67.095h61.838v9.514H38.554z"/><path fill="#34363F" d="M15.959 52.824h15.459v9.514H15.959z"/><path fill="#34363F" opacity=".326" d="M38.554 52.824h45.189v9.514H38.554z"/><path fill="#34363F" d="M15.959 81.365h15.459v9.514H15.959zM15.959 114.662h49.946v9.514H15.959z"/><path fill="#34363F" opacity=".326" d="M38.554 81.365h61.838v9.514H38.554zM71.851 114.662h132v9.514h-132z"/><g opacity=".438" transform="translate(119.5 18.5)"><mask id="d" fill="#fff"><use xlink:href="#c"/></mask><use fill-opacity="0" fill="#1C1E25" opacity=".179" xlink:href="#c"/><g mask="url(#d)"><g transform="translate(3.478 4.437)"><path d="M29.532 15.903c-.243.819-.847 1.421-1.812 1.807-1.448.578-17.854-2.532-23.21.238-5.356 2.77-4.898 7.089-3.85 8.295.698.805 1.75 1.544 3.153 2.218-1.773 1.184-2.1 2.692-.981 4.524 1.678 2.748 15.591 6.224 16.644 9.856.702 2.42.89 4.591.563 6.511l45.472-8.784c.68-7.335-.276-12.939-2.867-16.811-2.591-3.873-5.51-6.49-8.754-7.854l-16.572-3.66-7.786 3.66z" fill="#585B6A"/><path d="M51.605 2.592c2.213-.894 4.079-.985 5.598-.273 1.52.711 2.382 1.944 2.587 3.698M34.297.91c1.951-.915 3.657-1.14 5.116-.675 1.46.466 2.583 1.536 3.371 3.211" stroke="#272931" stroke-width="1.62" stroke-linecap="round" stroke-linejoin="round"/><g transform="translate(40.937 4.893)"><circle stroke="#272931" stroke-width="1.6" fill="#9E9FA8" cx="8.91" cy="9.345" r="8.11"/><circle fill="#0E0F12" cx="8.865" cy="8.74" r="3.645"/></g><g transform="translate(26.138 2.058)"><circle stroke="#272931" stroke-width="1.6" fill="#9E9FA8" cx="7.841" cy="8.224" r="7.041"/><circle fill="#0E0F12" cx="8.46" cy="8.186" r="3.208"/></g><path d="M57.784 17.71c2.678 1.335 4.842 4.944 6.491 10.83 1.321 4.712 1.554 16.71 2.702 27.598.669 6.338 1.682 10.285 3.04 11.84" stroke="#272931" stroke-width="1.296" fill="#585B6A"/><path d="M37.453 30.264c-.894.878-1.246 2.09-1.057 3.635.19 1.545.82 2.552 1.893 3.02M3.813 28.461c-2.049 2.558-1.865 4.697.55 6.415 3.625 2.578 12.178 4.134 14.191 7.02 1.343 1.924 1.775 4.657 1.297 8.199" stroke="#272931" stroke-width="1.62" stroke-linecap="round" stroke-linejoin="round"/><path d="M27.265 33c.381-2.318 1.189-3.477 2.423-3.477 1.235 0 1.782 1.56 1.642 4.682M15.505 31.864c.045 2.58.478 3.869 1.3 3.869.823 0 1.713-1.177 2.671-3.532M8.988 29.523c.01 2.575.385 3.931 1.124 4.069.74.138 1.564-.852 2.473-2.969" stroke="#272931" stroke-width="1.296" fill="#9E9FA8"/><path d="M7.246 24.52c-.115-.917.156-1.586.813-2.009.657-.422 1.458-.526 2.402-.312M4.006 22.9c-.115-.917.156-1.586.813-2.009.657-.422 1.458-.526 2.402-.312" stroke="#272931" stroke-width="1.62" stroke-linecap="round" stroke-linejoin="round"/><ellipse stroke="#272931" stroke-width="1.296" fill="#585B6A" transform="rotate(86 58.167 24.12)" cx="58.167" cy="24.12" rx="2.592" ry="1.782"/><ellipse stroke="#272931" stroke-width="1.296" fill="#585B6A" transform="rotate(86 60.22 30.975)" cx="60.219" cy="30.975" rx="2.997" ry="2.187"/><ellipse stroke="#272931" stroke-width="1.296" fill="#585B6A" transform="rotate(86 53.016 32.244)" cx="53.016" cy="32.244" rx="1.782" ry="1.377"/><rect stroke="#979797" stroke-width=".81" fill="#D8D8D8" x="48.632" y="47.043" width="8.91" height="8.91" rx="1.62"/><path d="M13.866 19.442c1.749-.12 4.54-.023 8.375.293.931.077 1.8.156 2.607.238M9.651 19.645l1.62-.203" stroke="#9E9FA8" stroke-width="1.296" stroke-linecap="round"/><path d="M48.526 45.51l-8.84 9.285c5.073 1.087 8.359 3.192 9.857 6.316 1.498 3.124 2.964 5.413 4.397 6.867 4.352-7.242 6.527-12.863 6.527-16.864v-9.199L48.526 45.51z"/><path d="M26.138 17.71c2.437 1.84 5.01 2.683 7.721 2.526 2.71-.156 4.695-.86 5.953-2.114 1.52 3.71 3.776 6.02 6.765 6.932 2.99.91 6.27.6 9.842-.934 1.018 1.197 1.798 2.33 2.338 3.401a10.24 10.24 0 011.033 3.276l4.759-1.476c-1.296-4.619-2.413-7.487-3.351-8.603-.938-1.117-2.168-2.174-3.687-3.171-2.667 3.796-5.312 5.424-7.934 4.884-3.933-.81-6.647-3.275-7.239-4.721-.394-.965-.59-2.662-.59-5.092-2.48 3.286-4.713 4.929-6.7 4.929s-3.738-.428-5.254-1.284l-3.656 1.447z" fill="#272931" opacity=".505"/><path d="M29.308 16.273c-.426 1.12-1.512 1.6-3.258 1.437-2.618-.245-17.208-1.772-21.54.238-4.332 2.01-5.604 7.49-2.802 9.502 2.802 2.013 6.998 1.59 9.549 2.724 2.55 1.134 5.86 2.103 10.327 2.103 4.466 0 6.119 1.647 9.496 1.881 2.251.157 4.023-.08 5.316-.712" stroke="#272931" stroke-width="1.62" stroke-linecap="round" stroke-linejoin="round"/><path d="M21.122 50.095c6.28-4.409 12.593-7.96 18.938-10.658 9.517-4.044 23.743-11.745 25.663-9.81 1.28 1.291 1.505 2.937.677 4.94l4.502 29.955 7.727 11.909c-7.37 4.128-17.692 6.687-30.967 7.677-19.911 1.485-27.784-2.33-28.978-4.278-.796-1.298-.796-2.431 0-3.4l-3.564 4.628c-1.462-4.426-1.828-8.61-1.096-12.55.73-3.94 1.353-6.581 1.866-7.922-.48-1.874-.369-3.6.333-5.177.702-1.577 2.335-3.348 4.899-5.314z" fill="#30323C"/><path d="M25.004 46.866c6.07-3.465 13.403-6.937 21.999-10.417 12.894-5.22 17.33-7.457 18.508-6.82 1.18.635 1.777 4.937.889 4.937-.889 0-2.681-.771-6.75.791-2.714 1.042-8.678 5.707-17.892 13.995l-4.44-.977" stroke="#272931" stroke-width="1.62" stroke-linecap="round" stroke-linejoin="round"/><path d="M34.975 44.54l3.667 6.22c-2.344.193-4.665 1.481-6.962 3.864-2.298 2.383-6.716 7.894-13.257 16.534" stroke="#272931" stroke-width="1.62" stroke-linecap="round" stroke-linejoin="round"/><path d="M43.282 56.441c1.947.702 3.533 1.763 4.751 3.19 1.27 1.486 2.564 3.846 3.898 7.07-.408.635-1.129 1.349-2.141 2.157-.792.632-1.77.995-2.687 1.127-.933.133-1.82.046-2.321-.317.022-1.105.402-1.744 1.001-2.521.574-.744 1.076-1.262 1.524-1.53-.627.18-1.346.345-2.156.498-1.59.298-2.87.421-3.838.36-.757-.049-1.317-.18-1.597-.521-.03-.49.102-.731.3-1.007.517-.72 1.471-1.584 2.849-2.606a27.84 27.84 0 011.1-.779c-.399-.097-.83-.218-1.296-.361-1.328-.408-2.326-.813-2.99-1.227-.406-.253-.742-.476-.742-.764 0-.317.424-.62.964-.996.764-.532 1.892-1.121 3.381-1.773z" stroke="#272931" stroke-width="1.296" fill="#585B6A"/><path d="M15.505 57.849c.15 2.35.673 4.86 1.571 7.53.898 2.67 1.555 4.215 1.972 4.634" stroke="#272931" stroke-width="1.62" stroke-linecap="round" stroke-linejoin="round"/><circle stroke="#272931" stroke-width="1.296" fill="#585B6A" cx="21.497" cy="72.558" r="1"/><circle stroke="#272931" stroke-width="1.296" fill="#585B6A" cx="21.497" cy="77.418" r="1"/><path d="M19.476 55.056c-1.052 15.673-1.315 23.93-.792 24.774.786 1.266 8.364 5.891 23.746 4.963 10.255-.62 22.321-3.199 36.199-7.74l-7.727-12.53-4.722-30.318" stroke="#272931" stroke-width="1.62" stroke-linecap="round" stroke-linejoin="round"/><path d="M15.89 60.586a58.087 58.087 0 00-1.785 10.624c-.257 3.541.095 6.824 1.055 9.848l3.263-4.688" stroke="#272931" stroke-width="1.62" stroke-linecap="round" stroke-linejoin="round"/><path d="M20.04 50.095c2.051-2.454 4.222-3.681 6.511-3.681 3.435 0 3.2 9.511.714 12.393-1.658 1.92-4.066.648-7.226-3.819M19.85 50.095c-.7-2.824-1.909-4.476-3.627-4.954-2.577-.718-3.363 12.708-.718 12.708 1.763 0 2.835-1.015 3.215-3.045" stroke="#272931" stroke-width="1.296" fill="#30323C"/><path d="M47.615 46.15c-5.667 5.764-8.31 8.645-7.93 8.645.572 0 6.275 1.179 9.297 5.493 3.022 4.313 3.405 7.69 4.678 7.69 1.273 0 5.68-6.615 6.54-14.337.573-5.148.689-8.748.347-10.8" stroke="#272931" stroke-width="1.62" stroke-linecap="round" stroke-linejoin="round"/><ellipse stroke="#272931" stroke-width="1.296" fill="#30323C" transform="rotate(8 19.476 52.657)" cx="19.476" cy="52.657" rx="2.025" ry="2.835"/><path d="M60.22 30.975l1.455 3.834c-5.07 2.353-8.354 4.28-9.851 5.78-1.498 1.501-4.782 4.422-9.852 8.763l-3.716-.958.13 2.408c-1.545-.103-3.444 1.046-5.698 3.446-2.253 2.4-6.8 7.88-13.64 16.44v1.87c8.73-10.385 13.783-16.256 15.162-17.612 1.38-1.355 3.204-2.51 5.476-3.465l-.77-1.386 3.827.707c6.827-5.618 11.085-9.022 12.774-10.212 1.69-1.19 3.742-2.233 6.158-3.126.06 4.762-.252 9.625-.936 14.588-.685 4.964-2.951 10.272-6.799 15.926h-1.287c.633.673 1.864.8 3.691.383 2.742-.625 6.155-6.763 6.958-12.003.535-3.493.95-7.746 1.247-12.759-.08 9.588.507 16.724 1.76 21.41 1.254 4.686 3.76 9.11 7.518 13.275l4.802-1.23-7.727-12.532-4.593-29.713c.345-.937.517-1.662.517-2.175 0-.77-.898-2.8-1.587-2.956-.46-.103-2.133.329-5.02 1.297z" fill="#272931" opacity=".404"/></g></g></g></g></svg>