<svg width="835" height="164" viewBox="0 0 835 164" fill="none" xmlns="http://www.w3.org/2000/svg">
<path d="M6.32812 131.5V33.3182H48.7074C55.9943 33.3182 62.3704 34.6445 67.8356 37.2972C73.3008 39.9499 77.5515 43.7692 80.5877 48.755C83.6239 53.7408 85.142 59.7173 85.142 66.6847C85.142 73.7159 83.576 79.6445 80.4439 84.4705C77.3438 89.2965 72.9812 92.94 67.3562 95.4009C61.7631 97.8619 55.2273 99.0923 47.7486 99.0923H22.4361V78.3821H42.3793C45.5114 78.3821 48.18 77.9986 50.3853 77.2315C52.6225 76.4325 54.3324 75.1701 55.5149 73.4442C56.7294 71.7184 57.3367 69.4652 57.3367 66.6847C57.3367 63.8722 56.7294 61.587 55.5149 59.8292C54.3324 58.0394 52.6225 56.729 50.3853 55.8981C48.18 55.0352 45.5114 54.6037 42.3793 54.6037H32.983V131.5H6.32812ZM63.8565 86.4361L88.402 131.5H59.446L35.4759 86.4361H63.8565ZM140.808 134.185C131.892 134.153 124.189 132.091 117.701 128C111.213 123.909 106.212 118.013 102.696 110.31C99.1803 102.608 97.4384 93.3714 97.4704 82.6009C97.5023 71.7983 99.2602 62.6257 102.744 55.0831C106.259 47.5405 111.245 41.8036 117.701 37.8725C124.189 33.9414 131.892 31.9758 140.808 31.9758C149.725 31.9758 157.428 33.9574 163.916 37.9205C170.404 41.8516 175.405 47.5884 178.921 55.131C182.437 62.6736 184.178 71.8303 184.147 82.6009C184.147 93.4354 182.389 102.704 178.873 110.406C175.357 118.109 170.356 124.005 163.868 128.096C157.412 132.155 149.725 134.185 140.808 134.185ZM140.808 112.516C145.411 112.516 149.182 110.119 152.122 105.325C155.095 100.499 156.565 92.924 156.533 82.6009C156.533 75.8572 155.862 70.3441 154.519 66.0614C153.177 61.7788 151.323 58.6147 148.958 56.5692C146.593 54.4918 143.877 53.4531 140.808 53.4531C136.206 53.4531 132.451 55.7862 129.542 60.4524C126.634 65.1186 125.148 72.5014 125.084 82.6009C125.052 89.4723 125.707 95.1293 127.05 99.5717C128.392 103.982 130.246 107.242 132.611 109.352C135.008 111.461 137.74 112.516 140.808 112.516ZM197.817 131.5V33.3182H224.472V110.023H264.167V131.5H197.817ZM276.291 131.5V33.3182H302.946V110.023H342.641V131.5H276.291Z" fill="#4FC127"/>
<path d="M475.015 65.7258C474.599 64.032 473.944 62.5458 473.049 61.2674C472.155 59.957 471.036 58.8544 469.694 57.9595C468.383 57.0327 466.849 56.3455 465.091 55.8981C463.365 55.4187 461.464 55.179 459.386 55.179C454.912 55.179 451.093 56.2496 447.929 58.391C444.797 60.5323 442.4 63.6165 440.738 67.6435C439.108 71.6705 438.293 76.5284 438.293 82.2173C438.293 87.9702 439.076 92.892 440.642 96.983C442.208 101.074 444.541 104.206 447.641 106.379C450.741 108.553 454.592 109.639 459.195 109.639C463.254 109.639 466.625 109.048 469.31 107.865C472.027 106.683 474.056 105.005 475.398 102.832C476.741 100.658 477.412 98.1016 477.412 95.1612L482.014 95.6406H459.578V76.6562H503.108V90.2713C503.108 99.2202 501.206 106.875 497.403 113.235C493.632 119.563 488.422 124.421 481.775 127.809C475.159 131.164 467.568 132.842 459.003 132.842C449.447 132.842 441.057 130.813 433.834 126.754C426.611 122.695 420.97 116.91 416.911 109.4C412.884 101.889 410.871 92.956 410.871 82.6009C410.871 74.483 412.101 67.2919 414.562 61.0277C417.055 54.7635 420.507 49.4741 424.917 45.1594C429.328 40.8129 434.425 37.5369 440.21 35.3317C445.995 33.0945 452.195 31.9758 458.811 31.9758C464.628 31.9758 470.029 32.8068 475.015 34.4688C480.033 36.0987 484.459 38.4318 488.294 41.468C492.162 44.4723 495.278 48.0359 497.643 52.1587C500.008 56.2816 501.446 60.804 501.957 65.7258H475.015ZM629.865 33.3182H663.039L685.859 88.929H687.01L709.829 33.3182H743.004V131.5H716.924V74.7386H716.157L694.296 130.733H678.572L656.711 74.3551H655.944V131.5H629.865V33.3182ZM756.986 131.5V33.3182H827.746V54.7955H783.641V71.6705H824.103V93.1477H783.641V110.023H827.554V131.5H756.986Z" fill="white"/>
<path d="M591.404 111.949L607.221 139.351H566.742H526.263L541.781 112.438L547.316 111.244C552.037 110.213 556.459 108.178 560.258 105.302L547.777 126.898H566.742H585.679L573.199 105.302C578.462 109.263 584.784 111.569 591.404 111.949ZM529.979 68.5127C527.131 71.3614 525.72 75.0784 525.72 78.7953C525.72 82.5122 527.131 86.2292 529.979 89.0779C532.828 91.9266 536.545 93.3375 540.262 93.3375C542.378 93.3375 544.522 92.8762 546.475 91.9538L538.526 105.709C532.204 105.302 526.018 102.698 521.189 97.8683C515.926 92.6049 513.294 85.6865 513.294 78.7953C513.294 71.904 515.926 64.9857 521.189 59.7223L537.413 43.498L541.809 47.8932L546.204 52.2884L566.742 72.8265L571.137 77.2217L571.707 77.7914L575.532 81.6169L582.939 89.0236C585.788 91.8724 589.505 93.2832 593.222 93.2832C596.939 93.2832 600.655 91.8724 603.504 89.0236C606.353 86.1749 607.764 82.458 607.764 78.741C607.764 75.0241 606.353 71.3072 603.504 68.4584L596.097 61.0517L579.955 77.1946L571.137 68.377L587.28 52.2341L591.675 47.8389L596.07 43.4437L612.295 59.668C617.558 64.9314 620.19 71.8498 620.19 78.741C620.19 85.6323 617.558 92.5507 612.295 97.8141C607.031 103.077 600.113 105.709 593.222 105.709C586.33 105.709 579.412 103.077 574.149 97.8141L566.742 90.4344L559.335 97.8412C555.537 101.64 550.897 104.081 545.987 105.139L558.955 82.675L537.386 61.106L529.979 68.5127ZM541.781 39.0757L566.742 14.1152L591.702 39.0757L582.885 47.8932L566.742 31.7232L550.599 47.8661L541.781 39.0757Z" fill="#4FC127"/>
<path d="M529.979 68.5127C527.131 71.3614 525.72 75.0784 525.72 78.7953C525.72 82.5122 527.131 86.2292 529.979 89.0779C532.828 91.9266 536.545 93.3375 540.262 93.3375C542.378 93.3375 544.522 92.8762 546.475 91.9538L538.526 105.709C532.204 105.302 526.018 102.698 521.189 97.8683C515.926 92.6049 513.294 85.6865 513.294 78.7953C513.294 71.904 515.926 64.9857 521.189 59.7223L537.413 43.498L541.809 47.8932L546.204 52.2884L566.742 72.8265L571.137 77.2217L571.707 77.7914L575.532 81.6169L582.939 89.0236C585.788 91.8724 589.505 93.2832 593.222 93.2832C596.939 93.2832 600.655 91.8724 603.504 89.0236C606.353 86.1749 607.764 82.458 607.764 78.741C607.764 75.0241 606.353 71.3072 603.504 68.4584L596.097 61.0517L579.955 77.1946L571.137 68.377L587.28 52.2341L591.675 47.8389L596.07 43.4437L612.295 59.668C617.558 64.9314 620.19 71.8498 620.19 78.741C620.19 85.6323 617.558 92.5507 612.295 97.8141C607.031 103.077 600.113 105.709 593.222 105.709C586.33 105.709 579.412 103.077 574.149 97.8141L566.742 90.4344L559.335 97.8412C555.537 101.64 550.897 104.081 545.987 105.139L558.955 82.675L537.386 61.106L529.979 68.5127Z" fill="white"/>
<rect x="361.928" y="119.32" width="18.4291" height="18.4291" transform="rotate(-45 361.928 119.32)" fill="#4FC127"/>
</svg>
