<svg width="766" height="778" viewBox="0 0 766 778" fill="none" xmlns="http://www.w3.org/2000/svg">
<path d="M302.965 77.6019L338.195 40.8767L343.055 35.8109L376.234 1.22993L376.332 1.12043L376.435 1.02033L407.11 30.447L453.016 74.4834L451.714 75.841L444.429 83.435L421.387 107.455L415.042 114.069L413.725 115.442L409.505 119.841L411.229 121.352L350.046 122.623L348.323 121.112L302.965 77.6019Z" fill="url(#paint0_radial_110_24)"/>
<path d="M376.552 16.5636L376.229 1.02148L376.332 1.12049L376.439 1.22255L452.811 74.4846L445.201 82.4172L376.552 16.5636Z" fill="url(#paint1_linear_110_24)"/>
<path d="M302.766 77.6025L376.229 1.02107L376.552 16.5632L318.061 77.5374L310.794 85.1121L310.748 85.1604L310.698 85.212L302.766 77.6025Z" fill="url(#paint2_linear_110_24)"/>
<path d="M409.316 120.328L452.823 74.9739L437.523 75.0517L408.993 104.792L409.316 120.328Z" fill="url(#paint3_linear_110_24)"/>
<path d="M303.364 78.0838L303.465 78.0817L318.061 77.5381L318.654 77.5195L348.398 106.052L348.721 121.588L310.748 85.1611L303.364 78.0838Z" fill="url(#paint4_linear_110_24)"/>
<path d="M333.548 141.352L333.12 120.717L319.588 120.999L320.017 141.634L333.548 141.352Z" fill="#9B9B9B"/>
<path d="M431.231 139.325L430.802 118.69L417.266 118.971L417.695 139.606L431.231 139.325Z" fill="#9B9B9B"/>
<path d="M299.012 202.545L268.353 170.283L268.208 168.456L251.665 169.093L243.377 169.412L249.09 175.423L279.19 207.096L326.61 592.284C326.73 597.855 327.018 603.425 327.485 608.971C329.645 635.022 335.555 660.654 345.045 685.21L348.543 683.858L345.045 685.21C348.872 695.112 353.274 704.839 358.257 714.347L378.2 754.327L378.264 754.456L378.337 754.578L386.383 768.031L391.022 765.5L391.852 765.981L392.643 764.615L392.962 764.442L392.861 764.239L394.379 761.622L394.498 761.417L394.59 761.198L398.541 751.833L399.233 750.192L398.399 748.619L394.727 741.693L394.719 741.678L392.361 737.181L392.077 736.64L392.071 736.635L378.451 710.626L378.451 710.625C372.977 700.176 368.215 689.45 364.172 678.517C364.023 678.114 363.882 677.727 363.738 677.33C363.64 677.06 363.54 676.785 363.435 676.499C354.368 651.368 348.153 625.255 346.884 598.871C346.81 597.332 346.452 595.842 346.185 594.731C346.168 594.661 346.152 594.592 346.136 594.524C345.832 593.255 345.653 592.415 345.637 591.656L345.634 591.474L345.612 591.294L300.018 204.689L299.872 203.45L299.012 202.545Z" fill="url(#paint5_linear_110_24)" stroke="url(#paint6_linear_110_24)" stroke-width="7.5"/>
<path d="M377.368 751.74L378.165 750.053L380.701 744.679L380.701 744.678L384.645 736.314L384.906 735.76L384.914 735.752L386.828 731.701L386.829 731.699L397.444 709.209L400.835 710.81L397.444 709.209C403.57 696.232 408.63 682.903 412.602 669.315L416.201 670.367L412.602 669.315C412.619 669.255 412.635 669.201 412.649 669.152C412.702 668.974 412.738 668.85 412.774 668.715L412.785 668.674L412.797 668.634C420.297 642.742 423.847 615.967 423.288 589.069L423.285 588.911L423.295 588.754L447.79 200.86L447.879 199.459L448.866 198.46L482.43 164.515L483.498 163.434L485.018 163.402L498.558 163.121L507.806 162.929L501.302 169.506L468.72 202.46L444.323 588.783C444.363 590.786 444.386 592.794 444.374 594.807C444.373 594.991 444.373 595.185 444.373 595.386C444.373 595.822 444.372 596.287 444.366 596.732C444.33 600.234 444.236 603.738 444.069 607.24L444.069 607.241C444.026 608.116 443.981 609.001 443.928 609.885C443.879 610.771 443.824 611.659 443.762 612.537C443.721 613.194 443.67 613.864 443.622 614.502C443.605 614.729 443.588 614.952 443.572 615.17C443.521 615.906 443.458 616.637 443.398 617.336C443.385 617.498 443.371 617.659 443.357 617.818C443.333 618.122 443.306 618.42 443.28 618.693C443.254 618.977 443.231 619.235 443.21 619.491L443.208 619.513L443.206 619.535C443.016 621.605 442.797 623.673 442.553 625.727C442.507 626.193 442.448 626.647 442.396 627.046C442.323 627.681 442.243 628.312 442.161 628.934C442.051 629.826 441.931 630.717 441.806 631.605C441.684 632.476 441.562 633.346 441.433 634.232L441.431 634.249L441.428 634.266C441.395 634.481 441.36 634.717 441.323 634.962C441.257 635.405 441.186 635.878 441.113 636.323C440.996 637.106 440.868 637.882 440.74 638.636C440.661 639.141 440.577 639.634 440.491 640.113C440.371 640.828 440.245 641.534 440.123 642.218L440.123 642.222C440.122 642.225 440.121 642.229 440.121 642.232M377.368 751.74L435.946 644.187C436.115 643.315 436.277 642.442 436.429 641.573L440.121 642.232M377.368 751.74L378.234 753.393L385.28 766.846L385.564 767.388L386.006 767.812L386.009 767.815L389.772 771.425L391.997 766.709L394.269 761.891L394.272 761.888L394.534 761.333L398.477 752.969L398.478 752.968L417.756 712.121L377.368 751.74ZM440.121 642.232C439.965 643.117 439.801 644.002 439.631 644.883M440.121 642.232L439.631 644.883M439.631 644.883C439.48 645.702 439.32 646.519 439.163 647.312L439.162 647.32L439.16 647.328C439.111 647.571 439.062 647.817 439.012 648.065C438.91 648.571 438.807 649.085 438.702 649.596L438.699 649.61L438.696 649.623C438.661 649.788 438.62 649.986 438.577 650.194C438.511 650.514 438.439 650.86 438.375 651.155C437.828 653.714 437.248 656.263 436.626 658.813C436.521 659.257 436.41 659.699 436.306 660.118L436.243 660.368C436.242 660.371 436.242 660.373 436.241 660.376C435.87 661.886 435.481 663.387 435.076 664.881C434.897 665.552 434.712 666.24 434.518 666.928C434.002 668.805 433.465 670.7 432.9 672.582L432.899 672.585L432.562 673.705L432.561 673.71C428.603 686.78 423.662 699.618 417.756 712.12L439.631 644.883Z" fill="url(#paint7_linear_110_24)" stroke="url(#paint8_linear_110_24)" stroke-width="7.5"/>
<path d="M219.301 200.237C219.318 200.123 219.337 200.006 219.36 199.892C219.396 199.654 219.436 199.413 219.478 199.175C228.467 145.556 278.572 101.936 343.663 90.2963C346.044 89.8676 348.447 89.4858 350.87 89.1542C358.48 88.0827 366.276 87.4498 374.212 87.2849C382.21 87.1187 390.076 87.4324 397.781 88.1982C400.156 88.427 402.513 88.7003 404.852 89.0246C404.909 89.0298 404.973 89.0411 405.03 89.0463C464.376 97.1896 512.5 132.059 529.297 178.135C529.421 178.484 529.551 178.832 529.669 179.18C529.831 179.638 529.995 180.099 530.147 180.567C531.571 184.782 532.742 189.087 533.62 193.471C533.643 193.55 533.654 193.622 533.672 193.701L500.838 194.383C500.531 193.928 500.221 193.47 499.909 193.021C484.635 170.859 460.321 153.411 431.015 143.831C426.579 142.381 422.04 141.11 417.397 140.031C413.18 139.05 408.884 138.229 404.515 137.568L404.535 137.599L400 133L404.515 137.568L377.061 160.63L346.017 138.784C345.747 138.834 345.482 138.896 345.212 138.946C341.151 139.744 337.164 140.693 333.245 141.777C333.016 141.841 332.777 141.903 332.548 141.968C328.196 143.193 323.94 144.584 319.797 146.139C293.885 155.827 272.234 171.671 257.703 191.279C255.711 193.969 253.85 196.729 252.132 199.552L219.298 200.234L219.301 200.237Z" fill="url(#paint9_radial_110_24)"/>
<path d="M219.177 198.895C227.691 144.759 278.081 100.614 343.656 88.9295C346.036 88.5008 348.439 88.119 350.863 87.7937C358.435 86.7293 366.187 86.1036 374.084 85.9395L374.204 85.937C382.203 85.7771 390.069 86.0908 397.774 86.863C400.149 87.0917 402.503 87.3747 404.846 87.6958C404.903 87.7009 404.966 87.7059 405.023 87.7173C464.465 95.9092 512.626 130.92 529.297 177.135C529.421 177.483 529.551 177.831 529.669 178.18C529.83 178.638 529.995 179.099 530.147 179.567C531.502 183.628 532.615 187.78 533.477 192C533.477 192 533.471 192 533.477 192.006C533.505 192.125 533.529 192.242 533.551 192.362L531.15 192.411C530.441 190.097 529.651 187.81 528.782 185.546C511.448 140.249 463.741 106.082 405.058 98.0604C395.131 96.6991 384.882 96.0873 374.42 96.2984L374.3 96.3009C363.875 96.5176 353.701 97.5381 343.871 99.2972C285.463 109.695 239.116 145.848 223.658 191.887C222.884 194.179 222.193 196.5 221.578 198.845L219.177 198.895Z" fill="url(#paint10_linear_110_24)"/>
<path d="M533.672 192.701C533.186 190.271 530.225 187.103 528.985 185.542L500.687 186.13L500.838 193.383L533.672 192.701Z" fill="url(#paint11_linear_110_24)"/>
<path d="M219.182 199.239C219.199 199.125 219.225 199.014 219.254 198.893C219.309 198.661 219.383 198.423 219.479 198.174C220.326 195.903 222.56 193.284 223.574 191.892L251.872 191.304L252.023 198.557L219.182 199.239Z" fill="url(#paint12_linear_110_24)"/>
<path d="M345.908 137.916C346.768 137.747 347.692 137.531 348.701 137.271L371.427 109.998L362.256 117.754L345.908 137.916Z" fill="url(#paint13_linear_110_24)"/>
<path d="M252.023 198.557L251.872 191.304C260.19 177.624 272.617 165.302 287.598 155.191C297.347 148.604 308.18 142.959 319.66 138.473C323.083 137.138 326.562 135.899 330.098 134.783C332.904 133.884 335.741 133.063 338.607 132.309L338.982 132.216C339.997 131.951 341.009 131.69 342.031 131.444L344.527 130.817L348.57 129.791L353.641 128.507L348.799 134.394L346.015 137.78C345.745 137.83 345.48 137.892 345.21 137.942C341.19 138.854 337.198 139.923 333.254 141.123C328.706 142.507 324.214 144.086 319.813 145.834C294.523 155.846 272.041 171.543 257.704 190.279C255.636 192.976 253.737 195.737 252.023 198.557Z" fill="url(#paint14_linear_110_24)"/>
<path d="M404.479 136.385C403.611 136.263 402.676 136.098 401.655 135.894L377.471 109.905L387.052 117.147L404.479 136.385Z" fill="url(#paint15_linear_110_24)"/>
<path d="M396.355 127.62L404.363 136.571C404.709 136.624 405.055 136.683 405.403 136.739C444.689 144.016 482.214 165.444 500.834 193.386L500.684 186.133C482.325 158.583 446.664 137.6 407.776 130.005L396.355 127.62Z" fill="url(#paint16_linear_110_24)"/>
<path d="M346.648 76.1287L376.054 39.1445L383.445 48.4362L405.462 76.1331L384.624 100.996L376.05 111.224L369.175 103.016L360.965 93.2167L346.772 76.2757L346.709 76.2005L346.648 76.1287Z" fill="url(#paint17_linear_110_24)"/>
<path d="M376.055 76.2766L376.055 39.2902L405.462 76.2788L376.055 76.2766Z" fill="url(#paint18_linear_110_24)"/>
<path d="M346.648 76.2744L346.709 76.2003L346.759 76.1285L376.055 39.2902L376.055 76.2767L346.648 76.2744Z" fill="url(#paint19_linear_110_24)"/>
<path d="M376.05 111.223L376.053 97.0386L376.055 76.1307L405.462 76.1329L384.625 100.996L376.05 111.223Z" fill="url(#paint20_linear_110_24)"/>
<path d="M346.648 76.1284L376.055 76.1306L376.053 97.0385L376.05 111.223L369.175 103.016L360.965 93.2164L346.772 76.2754L346.708 76.2002L346.648 76.1284Z" fill="url(#paint21_linear_110_24)"/>
<path style="mix-blend-mode:screen" opacity="0.25" d="M402.061 76.707C394.929 76.707 387.994 77.3995 380.83 77.8122C380.292 78.9838 379.956 80.4233 380.232 81.7853C381.248 86.7943 379.016 94.3691 377.073 98.9783C374.174 95.1048 375.157 86.4206 375.154 81.2766C375.154 75.6634 373.913 68.2092 375.688 62.9291C377.749 68.6715 375.498 74.2405 384.289 74.6778C391.223 75.0254 395.711 75.8323 402.058 76.7099L402.061 76.707Z" fill="url(#paint22_linear_110_24)"/>
<path style="mix-blend-mode:screen" opacity="0.25" d="M401.048 77.2163C401.217 77.3831 401.386 77.5562 401.556 77.7229C396.158 80.8655 390.804 82.2422 386.892 86.6697C382.747 91.3627 380.735 97.8877 376.54 102.418C373.505 96.8012 372.995 85.7531 373.592 79.4967C374.344 71.6553 376.235 63.141 376.288 55.4267C378.856 61.5361 376.375 70.9385 384.803 72.1373C387.093 72.4639 406.647 72.052 401.048 77.2163Z" fill="url(#paint23_linear_110_24)"/>
<path style="mix-blend-mode:screen" opacity="0.86" d="M384.295 81.7819C387.858 82.4618 391.814 80.4577 392.353 76.7968C388.557 76.4584 383.058 76.865 379.807 78.3587C380.829 80.1494 382.676 81.0595 384.804 80.7695L384.298 81.7853L384.295 81.7819Z" fill="url(#paint24_linear_110_24)"/>
<path style="mix-blend-mode:screen" opacity="0.86" d="M382.771 88.3806C387.592 85.1569 383.011 79.2997 379.348 83.4061C376.51 86.5844 379.951 91.8998 383.28 87.8757L382.774 88.384L382.771 88.3806Z" fill="url(#paint25_linear_110_24)"/>
<path style="mix-blend-mode:screen" opacity="0.86" d="M376.663 91.7411C379.113 90.0993 376.787 87.1279 374.921 89.2131C373.478 90.8303 375.226 93.5299 376.92 91.484L376.663 91.7411Z" fill="url(#paint26_linear_110_24)"/>
<path style="mix-blend-mode:screen" opacity="0.86" d="M378.246 79.6835C382.512 76.8276 378.457 71.6434 375.215 75.2786C372.703 78.0947 375.746 82.7988 378.697 79.2338L378.246 79.6835Z" fill="url(#paint27_linear_110_24)"/>
<path style="mix-blend-mode:screen" opacity="0.86" d="M381.477 79.2186C381.087 79.4769 381.459 79.9527 381.753 79.6228C381.981 79.3665 381.705 78.9337 381.436 79.2594L381.48 79.222L381.477 79.2186Z" fill="url(#paint28_linear_110_24)"/>
<path style="mix-blend-mode:multiply" opacity="0.4" d="M346.709 76.2005L346.649 76.1287L376.058 39.1416L383.446 48.4362C383.399 48.429 383.355 48.4189 383.305 48.4083C383.134 48.3714 382.954 48.3306 382.771 48.28C381.148 47.7538 379.143 46.586 377.697 45.8055C377.132 46.8067 376.59 47.7654 376.053 48.6961C373.547 53.0381 371.119 56.7527 367.009 60.8556C363.679 64.1788 352.374 71.2383 351.919 76.1306C351.915 76.181 351.911 76.2251 351.907 76.2754C351.9 76.3859 351.9 76.4969 351.907 76.6021C351.963 77.5361 355.63 81.9956 356.25 83.3141C357.775 86.5687 359.447 89.8454 360.963 93.2133L346.769 76.2722L346.646 76.2712L346.706 76.197L346.709 76.2005Z" fill="url(#paint29_linear_110_24)"/>
<path style="mix-blend-mode:multiply" opacity="0.43" d="M369.175 103.016C370.336 102.979 371.626 103.201 373.026 103.705C374.192 104.125 375.174 104.432 376.051 104.599C378.971 105.16 380.755 104.219 384.292 101.066C384.402 101.037 384.515 101.012 384.621 100.993L376.05 111.224L369.175 103.016Z" fill="url(#paint30_linear_110_24)"/>
<defs>
<radialGradient id="paint0_radial_110_24" cx="0" cy="0" r="1" gradientUnits="userSpaceOnUse" gradientTransform="translate(380.172 181.015) rotate(133.809) scale(127.305 127.305)">
<stop offset="0.1" stop-color="#FFE67D"/>
<stop offset="0.5" stop-color="#FDDB4C"/>
<stop offset="0.99" stop-color="#EF8343"/>
</radialGradient>
<linearGradient id="paint1_linear_110_24" x1="404.3" y1="176.99" x2="413.896" y2="46.2878" gradientUnits="userSpaceOnUse">
<stop stop-color="#FFE699"/>
<stop offset="0.5" stop-color="#FDDB4C"/>
<stop offset="0.99" stop-color="#DD5E31"/>
</linearGradient>
<linearGradient id="paint2_linear_110_24" x1="330.52" y1="171.576" x2="340.116" y2="40.8743" gradientUnits="userSpaceOnUse">
<stop stop-color="#FFE699"/>
<stop offset="0.5" stop-color="#FDDB4C"/>
<stop offset="0.99" stop-color="#DD5E31"/>
</linearGradient>
<linearGradient id="paint3_linear_110_24" x1="437.115" y1="145.292" x2="414.291" y2="-34.5966" gradientUnits="userSpaceOnUse">
<stop stop-color="#FFE67D"/>
<stop offset="0.5" stop-color="#FDDB4C"/>
<stop offset="0.73" stop-color="#FCD94B"/>
<stop offset="0.81" stop-color="#FBD24B"/>
<stop offset="0.87" stop-color="#F9C649"/>
<stop offset="0.92" stop-color="#F7B548"/>
<stop offset="0.96" stop-color="#F39F45"/>
<stop offset="0.99" stop-color="#EF8343"/>
</linearGradient>
<linearGradient id="paint4_linear_110_24" x1="334.29" y1="158.339" x2="311.469" y2="-21.5528" gradientUnits="userSpaceOnUse">
<stop stop-color="#FFE67D"/>
<stop offset="0.5" stop-color="#FDDB4C"/>
<stop offset="0.99" stop-color="#EF8343"/>
</linearGradient>
<linearGradient id="paint5_linear_110_24" x1="512.688" y1="635.752" x2="154.968" y2="292.598" gradientUnits="userSpaceOnUse">
<stop offset="0.00520833" stop-color="#D9D9DD"/>
<stop offset="0.09375" stop-color="white"/>
<stop offset="0.208333" stop-color="#D9D9DD"/>
<stop offset="0.364583" stop-color="#D9D9DD"/>
<stop offset="0.484375" stop-color="white"/>
<stop offset="0.578125" stop-color="#D9D9DD"/>
<stop offset="0.734375" stop-color="#D9D9DD"/>
<stop offset="0.864583" stop-color="white"/>
<stop offset="1" stop-color="#D9D9DD"/>
</linearGradient>
<linearGradient id="paint6_linear_110_24" x1="370.254" y1="735.4" x2="323" y2="198" gradientUnits="userSpaceOnUse">
<stop stop-color="white"/>
<stop offset="0.272843" stop-color="#929292"/>
<stop offset="0.515625" stop-color="white"/>
<stop offset="1" stop-color="#CDCDCD"/>
</linearGradient>
<linearGradient id="paint7_linear_110_24" x1="560.327" y1="586.098" x2="303.003" y2="339.252" gradientUnits="userSpaceOnUse">
<stop offset="0.0416667" stop-color="#ECECEC"/>
<stop offset="0.166667" stop-color="#FAFAFA"/>
<stop offset="0.286458" stop-color="#DEDEE0"/>
<stop offset="0.390625" stop-color="#FDFDFD"/>
<stop offset="0.515625" stop-color="#DEDEE0"/>
<stop offset="0.744792" stop-color="#DEDEE0"/>
<stop offset="0.864583" stop-color="#FEFEFE"/>
<stop offset="1" stop-color="#D8D8D8"/>
</linearGradient>
<linearGradient id="paint8_linear_110_24" x1="444.076" y1="640.273" x2="440.978" y2="223.32" gradientUnits="userSpaceOnUse">
<stop offset="0.015625" stop-color="#F4F4F4"/>
<stop offset="0.177083" stop-color="white"/>
<stop offset="0.369792" stop-color="#C8C4C4"/>
<stop offset="0.630208" stop-color="white"/>
<stop offset="1" stop-color="#D2D2D2"/>
</linearGradient>
<radialGradient id="paint9_radial_110_24" cx="0" cy="0" r="1" gradientUnits="userSpaceOnUse" gradientTransform="translate(383.297 278.106) rotate(133.809) scale(275.719)">
<stop offset="0.1" stop-color="#FFE67D"/>
<stop offset="0.5" stop-color="#FDDB4C"/>
<stop offset="0.99" stop-color="#EF8343"/>
</radialGradient>
<linearGradient id="paint10_linear_110_24" x1="423.539" y1="-17.9823" x2="403.281" y2="73.5447" gradientUnits="userSpaceOnUse">
<stop stop-color="#FFE699"/>
<stop offset="0.5" stop-color="#FDDB4C"/>
<stop offset="0.99" stop-color="#DD5E31"/>
</linearGradient>
<linearGradient id="paint11_linear_110_24" x1="526.307" y1="214.353" x2="426.595" y2="-21.8063" gradientUnits="userSpaceOnUse">
<stop stop-color="#FFE67D"/>
<stop offset="0.5" stop-color="#FDDB4C"/>
<stop offset="0.99" stop-color="#EF8343"/>
</linearGradient>
<linearGradient id="paint12_linear_110_24" x1="249.603" y1="231.907" x2="165.975" y2="14.1918" gradientUnits="userSpaceOnUse">
<stop stop-color="#FFE67D"/>
<stop offset="0.5" stop-color="#FDDB4C"/>
<stop offset="0.99" stop-color="#EF8343"/>
</linearGradient>
<linearGradient id="paint13_linear_110_24" x1="346.724" y1="117.719" x2="353.626" y2="121.32" gradientUnits="userSpaceOnUse">
<stop stop-color="#FFE699"/>
<stop offset="0.5" stop-color="#FDDB4C"/>
<stop offset="0.51" stop-color="#FBD34A"/>
<stop offset="0.54" stop-color="#F3B443"/>
<stop offset="0.57" stop-color="#EC993D"/>
<stop offset="0.61" stop-color="#E68339"/>
<stop offset="0.65" stop-color="#E27235"/>
<stop offset="0.71" stop-color="#DF6632"/>
<stop offset="0.78" stop-color="#DD5F31"/>
<stop offset="0.99" stop-color="#DD5E31"/>
</linearGradient>
<linearGradient id="paint14_linear_110_24" x1="267.087" y1="210.234" x2="347.812" y2="95.9063" gradientUnits="userSpaceOnUse">
<stop stop-color="#FFE67D"/>
<stop offset="0.5" stop-color="#FDDB4C"/>
<stop offset="0.99" stop-color="#EF8343"/>
</linearGradient>
<linearGradient id="paint15_linear_110_24" x1="428.232" y1="124.28" x2="395.262" y2="123.275" gradientUnits="userSpaceOnUse">
<stop stop-color="#FFE699"/>
<stop offset="0.5" stop-color="#FDDB4C"/>
<stop offset="0.99" stop-color="#DD5E31"/>
</linearGradient>
<linearGradient id="paint16_linear_110_24" x1="462.383" y1="146.129" x2="439.354" y2="170.136" gradientUnits="userSpaceOnUse">
<stop stop-color="#FFE67D"/>
<stop offset="0.5" stop-color="#FDDB4C"/>
<stop offset="0.99" stop-color="#EF8343"/>
</linearGradient>
<linearGradient id="paint17_linear_110_24" x1="405.47" y1="75.1498" x2="346.657" y2="75.1452" gradientUnits="userSpaceOnUse">
<stop stop-color="#FFCFDE"/>
<stop offset="0.5" stop-color="#E82A5C"/>
<stop offset="1" stop-color="#B30037"/>
</linearGradient>
<linearGradient id="paint18_linear_110_24" x1="368.265" y1="88.9809" x2="411.417" y2="29.0851" gradientUnits="userSpaceOnUse">
<stop stop-color="#FFCFDE"/>
<stop offset="0.5" stop-color="#E82A5C"/>
<stop offset="1" stop-color="#B30037"/>
</linearGradient>
<linearGradient id="paint19_linear_110_24" x1="397.38" y1="108.609" x2="362.865" y2="59.8732" gradientUnits="userSpaceOnUse">
<stop stop-color="#FFCFDE"/>
<stop offset="0.5" stop-color="#E82A5C"/>
<stop offset="1" stop-color="#B30037"/>
</linearGradient>
<linearGradient id="paint20_linear_110_24" x1="373.794" y1="73.0826" x2="419.475" y2="128.419" gradientUnits="userSpaceOnUse">
<stop stop-color="#FFCFDE"/>
<stop offset="0.5" stop-color="#E82A5C"/>
<stop offset="1" stop-color="#B30037"/>
</linearGradient>
<linearGradient id="paint21_linear_110_24" x1="419.785" y1="97.5731" x2="335.011" y2="89.9523" gradientUnits="userSpaceOnUse">
<stop offset="0.17" stop-color="#FFCFDE"/>
<stop offset="0.5" stop-color="#E82A5C"/>
<stop offset="1" stop-color="#B30037"/>
</linearGradient>
<linearGradient id="paint22_linear_110_24" x1="401.637" y1="72.0662" x2="255.435" y2="123.325" gradientUnits="userSpaceOnUse">
<stop stop-color="#FFCFDE"/>
<stop offset="0.5" stop-color="#E82A5C"/>
<stop offset="1" stop-color="#B30037"/>
</linearGradient>
<linearGradient id="paint23_linear_110_24" x1="402.062" y1="78.8897" x2="373.383" y2="78.8874" gradientUnits="userSpaceOnUse">
<stop stop-color="#FFCFDE"/>
<stop offset="0.5" stop-color="#E82A5C"/>
<stop offset="1" stop-color="#B30037"/>
</linearGradient>
<linearGradient id="paint24_linear_110_24" x1="392.36" y1="79.2641" x2="379.813" y2="79.2632" gradientUnits="userSpaceOnUse">
<stop stop-color="#FFCFDE"/>
<stop offset="0.5" stop-color="#E82A5C"/>
<stop offset="1" stop-color="#B30037"/>
</linearGradient>
<linearGradient id="paint25_linear_110_24" x1="384.862" y1="85.6267" x2="378.302" y2="85.6261" gradientUnits="userSpaceOnUse">
<stop stop-color="#FFCFDE"/>
<stop offset="0.5" stop-color="#E82A5C"/>
<stop offset="1" stop-color="#B30037"/>
</linearGradient>
<linearGradient id="paint26_linear_110_24" x1="377.73" y1="90.3266" x2="374.396" y2="90.3264" gradientUnits="userSpaceOnUse">
<stop stop-color="#FFCFDE"/>
<stop offset="0.5" stop-color="#E82A5C"/>
<stop offset="1" stop-color="#B30037"/>
</linearGradient>
<linearGradient id="paint27_linear_110_24" x1="380.094" y1="77.2389" x2="374.29" y2="77.2384" gradientUnits="userSpaceOnUse">
<stop stop-color="#FFCFDE"/>
<stop offset="0.5" stop-color="#E82A5C"/>
<stop offset="1" stop-color="#B30037"/>
</linearGradient>
<linearGradient id="paint28_linear_110_24" x1="382.57" y1="49.0493" x2="383.113" y2="49.0494" gradientUnits="userSpaceOnUse">
<stop stop-color="#FFCFDE"/>
<stop offset="0.5" stop-color="#E82A5C"/>
<stop offset="1" stop-color="#B30037"/>
</linearGradient>
<linearGradient id="paint29_linear_110_24" x1="383.451" y1="66.1442" x2="346.654" y2="66.1413" gradientUnits="userSpaceOnUse">
<stop stop-color="#FFCFDE"/>
<stop offset="0.5" stop-color="#E82A5C"/>
<stop offset="1" stop-color="#B30037"/>
</linearGradient>
<linearGradient id="paint30_linear_110_24" x1="384.632" y1="106.074" x2="369.184" y2="106.073" gradientUnits="userSpaceOnUse">
<stop stop-color="#FFCFDE"/>
<stop offset="0.5" stop-color="#E82A5C"/>
<stop offset="1" stop-color="#B30037"/>
</linearGradient>
</defs>
</svg>
